<mxfile host="app.diagrams.net" agent="Mozilla/5.0 (X11; Linux x86_64) AppleWebKit/537.36 (KHTML, like Gecko) Chrome/136.0.0.0 Safari/537.36" version="27.0.5">
  <diagram name="Page-1" id="w16MzvPQXjAQUbhhI-Uv">
    <mxGraphModel dx="1426" dy="793" grid="1" gridSize="10" guides="1" tooltips="1" connect="1" arrows="1" fold="1" page="1" pageScale="1" pageWidth="850" pageHeight="1100" math="0" shadow="0">
      <root>
        <mxCell id="0" />
        <mxCell id="1" parent="0" />
        <mxCell id="YxmLyxGHtYIxTq1yroco-47" value="" style="shape=image;verticalLabelPosition=bottom;labelBackgroundColor=default;verticalAlign=top;aspect=fixed;imageAspect=0;image=data:image/png,iVBORw0KGgoAAAANSUhEUgAAA+gAAAPoCAYAAABNo9TkAAAgAElEQVR4XuydCZhcRbmGz+mZyUJCWEOSISyiKIpcURRvWDQsmQBJWETkCrITQAUVRJElyWQRFBFELuIlkV1FIrIkAZIADspFruCKKLIGSSYJCWFJIMvMdN/vH7tDp6en53Sftbvfep7/6a3qr6q3qrvPd2pzHQIEIAABCEAAAhCAAAQgAAEIQAACsRNwYy8BBYAABCAAAQhAAAIQgAAEIAABCEDAQaDTCSAAAQhAAAIQgAAEIAABCEAAAgkggEBPQCNQBAhAAAIQgAAEIAABCEAAAhCAAAKdPgABCEAAAhCAAAQgAAEIQAACEEgAAQR6AhqBIkAAAhCAAAQgAAEIQAACEIAABBDo9AEIQAACEIAABCAAAQhAAAIQgEACCCDQE9AIFAECEIAABCAAAQhAAAIQgAAEIIBApw9AAAIQgAAEIAABCEAAAhCAAAQSQACBnoBGoAgQgAAEIAABCEAAAhCAAAQgAAEEOn0AAhCAAAQgAAEIQAACEIAABCCQAAII9AQ0AkWAAAQgAAEIQAACEIAABCAAAQgg0OkDEIAABCAAAQhAAAIQgAAEIACBBBBAoCegESgCBCAAAQhAAAIQgAAEIAABCEAAgU4fgAAEIAABCEAAAhCAAAQgAAEIJIAAAj0BjUARIAABCEAAAhCAAAQgAAEIQAACCHT6AAQgAAEIQAACEIAABCAAAQhAIAEEEOgJaASKAAEIQAACEIAABCAAAQhAAAIQQKDTByAAAQhAAAIQgAAEIAABCEAAAgkggEBPQCNQBAhAAAIQgAAEIAABCEAAAhCAAAKdPgABCEAAAhCAAAQgAAEIQAACEEgAAQR6AhqBIkAAAhCAAAQgAAEIQAACEIAABBDo9AEIQAACEIAABCAAAQhAAAIQgEACCCDQE9AIFAECEIAABCAAAQhAAAIQgAAEIIBApw9AAAIQgAAEIAABCEAAAhCAAAQSQACBnoBGoAgQgAAEIAABCEAAAhCAAAQgAAEEOn0AAhCAAAQgAAEIQAACEIAABCCQAAII9AQ0AkWAAAQgAAEIQAACEIAABCAAAQgg0OkDEIAABCAAAQhAAAIQgAAEIACBBBBAoCegESgCBCAAAQhAAAIQgAAEIAABCEAAgU4fgAAEIAABCEAAAhCAAAQgAAEIJIAAAj0BjUARIAABCEAAAhCAAAQgAAEIQAACCHT6AAQgAAEIQAACEIAABCAAAQhAIAEEEOgJaASKAAEIQAACEIAABCAAAQhAAAIQQKDTByAAAQhAAAIQgAAEIAABCEAAAgkggEBPQCNQBAhAAAIQgAAEIAABCEAAAhCAAAKdPgABCEAAAhCAAAQgAAEIQAACEEgAAQR6AhqBIkAAAhCAAAQgAAEIQAACEIAABBDo9AEIQAACEIAABCAAAQhAAAIQgEACCCDQE9AIFAECEIAABCAAAQhAAAIQgAAEIIBApw9AAAIQgAAEIAABCEAAAhCAAAQSQACBnoBGoAgQgAAEIAABCEAAAhCAAAQgAAEEOn0AAhCAAAQgAAEIQAACEIAABCCQAAII9AQ0AkWAAAQgAAEIQAACEIAABCAAAQgg0OkDEIAABCAAAQhAAAIQgAAEIACBBBBAoCegESgCBCAAAQhAAAIQgAAEIAABCEAAgU4fgAAEIAABCEAAAhCAAAQgAAEIJIAAAj0BjUARIAABCEAAAhCAAAQgAAEIQAACCHT6AAQgAAEIQAACEIAABCAAAQhAIAEEEOgJaASKAAEIQAACEIAABCAAAQhAAAIQQKDTByAAAQhAAAIQgAAEIAABCEAAAgkggEBPQCNQBAhAAAIQgAAEIAABCEAAAhCAAAKdPgABCEAAAhCAAAQgAAEIQAACEEgAAQR6AhqBIkAAAhCAAAQgAAEIQAACEIAABBDo9AEIQAACEIAABCAAAQhAAAIQgEACCCDQE9AIFAECEIAABCAAAQhAAAIQgAAEIIBApw9AAAIQgAAEIAABCEAAAhCAAAQSQACBnoBGoAgQgAAEIAABCEAAAhCAAAQgAAEEOn0AAhCAAAQgAAEIQAACEIAABCCQAAII9AQ0AkWAAAQgAAEIQAACEIAABCAAAQgg0OkDEIAABCAAAQhAAAIQgAAEIACBBBBAoCegESgCBCAAAQhAAAIQgAAEIAABCEAAgU4fgAAEIAABCEAAAhCAAAQgAAEIJIAAAj0BjUARIAABCEAAAhCAAAQgAAEIQAACCHT6AAQgAAEIQAACEIAABCAAAQhAIAEEEOgJaASKAAEIQAACEIAABCAAAQhAAAIQQKDTByAAAQhAAAIQgAAEIAABCEAAAgkggEBPQCNQBAhAAAIQgAAEIAABCEAAAhCAAAKdPgABCEAAAhCAAAQgAAEIQAACEEgAAQR6AhqBIkAAAhCAAAQgAAEIQAACEIAABBDo9AEIQAACEIAABCAAAQhAAAIQgEACCCDQE9AIFAECEIAABCAAAQhAAAIQgAAEIIBApw9AAAIQgAAEIAABCEAAAhCAAAQSQACBnoBGoAgQgAAEIAABCEAAAhCAAAQgAAEEOn0AAhCAAAQgAAEIQAACEIAABCCQAAII9AQ0AkWAAAQgAAEIQAACEIAABCAAAQgg0OkDEIAABCAAAQhAAAIQgAAEIACBBBBAoCegESgCBCAAAQhAAAIQgAAEIAABCEAAgU4fgAAEIAABCEAAAhCAAAQgAAEIJIAAAj0BjUARIAABCEAAAhCAAAQgAAEIQAACCHT6AAQgAAEIQAACEIAABCAAAQhAIAEEEOgJaASKAAEIQAACEIAABCAAAQhAAAIQQKDTByAAAQhAAAIQgAAEIAABCEAAAgkggEBPQCNQBAhAAAIQgAAEIAABCEAAAhCAAAKdPgABCEAAAhCAAAQgAAEIQAACEEgAAQR6AhqBIkAAAhCAAAQgAAEIQAACEIAABBDo9AEIQAACEIAABCAAAQhAAAIQgEACCCDQE9AIFAECEIAABCAAAQhAAAIQgAAEIIBApw9AAAIQgAAEIAABCEAAAhCAAAQSQACBnoBGoAgQgAAEIAABCEAAAhCAAAQgAAEEOn0AAhCAAAQgAAEIQAACEIAABCCQAAII9AQ0AkWAAAQgAAEIQAACEIAABCAAAQgg0OkDEIAABCAAAQhAAAIQgAAEIACBBBBAoCegESgCBCAAAQhAAAIQgAAEIAABCEAAgU4fgAAEIAABCEAAAhCAAAQgAAEIJIAAAj0BjUARIAABCEAAAhCAAAQgAAEIQAACCHT6AAQgAAEIQAACEIAABCAAAQhAIAEEEOgJaASKAAEIQAACEIAABCAAAQhAAAIQQKDTByAAAQhAAAIQgAAEIAABCEAAAgkggEBPQCNQhNojcNZZZ+3c2dn5Uq5mrutOmjlz5oxKanr66acvUrqdsmnnz5o165BK/JAGAhCAAAQgAAEIQAACEEg2AQR6stuH0lUpAQR6lTYcxYYABCAAAQhAoJuABghu0sNJWRxdGiBorATNxIkTT85kMjfmpR0lX49X4os0EKgHAgj0emhl6hg5AQR65MjJEAIQgAAEIACBAAkg0AOEiSsIlEEAgV4GLKJCwCsBBLpXUsSDAAQgAAEIQCCJBBDoSWwVylQPBBDo9dDK1DFyAgj0yJGTIQQgAAEIQAACARJAoAcIE1cQKIMAAr0MWESFgFcCCHSvpIgHAQhAAAIQgEASCSDQk9gqlKkeCCDQ66GVqWPkBBDokSMnQwhAAAIQgAAEAiSAQA8QJq4gUAYBBHoZsIgKAa8EEOheSREPAhCAAAQgAIEkEkCgJ7FVKFM9EECg10MrU8fICSDQI0dOhhCAAAQgAAEIBEgAgR4gTFxBoAwCCPQyYBEVAl4JINC9kiIeBCAAAQhAAAJJJIBAT2KrUKZ6IIBAr4dWpo6RE0CgR46cDCEAAQhAAAIQCJAAAj1AmLiCQBkEEOhlwCIqBLwSQKB7JUU8CEAAAhCAAASSSACBnsRWoUz1QACBXg+tTB0jJ1Ao0AMswPxZs2YdEqA/XEEAAhCAAAQgAIEeBBDodAoIxEMAgR4Pd3KtcQII9BpvYKoHAQhAAAIQqHECBQI9yNqO0mDD40E6xBcEaokAAr2WWpO6JIYAAj0xTUFBIAABCEAAAhCogAACvQJoJIFAAAQQ6AFAxAUECgkUEejXZDKZ6ysh5brufKVrzqZlinslEEkDAQhAAAIQgEBZBBDoZeEiMgQCI4BADwwljiDwLgE2iaM3QAACEIAABCBQzQQK16BroGHPSuqjgYYjlG5GXlqmuFcCkjR1QwCBXjdNTUWjJIBAj5I2eUEAAhCAAAQgEDQBNokLmij+IOCNAALdGydiQaAsAgj0snARGQIQgAAEIACBhBFAoCesQShO3RBAoNdNU1PRKAkg0KOkTV4QgAAEIAABCARNAIEeNFH8QcAbAQS6N07EgkBZBBDoZeEiMgQgAAEIQAACCSOAQE9Yg1CcuiGAQK+bpqaiURJAoEdJm7wgAAEIQAACEAiaAAI9aKL4g4A3Agh0b5yIBYGyCCDQy8JFZAhAAAIQgAAEEkYAgZ6wBqE4dUMAgV43TU1FoySAQI+SNnlBAAIQgAAEIBA0AQR60ETxBwFvBBDo3jgRCwJlEUCgl4WLyBCAAAQgAAEIJIwAAj1hDUJx6oYAAr1umpqKRkkAgR4lbfKCAAQgAAEIQCBoAgj0oIniDwLeCCDQvXEiFgTKIoBALwsXkSEAAQhAAAIQSBgBBHrCGoTi1A0BBHrdNDUVjZIAAj1K2uQFAQhAAAIQgEDQBBDoQRPFHwS8EUCge+NELAiURQCBXhYuIkMAAhCAAAQgkDACCPSENQjFqRsCCPS6aWoqCgEIQAACEIAABCAAAW8EEOjeOBELAkETQKAHTRR/EIAABCAAAQhAAAIQgAAEIACBCggg0CuARhIIQAACEIAABCAAAQhAwHFaW1tTTz/9tHvHHXekXdfNwAQCEPBHAIHujx+pIVAxgUwm42qt+tFdXV1j5GRFU1PTDcOGDVukP7p0xU5JCAEIQAACEIAABCIioGuWAUuXLh2bTqffm0qlftOvX7+nrrnmmvURZU82EKhJAgj0mmxWKlUNBE477bQTdKf5uyrrljIT5S/1799/9LXXXvtaNZSfMkIAAhCAAAQgUL8EbOT8lVdeuVMEDtP1TD89dunxlI6Ojtk33XTTuvolQ80h4I8AAt0fP1JDoGICEydOvE2j6J+Tg6ask3RjY+OnXnvttcdnz57dVbFjEkIAAhCAAAQgAIGQCZx55pkf0izAh5XNsFxWEuj3r1+//oRbbrmFwYaQ+eO+dgkg0Gu3balZwgloBH2u/sjGqpiNuaI2NDQc/s9//vP+tra2zoQXn+JBAAIQgAAEIFDHBE499dRRmtZ+jxAMzRPoT3R2do678cYbV9QxGqoOAV8EEOi+8JEYApUT0PEl85S6JV+gS7Afsf3229+naWMI9MrRkhICEIAABCAAgZAJINBDBoz7uiWAQK/bpqficRNAoMfdAuQPAQhAAAIQgEClBBDolZIjHQRKE0Cg00MgEBMBBHpM4MkWAhCAAAQgAAHfBBDovhHiAAJFCSDQ6RgQiIkAAj0m8GQLAQhAAAIQgIBvAgh03whxAAEEOn0AAkkigEBPUmtQFghAAAIQgAAEyiGAQC+HFnEh4J0AI+jeWRETAoESQKAHihNnEIAABCAAAQhESACBHiFssqorAgj0umpuKpskAgj0JLUGZYEABCAAAQhAoBwCCPRyaBEXAt4JINC9syImBAIlgEAPFCfOIAABCEAAAhCIkAACPULYZFVXBBDoddXcVDZJBBDoSWoNygIBCEAAAhCAQDkEEOjl0CIuBLwTQKB7Z0VMCARKAIEeKE6cQQACEIAABCAQIQEEeoSwyaquCCDQ66q5qWySCCDQk9QalAUCEIAABCAAgXIIINDLoUVcCHgngED3zoqYEAiUAAI9UJw4gwAEIAABCEAgQgII9Ahhk1VdEUCg11VzU9kkEUCgJ6k1KAsEIAABCEAAAuUQQKCXQ4u4EPBOAIHunRUxIRAoAQR6oDhxBgEIQAACEIBAhAQQ6BHCJqu6IoBAr6vmprJJIoBAT1JrUBYIQAACEIAABMohgEAvhxZxIeCdAALdOytiQiBQAgj0QHHiDAIQgAAEIACBCAkg0COETVZ1RQCBXlfNTWWTRACBnqTWoCwQgAAEIAABCJRDAIFeDi3iQsA7AQS6d1bEhECgBBDogeLEGQQgAAEIQAACERJAoEcIm6zqigACva6am8omiQACPUmtQVkgAAEIQAACECiHAAK9HFrEhYB3Agh076yICYFACSDQA8WJMwhAAAIQgAAEIiSAQI8QNlnVFQEEel01N5VNEgEEepJag7JAAAIQgAAEIFAOAQR6ObSICwHvBBDo3lkREwKBEkCgB4oTZxCAAAQgAAEIREgAgR4hbLKqKwII9LpqbiqbJAII9CS1BmWBAAQgAAEIQKAcAgj0cmgRFwLeCSDQvbMiJgQCJYBADxQnziAAAQhAAAIQiJAAAj1C2GRVVwQQ6HXV3FQ2SQQQ6ElqDcoCAQhAAAIQgEA5BBDo5dAiLgS8E0Cge2dFTAgESgCBHihOnEEAAhCAAAQgECEBBHqEsMmqrggg0Ouqualskggg0JPUGpQFAhCAAAQgAIFyCBQT6Er/RFdX17gbb7xxRTm+iAsBCLxLAIFOb4BATAROOOGEecq6xXXdxlwR9PyIl19++b62trbOmIpFthCAAAQgAAEIQKBPAieeeOKoVCp1jyIOzYv8hK5lEOh90iMCBHongECnd0AgJgJHHnnkvEwms4lA1x/dEatWrUKgx9QmZAsBCEAAAhCAgDcCxxxzzCiNlt+ja5mNAl3i/ImGhoZxs2fPZgTdG0ZiQaAHAQQ6nQICMRE44IADukfQZRtH0PX8CP3RIdBjahOyhQAEIAABCEDAG4GDDjpolK5Z7pEo32QEvV+/fuPuv/9+BLo3jMSCAAKdPgCBpBDYa6+9egh0m+I+ePBgBHpSGolyQAACEIAABCBQlMDee+89Kp1ObzLF3UbQOzs7x/3pT39CoNNvEk3g4NY5O6ZS7sGO64xwMk6zCjsiW+Cleq9d7y11Uk0LF1wy9pWoK8IIetTEyQ8CWQK77rpr9xR3vdxkBP3555+/T++xBp2eAgEIQAACEIBAYgnstttu3VPcVcBNprhLtI/TtQwCPbEtV78FO3DGnO0b0u5JruuMkwDfx3HcdY6TWSwiEuVuezeZTCYn1kfq1QDFeyzjOvO6UpmbH75kwpIo6CHQo6BMHhAoQmDo0KE9RtBtDfry5csR6PQYCEAAAhCAAAQSTWC77bYbpRHzopvELVu2DIGe6Narr8KNbr1xQFNq6IUSvhdJlK9wnfQ8J5Oauz6z2by21gOKDoqNbv11Y3/3nXGOmx6fcVLjpNyHZhzn0o70isvaWk+RsA8vINDDY4tnCJQk0L9//x6bxGljlSPeeecdBDp9BwIQgAAEIACBRBPYfPPNR2k6ew+BbpvErVmzBoGe6Narn8K1TJ1zrEbHr5bAHqSp65cumDThskpq3zJ9zoUaTTeB/7bE/VcXTDnsF5X48ZIGge6FEnEgEA6BopvEKSsEeji88QoBCEAAAhCAQHAERslVD4Gu9zTa6CDQg+OMpwoJtEyfJ1GduVTJf9TVuGHyQxd95rUKXXUnO+jSX23T0Nlvmp5+SaPpFy+cPN58Bx4Q6IEjxSEEPBNAoHtGRUQIQAACEIAABBJGAIGesAahOO8SaJk6d5ZGzE/TevPz508a//0g2YydPvfrmYxzhfz/ZMGk8acH6dt8IdCDJoo/CHgngED3zoqYEIAABCAAAQgkiwACPVntQWmyBMZOnTtNG7tNctzUUQsmHXZ3GGBapt93pJNJ3+VmnOnzp4yfHGQeCPQgaeILAuURQKCXx4vYEIAABCAAAQgkhwACPTltQUmyBMZMu/dk10ndqJdfXjB5/I/CBNMybe6X5P/ajJM+ZeHkw28KKi8EelAk8QOB8gkg0MtnRgoIQAACEIAABJJBAIGejHagFFkCLdPvfY82cHvRdTJXzp884et9gWmZcfcOmXTjWRLEtm/C+2QNsqV6/Yh2ev/RA5MPf6IvH2Onzfl+xnHP027vuyyYdPhLfcX38jkC3Qsl4kAgHAII9HC44hUCEIAABCAAgfAJINDDZ0wOZRCQWJ6pFdyfmj95/AdKJTv0h/f173oj/R3FOScryotF78o4mW8unDzhyr6KMHba3H9ql/jf6KbAxL7ievkcge6FEnEgEA4BBHo4XPEKAQhAAAIQgED4BBDo4TMmB48ExsyY93E3nXnCSTknL7hk/M2lkrVMn3uxjkyb8e847t0ZN3OjRsyfSne5XdpUbi8dyzZDIvlD+lAfOQdpjfmvS/qbMfckJ+3clEm5n1h4ybgnPRa512gIdL8ESQ+Bygkg0CtnR0oIQAACEIAABOIlgECPlz+55xHQeee3SVjvonXn+/QF5pjWO/q9kdrs566bulabyD1cGD97nNrf9P5wafS5CyZPmNCXT61Hf0xHur24YMqEL/QVt6/PEeh9EeJzCIRHAIEeHls8QwACEIAABCAQLgEEerh88V4GAQnk1yXQpy2YNO6qMpL1GlXHtP1Q553ZFPjlEv0S6qWDzlw/VwJ9suJu1Vfcvj5HoPdFiM8hEB4BBHp4bPEMAQhAAAIQgEC4BBDo4fLFu0cCh0ydOzbtOg9oPvr7F06a8JzHZCWjSfCfrwjfk62T6B7Yl88x0+fs6mbcZ91016HzW494oK/4pT5HoPuhR1oI+COAQPfHj9QQgAAEIAABCMRHAIEeH3tyziMwZtrca7R2fJ8Fk8bvFRSYMVPnXiGfthP8ixLo7/XiV2vb/5DJOI8tnDzeRt4rDgj0itGREAK+CSDQfSPEAQQgAAEIQAACMRFAoMcEnmw3JSCBPjfluqvmTxp3YlBsNIJua9B31zT3mRL+Z3jxq93cH8w4zgsS9Gd6id9bHAS6H3qkhYA/Agh0f/xIDQEIQAACEIBAfAQQ6PGxJ+c8AmOmzfljynEW6pizC4IAM3bqvCM0Xf5u+cpk0u7eC1u97cw+Zuqc37mO+7sFU8af56ccCHQ/9EgLAX8EEOj++JEaAhCAAAQgAIH4CCDQ42NPznkENNq91HXd72gE/Wq/YFpa52/npDr+JD/Nsts0Gn6CV58t0+f8xely/rygdcJJXtMUi4dA90OPtBDwRwCB7o8fqSEAAQhAAAIQiI8AAj0+9uS8qUBfo5dfkZi+wQ+YUVfeMXDzNZstlI99ZS+l+/X/6IPfGvOmV5+6UfC4zlX/yILJ4/rcVK6UTwS6V+LEg0DwBBDowTPFIwQgAAEIQAAC0RBAoEfDmVz6IKAz0J/TWvGbdV75jEphjW79dWP/1Nt3ag354fLxRkM6te/9rYf9vRx/LdPmXOJknJN0Fvqu5aQrjItA90OPtBDwRwCB7o8fqSEAAQhAAAIQiI8AAj0+9uScR0Bnlj+iM9D/ppHrL1cEprU11ZLa61aNfh+n9O9IIB8yf/L435brq2XavGu1av3DWoP+6XLT5sdHoPuhR1oI+COAQPfHj9QQgAAEIAABCMRHAIEeH3tyzhfo0+b+XOJ6gAT6UeWDybjaff36jOOerrTrnYw7YcGUcTbNvewggX6X9pWzc9M/X3bivAQIdD/0SAsBfwQQ6P74kRoCEIAABCAAgfgIINDjY0/O+QJ9+txzNHJ9qaa4b14umO4z1B3n7H+L8/RRC6Ycfn+5PnLxNcV9tUbyL9KxbNdU6sPSIdD90CMtBPwRQKD740dqCEAAAhCAAATiI4BAj489OecROLh17i6plPOCm3HGz58y3q6vPQWtXb9cgvobirxBaT9TTtrCDMZOnTsu4zpzHbdplwWTxr7kqQC9REKg+6FHWgj4I4BA98eP1BCAAAQgAAEIxEcAgR4fe3IuIKCz0H+vt/6wcPKEL3qBI0E9TYJ6kuJ26PGzCyeNv9dLut7iKP/rdNTbxzR6/kk/fiwtAt0vQdJDoHICCPTK2ZESAhCAAAQgAIF4CSDQ4+VP7nkEWqbPO1fT3K/sdDve9/Cko14oBUdrxb+lteKXZeP8IOVm7ikVP51xV2td+R96i3PwZRrB73Be0Gj8eQsmjbvKb8Mg0P0SJD0EKieAQK+cHSkhAAEIQAACEIiXAAI9Xv7kXkBAa8CfkUh+VKPYtuFbr0Hnldu56YPKAPgHCfSP9xa/ZfrcWbo5sJ/WwO9Whs9eoyLQg6CIDwhURgCBXhk3UkEAAhCAAAQgED8BBHr8bUAJ8giMnTbnRO3GfnM6ndn/wdYJj/YqqAMU6Ae3ztkvlXJ/6zqZk+ZPnnBLEA2CQA+CIj4gUBkBBHpl3EgFAQhAAAIQgED8BBDo8bcBJSggoF3Z75HA3cNtaNx3/sWHLA0T0NhvPzAi09X5vxnHeWrh5PFHBJUXAj0okviBQPkEEOjlMyMFBCAAAQhAAALJIIBAT0Y7UIo8AgdfcMcWqcGb2ej5Mk11HxMmHE1tt/PSh6fXvLPfg9/93JtB5YVAD4okfiBQPgEEevnMSAEBCEAAAhCAQDIIINCT0Q6UooDAwdPu+2jKSUukZx5uanJPnHfh+NeDhDTusrlbdXRkNJ3dPTDtpPZ7cPJhfwrSPwI9SJr4gkB5BBDo5fEiNgQgAAEIQAACySFQTKDbUVfjZSuSU0xKUo8EWlrn7uOknFs0/Xy9BO+JpXZhL4ePNpjbSz5vkc/+Tlp+W8c/Vk56L3ER6F4oEQcC4RC4TW4/J2vKc7+fnj8u6wonS7xCAAIQgAAEIACBQAjsIS82xXdYnrcH9fzzspWB5IATCPggcNC37xnW0NV4i+NmDtIu65etHrz20t+d97m1lbgcdeUdAzdfM/Ai7RJ/od4E9zIAACAASURBVJNxHu5q6DrhoYuPWF6Jr77SIND7IsTnEAiPwElyfZ1sYDaLRXrcS7YqvCzxDAEIQAACEIAABAIhMEBebFDhg7IGmQYWnUtlV8hWB5IDTiAQAAEdv6ZzzyWsncw67bb+aMZ1zl8w6fCXvLhumX7ve9xM6oqMk9Egmqs+n7lMx6l9x0vaSuMg0CslRzoI+CdgwnxfmU0Rsztwj8iek6X9u8YDBCAAAQhAAAIQCJ3Ax5TD0bJdZH+Q3Syz0XMT6wQIJIbAv9eNOxepQGfJBjuu8/tMxpnnZNIS6m57JuW2W2HddKZZ3bfZcVMS5s44xdtbb78tu66pybk06PXsxQAh0BPTbShInRKw6e39ZTalfb0McV6nHYFqQwACEIAABCAAAQiET2Ds1Lnj0q47PuVkDtWdJAnyTZabWgE6JJLb0457v+t2zdNo+9zwS/VuDgj0KGmTFwQgAAEIQAACEIAABCAAAQgkhkBL6/ztMk6nCXUNmDe2L2gd+2qchUOgx0nfZ95nnXXWzp2dnRvXT7iuO2nmzJkzKnF7+umnL1K6nbJp58+aNeuQSvyQpiwCjYp9sKxF9nGZTQ/bWtZPZlNp7DxFm/L+d1mb7CHZG2XlQGQIQAACEIBAgglMnDjx5Ewmc2OuiOl0ev8bbrjBzjAuKxReEynxhbqWCXWdaFkFrN3IO6pqR8lsk1tbi769bLCsU2br0JfJ/iGz6e8LZH+RMf3dZ3/QdftNcmF7GVnoUl+3a8qyQ+H3Tw5GyZftK0CIkQACPUb4frNGoPslGFt620jlVFmrrPtuncewQfFmy86TxXpnz2N5iQYBCEAAAhAoSQCBXrUdZFeV/Nuyz8rK0RPPKv402U+rtuYJKDgCPQGNEGIRyvlChVgMXFdCAIFeCbXY09jd5Ttl9lhJeEWJ3ivrqCQxaSAAAQhAAAJJIoBAT1JreCqLaQcT2NoV26lo1FbpbJOu//GUG5GKEkCg13bHQKBXcfsi0Kuu8T6lEt8t26qg5P/S63my/5XZbu42tX2IzKaJ2dT3sbL3Z9N8RY/XVF3NQygw/T8EqLiEAAQgEDEBBHrEwP1lZ0vwbpLZOef5wQYNfiO7T/ZC9lrGZgva9c6HZfvIxsjsWLalsvfIbGNcQoUEEOgVgquSZAj0KmmoYsVEoFRV4+2m0tr6q83ySr1Ezy+W3SLraz3WRxTnBNkk2dqqqnlIhaX/hwQWtxCAAAQiJIBAjxC2/6xukItTCtz8TK/t6KqX+3A/SJ9/LnsNc7v/otS3BwR6bbc/Ar2K2xeBUjWNZ8eo2YYbe+aV+I96fqiMteQVNiP9v0JwJIMABCCQIAII9AQ1RumiHKuP84W1HQv7Rdn1VVODGiooAr2GGrNIVRDoVdy+CJSqabxvqqTfzSut7bz/UZlNZSdUSID+XyE4kkEAAhBIEAEEeoIao/ei2Ow/W463TV4UltzF2HQI9BjhR5A1Aj0CyGFlgUAJi2ygfpvkzQS5rSe3YFPZbS162UfIBFqqGnBG/6+BRqQKEIBA3RNAoFdFF/iySvnfeSW149JsfxxCTAQQ6JuAtxMFJsps36a9sp/YTNUnZT+RPVNmMwXtz/ZjOF+2r+xjsu1kdtygldE2jrbv0yYBgV5miyUpOgIlSa3Ra1mO0yf5R4nYZnDjq6LkCS8k/T/hDUTxIAABCHgggED3ACn+KHY0momWXPiEnpj4IcREAIG+EbzdPLpSZhsYFgu2FONc2Q89NlXQ/uxGlpXvQyXyt82fvyazsnYHBLrH1kpiNARKElulR5lsAzjb3C0XDtGT+VVR8oQXkv6f8AaieBCAAAQ8EECge4AUb5RdlL3tzJ4LtqfOqHiLRO4I9O4+cLnsGx57w1WKd14fcYP291/K7+cey/eI4o3OxUWge6SWxGgIlCS2So8yLdI7O2XfXafHLWQbqqLkCS8k/T/hDUTxIAABCHgggED3ACneKCcr+xvzijBFz+0cdEKMBBDojg143V9mE9gMVpvJWiwE7W9bZfJX2YgyyjhVcVstPgK9DGpJixqnQDnmmGMaVqxY4Y4ePTpSLG1tbZvkV/g60sL8OzNbU97VS75D9X7+Lu12zvl+MZSxJrOMs//XJFAqBQEIQCAGAgj0GKCXl+W1iv6lvCR2nvmD5bkgdtAEEOjd4nePMrn+XfF37yVNJf6elq8P9+LPTjewdfHlBpsK/w8EernYEhS/UKAEWLT5s2bNsjtJxYKrfId2dXUdlk6n3+O6rm18EFlYv36989ZbbzlvvvnmJo+rV6921q2zAepIg60VsY0n5spWywrPMrcv7VN5JbI70KeGUEL7HtvaG2sLe55fjtzzYu9ZUfx83tfZ7SFU9V2XCPRQ8eIcAhCAQCQECgV6gJleqGuZ7xTzZ4MMW2211a66hhmt65nNA8yzT1e6dnLefvvt7usYu3ZZtWpV92PO7PMIg/2Pr5H9TmabVhULv9SbR+d9YLMCbUf3MMJBcmrXTr2tJw4jT6exsdHZfPPNnS233NLZYostup/nHgcOHOikUqlQ8u3Nqfpl+2abbfag+uiK1tbWoh2iQKAHWb5R+t7YMoa4wiXK2NZj2/Wsrd3+dpGC7Kb3/lHk/d/rPbuZ1CH7kcw2ZSsMJtBNqOeHoP2ZbzupaUhBPjZoZ9PsbcBusuyUIuWzowt/jECPq/sFkG8cAv3ss89ulkh+IJPJWAeP9hdLGZoItz8x+2MrFOkbNsQ2c9zuJH9etrKgWW23dltTkgvf1xPbxTHosLUc/o/sQJk9t5sF62VrDVn20Z7n3st/3z43e6dImtxnFn/tdtttt27IkCHrtt1223XDhw9fq8e16gv2x+7oD2yjWB80aFBm8eLFjj3mKqo/u43Ply1b1v1cfzwb32tubu5+bjMihg4d2v189uzZvc1M6HaLQA+6G+EPAhCAQPQEohboEuf9JMTG6TpmlmprQjDSa2Hl230dUzjYkHvPPo84WIavyybJbi6S98N674C89+2GRvd/f8DBRhwPlw2Kuk2ampq6RbmucbqFeb5IN4EuwRxwVft0l1aei9QXjh05cuQ/i4n0GhXodoOmcHaGvWd9MD+YaL+o4D279i0UxG/pvcIbcJcVSVvMn10z2zW1XR/ngld/xyrB7UVa2fZzsJOdcuE3erJ/QbyZen1G5D2uzy5JBM8E4hDop5122gm6k3i1fjS28lzQACMmVKBbDW3DlCdk+aLS1rrMyat+q57b+pIgg32HbRO6Yn+qQebjbL311j1Md3hzedif9Tr1i7XqH92P+nNZq8dukW/PNSqwrqGhoftRr7vj5NLo/e54uff0/E3FeezZZ5/dINHeWawiCPRAmxdnEIAABGIhELVAP+ecc4asXbvWxKBdREce8gV6vki352YxCHRjYP+zNmpaKBbsM9utPXd0lYn5MAZndpbfNtmOssi1SaFAN6GeE+sxCXTjbiL9a7ruveHWW299u7Cj1qhAt0Gs7xXUtdjmbjb4ZYNg+cHE7qcL3vMTz65Rd5C9lufTq7/blOb4grIszvrLf/sIvbi7IN59ej0u8i9BYQfjdeUEigj0a/TDbn86ZQf9CNjO4s3ZhL1OcT/jjDOOk8CyszAR6O9Stj8sO9fQ1q/kT0WydVr5ZxsWu2tXdlsVJLDvsJ3xWGyajF/fG9Pb3eN8ga7R7+7XeQI9sLzyHC3X8/M11cp+6HqEOG5QhVFJfEIAAhCoZwKFAl3XMSeKx5/KZaJ0zbpBnH9KStEp7rqO2ULXMXZT2y6OIw8JFeg2uPB/smJTgm067j55oPrredBTFt8rnyawctehkbZLQgW6jdx/xaNA71K/2rMSaMrDvgcz8tLGOcXdRG3hNZ/N7rCR7PzgdSTbz0i7XdsPl+XvJeXV3yqlK9RJv9J7+UtFrD42g+cN2cC8yrXq+VQEeiW9OSFp4hhBVJ7bab3WY/ohsLtKYdxFLUnXRtBzd5lzd55zU91jmuJuX2AT5ocVfImtHv8ps3VduWDT0M8KuPvYd/hMmZ2hmFuDHnAWup1dINBzYt3uLIcc2jW9a4di07sQ6CGTxz0EIACBCAhEvUncySefPECCbKKuY7yeixwohYQKdBsttOuIC4pU9gG9Z2c554LtSr0sUCiO0yh/No3ZZiPa80hDEgW6rrvW63r7gBdffPGJYjMJa3STuKDXgvvxZ31wmCxfoPvxV2ztu+VhyzouldlNqjtkJ9mbCPRIfwKCzSwOgW41OPXUU5v1Y/bpzs7OnfUy0k3iTIQXrj03oR7zJnE25cXulhUuHLM7wUvyWt3W1dioetDBjnKwjTRsjZjdscv/XueeF3sv/zegZBqNSrh5I+i55+6AAQOCrkuhvw0S6FtJoOevAeqOg0APGz3+IQABCIRPIGqBbv+Ruo4ZrKVVNir8SY2mR7pJnBHNrTe3x9dff32T1zFsEmfTp21zLRvB7jGVWu8V7kZtp9HYqHrQYaQcmm/bmTvSTeL69evnDB48uHsdus0QtOntuY3iIhiI6MFRfbNdN3Ie7ejoeOqmm24qugNyjQp0Y1HJbupB786ea5NCgV5p+Urt9l70e4RAD/rnJUJ/cQn0CKtY7VnZ98um4QzOVsSm6WwjC3MHGPtTM9VsQ9tmNhUt9zz3vj3mP7fPi7238X3tcDpAm+oM3GabbQbqz2uAxPpAmfR5t0K3mRSbCHwbcdefi6+bAvLZKT+3zZw58/RiHSGOJR7V3iEpPwQgAIGkEYhBoHcj0FT3Jj00aT16LNfCy5cvd7RpandZ7Hn+Y8RtZNcktuu1WbFQuC74XEX6QQhltHawNrER9MjbZNgw02IaMtWjNsLd+DyEevbpUrNFbbnkhlKb5dawQA/6PPJK/OXaqJhAr8RfqfPXi/aHyL8AffZKIngmgED3jCrOiAuV+cF5Bfikntud6poKF1xwwRYaCRj4zjvvDNCd6AGaljXQRL0Edn+NBgzKPg7U84G6MzzAHu092UAJebMB9mivBcbS2W/TPbqj/fOrrrrKpt71CPT/mupCVAYCEKhTAnEJ9DrFXUm1bV36o3kJ79dzW9ZHiJFADQt0o3q57Bse8RbbRK4waTn+8tMWE+hhlK9HVRHoHls/idEQKElslR5lsvVc+eew/liv7YxDgk8C9H+fAEkOAQhAIAEEEOgJaITSRbCZeStkuSOsbMf3nWX5S/gSX4laK2CNC3Rrri/LbPlmb8sdbJaBzebwupdEX/6KdZHeBHoY5dskfwR6FX9jEShV0Xh2ZMgiWe67ZucqfkD2clWUPsGFpP8nuHEoGgQgAAGPBBDoHkHFG83OjD8trwhhbHobbw2rLPc6EOjWIrvKJso+Lssd9fdHPbej/+wEo2fKbLZS/uw0JFuGmh9KCfQwyrcxbwR6mS2bpOgIlCS1Rsmy3KVPj8yL0abntllc0fO9q6ZWMReU/h9zA5A9BCAAgQAIINADgBi+CzvCy4RRTjfYunXb2d2W8RFiIFAnAj1KsrYRxHYFGfYl0EMrHwI9NLThO0aghM84oBw+JD9/ltnmJ7lwu57YUQpBnyUaUJGT74b+n/w2ooQQgAAE+iKAQO+LUGI+/6lKclxeaVbrua1Fz1+fnpjC1npBEOiBtzACPXCkdeoQgVJVDW+bXdgmFfnB7kafI3vMY01suvxrsmLHoHh0UTvR6P+105bUBAIQqF8CCPSqafutVVIbbNghr8S287ud4XyFbI2HmtjJMtvLXvQQlyglCCDQA+8eCPTAkdapQwRKVTW8zVa5TnZmkVKbUJ8r+4vMfiDszEvbzdzON99FZutu9s/+Kdr5oH+rqpqHVFj6f0hgcQsBCEAgQgII9Ahh+8/qP+Tioez1Sb63N/VijszOR39OZq/tCFY7Y94GF2zvHdsN/hMyu975rP+i1LcHBHrg7Y9ADxxpnTpEoFRdw5tIv0Q2RdZQYekR6Flw9P8KexDJIAABCCSIAAI9QY3hrSi7KdodMrseqSTciUCvBNumaRDo/hkWeECgB460Th0iUKq24W03yhky22ClnGBTyXaX2d3pug/0/7rvAgCAAARqgAACvSobcYBK/VXZ+TKb7VdOuFmRTy4nAXF7EkCgB94rEOiBI61ThwiUqm/496kGR8lGyWwjOdstcnC2VjbN3dab/0v2lMymjd0ne6Pqax1QBej/AYHEDQQgAIEYCSDQY4TvP2sT6nYqzSGyj8jeK7Pz0u192wTX1qW3y16QPSF7MPvoP+c694BAD7wDINADR4pDCECg7ggg0OuuyakwBCAAAQhAAAIQCIMAAj0MqviEAATqiwACvb7am9pCAAIQgAAEIACBkAgg0EMCi1sIVCOBZhXa7MlqLHycZUagx0mfvCEAAQhAAAIbCdjeOjaV3YwAgWokgECvxlajzBAIgcBl8vmtrF87Ym28bHEI+eASAhCAAAQgAAEIBE1gpBzasWm2/tzCd2QXBp0J/iAQAQEEegSQyQICSSdgo+ZLCgo5U6/PSHrBKR8EIAABCEAAAhAQgetlEwtIbK/XjKTTPaqNAAK92lqM8kIgBAIHyOfDBX4f0evRIeSFSwhAAAIQgAAEIBA0gTY5/HSB0wP1+tdBZ4Q/CIRMAIEeMmDcQ6AaCCDQq6GVKCMEIAABCEAAAr0RQKDTN2qFAAK9VlqSekDABwEEug94JIUABCAAAQhAIHYCCPTYm4ACBEQAgR4QSNxAoJoJINCrufUoOwQgAAEIQAACCHT6QK0QQKDXSktSDwj4IIBA9wGPpBCAAAQgAAEIxE4AgR57E1CAgAgg0AMCiRsIVDMBBHo1tx5lhwAEIAABCEAAgU4fqBUCCPRaaUnqAQEfBBDoPuCRFAIQgAAEIACB2Akg0GNvAgoQEAEEekAgcQOBaiaAQK/m1qPsEIAABCAAAQgg0OkDtUIAgV4rLUk9IOCDAALdBzySQgACEIAABCAQOwEEeuxNQAECIoBADwgkbiBQzQQQ6NXcepQdAhCAAAQgAAEEOn2gVggg0GulJakHBHwQQKD7gEdSCEAAAhCAAARiJ4BAj70JKEBABBDoAYHEDQSqmQACvZpbj7JDAAIQgAAEIIBApw/UCgEEeq20JPWAgA8CCHQf8EgKAQhAAAIQgEDsBBDosTcBBQiIAAI9IJC4gUA1E0CgV3PrUXYIQAACEIAABBDo9IFaIYBAr5WWpB4Q8EEAge4DHkkhAAEIQAACEIidAAI99iagAAERQKAHBBI3EKhmAgj0am49yg4BCEAAAhCAAAKdPlArBBDotdKS1AMCPggg0H3AIykEIAABCEAAArETQKDH3gQUICACCPSAQOIGAtVMAIFeza1H2SEAAQhAAAIQQKDTB2qFAAK9VlqyWutx1lln7dzZ2flSrvyu606aOXPmjErqc/rppy9Sup2yaefPmjXrkEr81GEaBHodNno9Vbngt+Eh/TYcXEn95ecmpTspm3a9/AyoxA9pIBAUgVVbbbXFugEDxruZzIEZ191DfneUDXEymUbHdVfr+TK9/zc9/rZrw4Zf7bhyZXtQeePnXQIFvw1d+m1orITPxIkTT85kMjfmpR0lX49X4qsO07Spzp8uqPeBev3rOmRBlauYwEDXXZ5xnO3yq9CYyQxb4zivxlEtN45MyTNeAgj0ePlnc0egJ6IZKERYBBDoYZHFb1wElg0btl06lbpI+Z8p83qjKK24tzd0dU0e9uqrL8RV9lrMF4GeiFZFoCeiGSiEXwLvaWhYrhusmwj0VGfnMP1oI9D9wiW9NwIIdG+cQo6FQA8ZMO7jJYBAj5c/uQdLoH3EiLHyeItskwu4MnJ5R6PqX9m+vf0nZaQhagkCCPREdA8EeiKagUL4JbBv//49prhnmpqGPbZmDQLdL1zSeyOAQPfGKeRYCPSQAeM+XgII9Hj5k3twBJY0Nx+r6ey3yWP+FGrNhnR+K9F9XyqdfkrPV+p5l+Jtp8cd9Lola5sXlOSS5qVLvx1c6erXEwI9EW2PQE9EM1AIvwSOGTiwh0DvbGgYdhcC3S9a0nslgED3SirUeAj0UPHiPG4CCPS4W4D8gyCgae2fTLvubzX1sSnP3/9qqvuXRy5Z8pdSeSzefvttJN5NjJ8he3dJoese39ze/rMgylfPPhDoiWh9BHoimoFC+CXw1cGDewh0/egPuwKB7hct6b0SQKB7JRVqPAR6qHhxHjcBBHrcLUD+fgk8vfvu/bZateof8rNLnq/bRixdeorUdqdX/xqBP1sj69fkxV/T2dHxATaP80qweDwEuj9+AaVGoAcEEjfxEvjukCE916B3dQ37BgI93oapp9wR6IlobQR6IpqBQoRFAIEeFln8RkWgvbn5K9qZ/epcftrp+/HmZcv2L0ec59IuHT78h5r6fk5e2WdpqvvEqOpSi/kg0BPRqgj0RDQDhfBL4Natt+65Bn3DhmEnItD9oiW9VwIIdK+kQo2HQA8VL87jJoBAj7sFyN8vAQn05yXQ35v1k+nq6tpzh1df/WslfrNHs/1TaYdl02/QNPlmTZN/rRJ/pHEcBHoiegECPRHNQCH8Enho6NDluvm6ySagHanUsLHLl7NJnF+4pPdGAIHujVPIsRDoIQPGfbwEEOjx8id3fwS0fnyU1o8/luflQY14j/HjVTvBX6r0F+Z8aET+7O2XLbvWj896TotAT0TrI9AT0QwUwi+BZ4YP7zGCvl7noH8Ege4XLem9EkCgeyUVajwEeqh4cR43AQR63C1A/n4IaEr6JE1Jn5bn4zwJ9Kt8+vyQfD6dJ9DnSKAf7sdnPadFoCei9RHoiWgGCuGXwJIRI3oI9IZ0ethwBLpftKT3SgCB7pVUqPEQ6KHixXncBBDocbcA+fshoNHu+5T+0JwPjabvoQu1v/nxaWnld6Uetsn6eV2if2u/Pus1PQI9ES2PQE9EM1AIvwT029xDoOt3H4HuFyzpvRNAoHtnFWJMBHqIcHEdPwEEevxtQAkqJ1Cw/nythPRmlXt7N6UuAhfq1cEb33HdoTpyzUQ7oUwCCPQygYUTHYEeDle8RkwAgR4xcLLrSaBQoAfIaP6sWbMOCdBfLbtCoNdy61I328BpkTDsFDCK9fqNGRCwT9xBoAcBXayt15v9sh+8IoG+YxCYNHX+J5rmfmqer4/L9x+C8F1vPgoEepDVH6XfmceDdFjDvhDoNdy49VQ1BHo9tXZC64pAT0TDINAT0QwUIiwCCPSwyOI3bALZ889NoOfCnySiPxZEvroIvFJ+zs350vnoB4xYtsxEDqFMAgj0MoGFEx2BHg5XvEZMAIEeMXCy60kAgZ6IXoFAT0QzUIiwCCDQwyKL37AJvDp06ODOxsbVefk8IoE+Ooh8dRE4Q34uzvN1qHw/EITvevOBQE9EiyPQE9EMFMIvAQS6X4Kk902giEC/Rse9XF+JY9d15ytdczYtU9y9Q0Sge2dFzCokUCDQH9dvzMRKqqHfGBM0R2TTMsW9EoikKYtAxnHcpSNGdCpRKpvwzxLRHy3LSS+RlzQ3/7dGzb+c+1jT3ffdvr09/zi3ILKpCx+Fa9D1G7NnJRXXb4z9vtjvTC4wxd07yDZF/XRB9AP1+tfeXRATAvETQKDH3wZ1XwI2iUtEF0CgJ6IZKERYBNgkLiyy+I2CgC7WXlc+W2bzWiyBvkMQ+S4ZPvx2CcJjN/py3Q9qk7hngvBdbz7YJC4RLY5AT0QzUAi/BBDofgmS3jcBBLpvhEE4QKAHQREfiSWAQE9s01AwDwR0sfasou2ajbpuhHZxdx1Hg+v+gjaJe1Cj5gflCXR2ca8QKQK9QnDBJkOgB8sTbzERQKDHBJ5s3yWAQE9Eb0CgJ6IZKERYBBDoYZHFbxQEdLE2W/l8NpdXV1fXR3Z49dW/+slb6r5BU+ftSLXcyHxgu8P7KVe1pkWgJ6LlEOiJaAYK4ZcAAt0vQdL7JoBA940wCAcI9CAo4iOxBBDoiW0aCuaBgEa6v6GR7svzon5d09xtB/aKw7Jhwz6ZTqU2Ht+lNdO/2H7Zsv+q2GGdJ0SgJ6IDINAT0QwUwi8BBLpfgqT3TQCB7hthEA4Q6EFQxEdiCSDQE9s0FMwDAQn0T0ig/z4XVRu7PaTj0A72kLTXKNogrlV+puRFOFOiv6INWv2Uo1bSItAT0ZII9EQ0A4XwSwCB7pcg6X0TQKD7RhiEAwR6EBTxkVgCCPTENg0F80hAF2x/VtSPZKNnNPr90ZFLlvzFY/JNor0ycuTAhq6ul/TmsOwHq5s6OrYfunJl/nFulbiu2zQI9EQ0PQI9Ec1AIfwSQKD7JUh63wQQ6L4RBuEAgR4ERXwklgACPbFNQ8E8EtAF21mKel0uuqakP968bNn+2izOjmArK8jXVUrwtY2+XPdaHa92dllOiLwJAQR6IjoEAj0RzUAh/BJAoPslSHrfBOIQ6GeeeeYhnZ2dN6ZSqeWqwC0zZ860ixXfO+L6hhGfAwR6fOzJOQICCPQIIJNFqASedJymEcOHP6lj0f4jL6NbtaP7KRLpXV4zLxT6SvdqKp3eY/jy5a969UG8ngTiEOjK879Vkk/JHm1sbPzR8OHD/97a2pqu4/ZBoNdx49dS1RHotdSaVVqXqAX6GWecsVk6nV4kXEPzkNlUv3NnzZp1b50KdQR6lX5/KLY3Agh0b5yIlWwCi7fffs9UV9fvHddtyivpb7SW/Itak/73UqXXtPatG9LpGY7i5sfT2vYjNXp+T7JrnvzSRS3QTzvttNN1s8Y2DtxCtl5myxNuHjRo0Pevvvpqu9lSj4MOCPTkf1UooQcCCHQPkIgSLoGoBbpGz7+g0fNb9MemQYceYaHe+aqE+j/CrXXivCPQE9ckFChIAgj0IGniK04C7c3NR0pk/1xlGJBXDhtBf0jCfZ6bTj8lwb5Sa9Q7dTN6iwbX3S2TSo1WmqMUZ0heGhNw52pjuKvjrE+t5B21QFd+j4nd5PG8bAAAIABJREFU3rKGPIZv69KmXXb166+/PnP27NkbaoWvx3q0Kd6nC+IeqNe/9pieaBBIBAEEeiKaob4LEbVAnzhx4tG6aJndi0Dvbgyt7bta58y23nTTTW/USesg0Oukoeu1mgj0em352qy3dnX/tEa+f6Ha5TZ5K7eibyuB7dr+03ITEr84gagFuq5lHte1yidUmlR+ifSeuob7lt77u5bxtT777LMPt7W1lb1PQZW2MwK9ShuOYm9KAIFOj4idQNQC3Sqsae7TJNIv0dNio+g5Jq/pyUUaTZ9pmj12UOEWAIEeLl+8x0wAgR5zA5B94AReHTp0cGdj4wVyfJ5sM48ZpDW6flNjZ+cl2rF9qcc0RPNAIGqBrvz2V7GukO0lyx9F7y6tRHqntPqbejpf1zvTdtxxx+fqYH16m+rLCLqH/kqUZBNAoCe7feqidHEIdAOrP7eRurt8hf64Pmf/ZSVgP63PzpZQtx/+Wg0I9FptWerVTQCBTkeoVQKvbb31kA39+h2paewHavqXbSC3ox6HSKHZyKqNlC+RPa3Xv+1Kpe7cYfFie00ImEDUAl0DDU26htlK1zDHaMaf3agZ2cvMwHX6bKXsxs033/wHV1111et6XquDDnadhkAPuG/jLnoCCPTomZNjwgjoBsG+WpNuO6Hu2UfR7tIuqef9+Mc/XpSwKgRRHAR6EBTxAQEIQAACEIiQgG18269fv2Hr168/RyPmE5X14CLZmyC3mzUvKc73d9hhh59rNL0W16cj0CPse2QVHoGaE+ijW+/asrGhaUSDm9k81dTQPvjJNUtnz/6c5+NHwkON5yQTsCVb2jzuND1+W7ZdibKu0+dXbdiw4du33nqr/dnVSkCg10pLUg8IQAACEKg3Au7xxx+/+eDBg9+v0XRbvjdO1lgEgh3BZuvT/9jQ0HDJqlWrfq+N5GrpGhmBXm89v0brW/UC/ZBpc0alM+44TVAerzZ6n2xQkbZapv26f6spX3M713bMe+iyz9jaYgIEehD45je/ufkbb7wxRVPGztGH/UogatdnF44cOfK2GlnThUDn+wABLXXRNNWdNW00df31178AEAhAAALVROCYY45pGDJkyBYS35/SdcwMlf2Dsk02kcvWp0OPb2hK/N2Ke+l11133sp7XwrR3BHo1dVjK2iuBqhXoLVPnmoA6X8J8Rz2+oB+WuZl05in9DrVrhHNpY4O7Op1JN+t6a4SW2jRnHLdFj4caCddx70inncsWto77M30DAsUIaDR9V/25XaW+dFh3l+k9/EHxzrrhhhuerHKSCPQqb0CK74/Al770pcGaGWO7YtvGSzbK9JBuwH2+RqeB+oNFaghAINEEJNT7bbXVVttoNP0EXR/bJoI2M7DYtcxaXecs1z3JHyv+jy6//HI7S72aAwK9mluPsm8kUHUCfczUeZ93U5mLtL3Fh2VXZRrcny28ZJwncXRo631D0qkujbSnvpZxdDRFxrmusyHz7YcvmcCGKXwpihLQ+vQD9Qd3nf7A3l8CkZ1qcpv+BL+hjeSWVylKBHqVNhzF9k9AIjzV3t5+gm62zZK33LTQdfpOnzRz5sw7/OeABwhAAALREzjhhBMGbbbZZs36bfu6cj9R1yoDi5TCRs7XyJ7V59/V+vS79JtYrceyIdCj72bkGAKBqhLoLdPmXK0bgF+R3ZJyU5c+MOnQf1bKZMy0eae7joS+k2nUaPqJD7ZOsC81AQI9COiPqlEX72frD26KPtyyBCL7g7tMG85dqfPTbdfUagoI9GpqLcoaKAGbFrrllltO1sXp5Jzj7BFFU3TT7dJAM8MZBHwSeGn06AH9nn32ePXR0eqzL6a1IsPrzuxP7rVX0/bLlh2vdAdrV/eX0wMHXjfy+ecX+ywSyRNMILvHzhAVcQ9dx0zXo80S6nEsm96ztei2Pv1RbYg7Zfjw4X+pwiV8di3PLu4J7o8UzRuBqhDo4y6bu1VHR+YWCfNxus134sLJ42/zVr3SsVrOnz8oM6TjFs35+YxinrZg8vgbgvCLj9okoJ1St9Uf3QzZ6b38ueUq/qKe2Gj6XXqsljVdCPTa7LbUygOB7LrNVgke21wpF+xidbq+x1M9uCAKBCIh8NLOOw9oWr/+S1pUPEMCu1F769hI599GDBq0v/v88+tLFUJ/Ro3tzc1f1Dno382m7dLjcyM22+wTfaWNpHJkEiqB7GDDlhLptnTvYpnt21Rsfbrt7m5Hsf1cU98v134cy6roWqZNZUWgh9qTcB4FgaoQ6C3T5j0qnTMs5WROfGDyhN8FDaZl6rzLHTfzDfmNQqTbCKwdg7GLbOtsXR7Qo4m5N4KuG/6CJzBx4sTd5fXHEur79eH9EX3+RV3g/yP4UgTuEYEeOFIcVguB3gS6Lk6n6+IUgV4tDVkH5Vyx7babdzQ12bKLQ/Kq+3pXQ8NojaL/tRSC5973vv6D3n77V4pjAi0X3mlIpfYZtmTJX+oAH1UUgZNPPnmAwjaa7WfXoraf01ayYuvT39F1zhL9Dl6j3eFn6fz0tVUAsE1lRKBXQUNRxNIEEi/Qx0yfoxFu9zCnK7PfgtYJz4TVoDmRnk5nDghxurtNlfyqbLNe6vEFvf/TsOqI32AJaCO5z+pO9Pf0B7Zzb571WdeaNWuu1+ZTk+66664knx6AQA+2e+Ctiggg0Kuoseq8qK9tvfWQ9f373ycM++aheEsbJ4zfbunS35bCk5FAX/r22wsVx6Y4dweNqq/v19AwdujixXZDmVBHBGxjTF3D7Kx9dr6pa5VjVfViJ9ek9dmajo6Op95+++1LX3vttQVtbW1JXp/epnog0OuoH9dqVRMt0Fumz5ui6VutGbdh3MJJh9ofUqhhzLS5d2pd+ic6U86oEDaOszvex3iogB0XN89DPKIkgICmjA1YsmTJ+foD+5aK0+OIv3Xr1jmrV6923nrrrdcl1FsHDRr0o4T+uSHQE9CfKEI8BBDo8XAn1/IJmEBf17///Rru3Ccvta0bntC8dOlvSnksIdAPkUA3YUOoMwK2QeaiRYuGaJR8b1mrqr+3bJP16RLxjq5fOnUt86Yefy2hPvmPf/yj7QFlp10kLVg/RqAnrVUoT9kEEivQD2qd9/6GVOafTsa9c8GUcZ8tp2YtrXN2c1PuPboz/H6ttbp2/pQJZ3tJb2vSnSEdT+mW8gMLpoz/kpc0HuP8t+J92WNcE3rf9RiXaAkhoPXpIyTSbTT9OBWpe6qY7kp3i/OcSaTbn9wzsi+uXLkyaRdDCPSE9CWKET0BBHr0zMmxMgII9Mq4kao0AV3DNGmUfEttDne0DTjIdtSeHN3XMjbQoOsWG2gwW6/nK3Vdc7Ps+zb4oChJ2msHgU5nrwkCiRXoOuf8Jsmcj2vjtg+XQ7pl6pwJ2vTENpGzHSu1tNy7QLf4Y7W7u45gm5lJux8N6Jz0/5TbctbNf1Lxf19OnYmbHAL6k/uk7jb/WCXa85133un+Q8sX6dnRdEefzVGcc2UvJKT0CPSENATFiJ4AAj165uRYGQEEemXcSOWNwLnnnjtw7dq1w3Qd8yXZWVqnvrlGzDcZaNB1TEbXNu/o8WWJ+u/Lsy3NLLlBobfcA4mFQA8EI07iJpBIgX7ItDmj0o77mNaeHz9/8rifeYOUcVumzdWulO400+WyFbKh5Qp0y0s3B57QjcMXlbetyfEbviMHFxRxYmvFtPmdM1hmm73YjsEXyu72myHp4yVgR5qccsopJ+kP7FL9gY3IifJ8oW6j6wq2U6qODnSsz9oRbXEGBHqc9Mk7VgII9Fjxk3kZBBDoZcAiaqUE3FNPPXVwU1PTBzRafuGbb755uB4bc9cyudF0DTTY+nRbXmEbDNoJGDYY1X1xE2NoU95McY+xAcg6GAKJFOhjp8+9QvNlxi6YNH4PL9Uc3XrH4H6pgTdJlx+t+GmtI/+yBP4YOz6tEoE+dtqc4zKO+9Ouxg3bPnTRZ/xu7GU7eO9WUA/bRdXKSqhhAieccMKgl19+eZKE+tf0x9Y/N5pu08UKgh1hYkeeqA/HtqYLgV7DfZGqlSaAQKeHVAsBBHq1tFT1l9N+F1WLLSTQ99X1ywzZhyXOUzmhnh1osIrapnF2CtG9MtsM+aUYr2XalDcCvfq7X93XIJECXceqPaO7cncvnDLe1mP3GVqmz/ms1qrPVsQ1Gdc5fuGk8fe2TJujTeXcQysR6Ie23jekK5V+U6tqTtZa9Jv7LEDpCCbwc8ep5WLuqSccaeITbLUk32OPPXZ5/fXXr9Sf2+H6Y1OX7HW5lvWJs2SPx1A3BHoM0MkyGQQQ6MloB0rRNwEEet+MiBEsAf0+9luxYsXWixcvPk7XMefrOma4BhqKXcvYMWw2e/V6me299GawJfHkrU2xEOieUBEpyQQSJ9DHfHvenm5X5k8a/f7U/MnjSx4Zkg9Wgvwypbl9/uQJ3cJX093tKJGDKxHo/04/5z5Nc18zf9L4z/lswOeV/r0FPv5Lr3/h0y/Jq4yAzh39tP7UrlOxP9hH0X+uz8+XtUdYRQR6hLDJKlkEEOjJag9K0zsBBDq9Iy4Czc3Nm2nNebOOWvua1qefonIUOzLYRiBsyZ5d+14uu1PWEWGZ25QXAj1C4GQVDoHECXRNLz8r47qXanp74ahzWQTGTpv7oH4lDqpUoGua/QUa6TxzweQJu5SVcc/Its48/7xSi7FaNlZWzuZxPotB8oQQsCljX5RNlZXq4+/oc9vN/3syuysddkCgh00Y/4klgEBPbNNQsAICCHS6RMwEbI8n24R5d5ntnzNatsmxbNny2Vp0W59uMwKnyP4oi2J9epvyQaDH3EnI3j+B5An0qXOnaRH50Qsnj7cvf8XBt0BXOTIp5yiv6+BLFNSOV7OpPsXCGXpzZsWVJGE1EzBxbn9uZ8oaS1TkZX32TZkt4QjzKJNt5d+mpuWHa/XC0xGF1dwQlB0CCHT6QLUQQKBXS0vVfDntumULmQ022QZxH5ClitTaNsO19el3yGzTZJsZGOa1zA/k/6t55bCz2u36xo6DI0CgaghIoC9SYXeUdR93qPCOBp13HrFsWeG1eiR1cnXM2cyMm9lZwniMnxz9CvQxU+deISL7aw26HXvmN/xLDnboxYmJLxslJdQnAdtA0Ka9j+6j+v+rz219+t9CxGRi/EpZk0x7ODiflUUxeh9ilXANgb4JIND7ZkSMZBBAoCejHSjFRgID9MwGHE6VmTDeRpYTFPmYbFbgUpkNWNkadXsdVrhdju0UJhMy35D53UsqrHLiFwK9EpBA/6U+nCDrZ5E0q/v2dzZsOHPXVatsZkrkwY5Km6dCvLZwyoQT/eTuV6C3TJ/7I93j+7zOYd/KTzmyab+gx1tL+LFp9LbrJaF+CRypql8hK9yvIJ+I3Qn+icx2fA/zDprdbV5Zv01BzeuNAAK93lq8euuLQK/etqvxktuRwTbaZ4L487L+ReprI+e2xPPvsstkNhBgO8CHEWyEPyzfYZQXnxDYhED7Tjt90Nmw4Qu68N+zwXWfchobbx3+r389o7tfUSwV6dEabsv0ebc7mXR/rf0+yk9b+RXoY1q1WV0q8ydNt//Qg5PG21FpfoPVx+6GFJsCZGdhf81vBqSvegL2h3au7CLZ5iVqYzuj2vT4a2RRbr5S9YCpAASKEUCg0y+qhQACvVpaqi7Lade3tj79YzLbZ2eUrNj6dBPONgr4G5lNj7drbBuAIEAAAlkCWhPSsF9zc//+69Y1rh8woPPR9vb1x2ggXQI9lu+KCfQrNY6/j0au/9NPK/kV6C1T7zvUcdP3bUh3bNXWepStnwkivE9OHpMNLXBmP1S2locAASOwncx2Pz1BVuyGTo7Sc3ryJdmDYIMABCongECvnB0poyWAQI+WN7lVRMCWydk1rc0MvFC2cy/XMrY+3Wbr2QxTm0FoxxKHuT69osqQCAIQ0LoVnWn+DX09z9EIuk2VqTj4F+hzT9Mqmqt1o8Cm7QQZbH1OsenDdtfRpv4QIJAjsJee/Fj28T6Q3K/PbQbGsz7R2ZSwg2Ut2Txt6YWtLbP1L2/LbOTebgrY9LQ22UOyoG5e+Sw6ySFQOQEEeuXs8lOefvrpi/R6p+x7D82aNct+T8oO8nOTEp2UTbhefmydK0EEEOh0gyoiMFBltQEpO7nGzK5zi61Pt+uLV2RXyW6RrfNZR9MPNmt1P5kda7u9zK7lbeTerrOXyWzU/g+yBTI7npkbAz6hk9w/gfbm5o+pIx6hL8leGqy2vmvX4NZ318vsetuuwf+cSqfnDFu+/JEop7vbJnGfyziZX3Q1dA1/6OIjlldaXb8Cfez0eT/QWvjREuh7VlqGEunsR6Jw2o9d1NhmcgQI5BOwP7PjZbb7qf3J9BZsqrttvtIqK3cDCeuLtsGLpW0uA7/d/bbd5c+TvVpGOqJCIFEEEOjBNAcCPRiOpbwg0MNnTA6BErBrGBMYNoP0W7LPyIqdXGPTdk08PyWbJPutrNy1trsqzbdltsFtsRsBvVXMBjds2eBPA605ziDgkcCS5ubDtUO7LQspR3O+7LjujBHt7TdEMe3dbTn/lkHOkK3tS3q6xPENHuvWI5pfga7N6p7X/bTbtYu7rY/xGmy9jQlt21jOpibbnTm725EfLtALE1uFYUu9YSOUBAgUI7CZ3rSpYrZBXKk/HpudYfFsMzkvd4TtDt2dMnusJNhdb9vYjrXwldAjTSIIINCDaQYEejAcS3lBoIfPmBxCIWADATaCbtfJJoY/Kiu2hM8GsGyk0GYG2vnpizxcy9g1kfm0GwCljq0tVTE7Jed/Qqk5TiHQC4FXhw4d3NnYaP3uuIohue6vmzZsOH7oypV2SkJooVt4tEybM0capEMC3e60VRT8CPQxM+Z93E1nnkinUqMevOSwxz0UwLbBt+MlDioS16bu3CV7WvYfsv+SFQqsB/TeoR7yIQoE7AbQd2WfK9KP8unYcWnny0qJ9E/p87tlhScV2EyOeTI72s1msdiNI/tjtRF8m25v556+P5vZV/Rom9URIFC1BBDowTQdAj0YjqW8INDDZ0wOoRKwJXO2Pt0EiQnqYbJigw42zX2RzHTAP2W9bYxl/m6S2c7x+cEGDWwTOtsp/gWZXcvYTQK73vmwbB+ZHedsy2dM2LxHZtOICRCIhMCKbbfdvKOpyfSf9cX8YDNS79KI+uMZ131BWnS1prTbNbgtF/m4Rs3Hafr7HpukUDy9PrC5vT20mdjdX9IxU+8903VT16XTmZ0fbJ1QUWZ+BHrL1Lkmbo7W6HluLV2pxmrVh3aXz084Q4ln+nFA2rojMFo1tintu5eoealZGXb+uq2/spH5XFiiJzZCb2vA+hp9/4ji2CZ2NhWNs9LrrvvVVoUR6MG0JwI9GI6lvCDQw2dMDpEQsGsPW1J3jsxGr7vPei4IJsq/J7Nr7N7Es820PaUg3c/02k7DebmPmgzS5zbYYdcwdnY6AQKREVg6fPg9EuCH52W4XqL8kjWDB1+z6/PPl7xZpCnxExTXTgCzG0vdQcuy/7phwIBPvmfRIr97OBRlsPEumkTyC67rLpg/eZxtLFF2qFSgHzL9/g+kM13PSJ58RQK9r5FB20H72rILt2kCmwZvI5IECFRC4EwlulRmG0nkB5siZhsSFrvrbMe52cyQ/LUuf9Rrm8XBWvJKWoE0VU0AgR5M8yHQg+FYygsCPXzG5BAZAbvmtyNlPySzwYFDZIVT1G1drp2ZXkywHKv384W1Xe+YZrg+shqQEQQqIKDN4E6Xos4fmH1LgnvMiGXLfu/VnQT+UAn8tuz3J5fsyualS7/u1Uc58fIFuu2iPqvBSX3s/smH/akcJxa3UoHeMm3ezY6b+diCSeM3nT7QswB21+LFcstVEP9vev1p2Sqffkhe3wRspHyyzHZyz32H7PkPZcVGwr+p922afC68pCe2How9EOq7H9Vt7RHowTQ9Aj0YjqW8INDDZ0wOkRMwUW5TeG2ZqK0ltyV0tj7d9rixaei2l1PhYIONwNsMWxuIyAWW3EXedGRYLoFXRo4c2NjZ+bzE9cZNmSXOx0uc29LSsoJG0ndQWjuRwGaDWNig6fC7DV++3K7rAw2brENpmT73/yQv3tZa9APLzaUSgT5m2twvqAC3ZjLucQunjPt5H3na+l6belMYbOTShLutsbHNs3oLtlukbUC3qNy6ER8CvRDYVu8fLWuXzZUVE+d2Pql9cXM7wlscW4v+KFQhUK8EEOjBtDwCPRiOpbwg0MNnTA6xEbDZfTbgYBvJ2fI9m2H6Z1mxTWi/rPdtmV8uMBs1tmYj43IItI8YYctDbSlpLvxKo9527V5RkEi/QCL93c3HXff7WotuGjXQsIlAHzttzkcyjvuo67i3a6r7xEBzKnB2yLQ5o9KOq02xMtfoDHbb8K2vYIJm34JINk3Yzq7OBbsLOF5mZzHaNB4bKV8su1VmPzoECERNwDZmyT9KxO7YWR8lQKBuCSDQg2l6BHowHEt5QaCHz5gcYidg69HNbC2t7epeLNjRaHasWi58Qk+ejL3kFAACfRCQQJ+vKC25aBpJ32/79nbblLmiYP8J6/v3t00QbcNDC6+OWLp0RNBHr/XYyXHM1DlHaS36rzJuZsHCSRNCWavd0jpnNyfl2s7xzyyYPM52ZPcScjtb58e16eq2ayQBAkklYHft7O5dLtiaL/uxIECgbgkg0INpegR6MBxLeUGgh8+YHBJPYBeV0HatzgXbU8dG3QkQSDSBp3ffvd9Wq1bZTOuB2YK+LjG9rV8xrTXtd2hN+zEbK++6e2kU3QaNAwtFz3ceM23OeRpF/75sVtAj6WOm33+Y63Td4mTcZ5qaMhPmXTj+dY+1WaR4hbu821Th33pMTzQIxEEgv9/a3WlbirEhjoKQJwSSQgCBHkxLINCD4VjKCwI9fMbkkHgCJ6uEN+aV0nZ5t7XrBAgkmoA2dttbI+b/l1fIOzW9/bN+C61p7mdrmvu7G5u77lcl0G0fqsBCUYFu3v89km5z9t0n0k7q6w9WsHFcYSlbps77pTaEO1qj87dqdP7EMmthG9fl74JtyW33PZvOXmy9TJnuiQ6BwAnYGYr5u7TblBrrrwQI1DUBBHowzY9AD4ZjKS8I9PAZk0PiCdjpSXaKUi7YRnIPJr7UFLDuCWh6+xcEwZY5dweJ9W9penv+ps0VMZJA31cCfeNeUvJ7rfyeXZGzXhL1KtAtfveadNe9Xltf7a3R9B93pdOXVXJOesvUOcfroPcL5XJ3PbYumDTOjnEoN9ixD98qksjWAdgZ0a/Jels7U25exIdAEAQ+LCdP5TmyO9CnBuEYHxCoZgIm0AcM2K5VN4Bt485syHRpedX0W27570r+H6oZR8VlLxDoFfspSLh+1qxZubV1QfmsWj+Pa71hU2Pj/arAPht7quO8lWpomPCxpUtLLrF77n3v6//WW28tVLr9NwJw3fUp1z3ko8uWtVUtFApebwR+qQrnb6pls1ltR3cCBBJNQALdtKcdjdwdpGlPk5C+wW+hs7u5b/wO6Ez0udsvW+Z1yban7EsK9JwHnZF+mp5fpAOl7Kizu2Vzuxq65j108REmjosG7eq+fzrjjHNTzjgJ/A/Lbu7KuJc+1DrONpqoJAxXItstu1iZbeqw7aBn0O3sxmJnUVeSJ2kg4IeALcF4JM/B97P91I9P0kKg6gkcc8wdDZp11qqKbCLQUyln+u23X4lA99jCCHSPoHxEu00CXbtn3a/jNzYKdLl7y5FAP3bFipIC/T7H6b9m660XKm0PgX7MypVtPopFUghESeBhZXZAXoa2CfOaKAtAXhCohIAEuolzE+ndQQL9CAn0eyvxlZ8mu1Fc/lHJj2jq/Gi/fvPTexLouQRjpt57pus2jFMVbRdqpc3ozERXojmzNJNxVrspd4QemzU1foQE+Vb67J+uk56niL98YPKE3wVQ8BnycXEvfuz4qoeyn/9VjybUix17FUAxcAEBTwTse6LNEDeGVj1DfHhCR6RaJmACvaPjL636vygYQXem3333pXxHPDY+At0jKB/RWiXQdYbuJiPocvdWYyo14VtvvFFSoGtBYv/VQ4ZsKtB1bdKQSh1y4RtvtPkoFkkhECUB2609d2KSXVfbmekECCSegDZzu0KbuX09V1BNSz9A55/7/u3Vl6Bx6YgR7y6v1oiD1qD/Z5BAyhLouYxbzr9lkDtkm3EZN61pLu4IWbMAbK5p8O16XKp15u3phtTjCy8eF8bRZperHN8oAcFG02+W2V2TpTLWpwfZY/BVDgFbp2VnheaCLdO4qBwHxIVALRIwgb569TObCHRNb+/Sdd/0Bx64GIHusdELBPrjmmZX0fGoYm83v4/IZssU9zz+x9sU93XrNhXorvuWpoBM+MmaNSUF+jk2gj5o0EK1y7sj6BLoEveHzFqzxvdFosduQjQI+CVg++fkzyCx89PZ7NYvVdKHTmDJ8OFT9P/WmstII+hHagT9Hr8ZS/hvK727Is/PQo2gbzzKza9/S1+RQA8iYx8+7IfB/izzp9sUurM7fAbONgL4cfaHhPXpPqCTtCICdjctf+bI/+j1WRV5IhEEaoiACfQVK/6lP83MxhF0zbzqymRS09vavo5A99jWbBLnEZSPaJ90nCH9+vXrMcU9pRH036xbV1KgH2oj6P37L9SFXA+B3rZuXZuPYpEUAlESeECZ5R+7rIE5Z1mUBSAvCFRCQFPcv6p0P8illUA/XQL9J5X4yk8jgb6bftf/sdFvJvMLrUH/L79+89NXo0C38tv0GhPftu68VNCIjPM3mR0JYSOZrE8Psvfgqy8CzYqwJC+S7Xpqo+oECNQ1ARPoS5YsKxhBd/R77U5/7LFzEOgeewcC3SMoH9G2lkBvami4Xxdjm6xBN4G+tLOzpEB/n42gNzRsMoKui671jkbQl3V2tvkoFkkhECWJcbjqAAAgAElEQVSB65VZ/uwcO43GRtUJEEg0AQnp4/Tb/dONhdSG5ZqK/h2/hZbf/eR34zHfke/i7rcCEaS3w+ftXOm+gk3FMYFuGwU8J7PXrE/vixqf+yVgN8Dekg3OOnpdj9vQ9/xiJX21EzCBvmjRG63p9KYj6DbF/cknJyLQPTYwAt0jKH/RhuiHvMcadF1A2I69JQW6Pu+vtJvu4i6BrrSH6LM2f8UiNQQiI2CDYd/Ly+1cPd84KhlZKcgIAmUS0Dnou0s820BtLtylqeifKdNNj+jy+3X5vSL3QVC7w+dnlOQRdNu1XRvNOY2y/KOqcuXfVk/y5//n3rc15029wF+t922ase2mbceysT7dby8lfV8E7OLs4LxImjHp/L6vRHwOgVomUEygq746Zg2BXk67I9DLoVVx3CFK2UOg6z1PAl3xegh0vYdAr7g5SBgDgX2V58Yzn7Pfh8NiKAdZQqAsAroZmtJmbjaYaycPWHhjxNKl20r82gzrioOmztt/gv2O/zu47gc1Mv9MxQ6LJEyaQLfRxa/JviTTzLKNYbGemaixQ+Bt4zcr9//JPlFQJzuT7jaZrfO1P1UT94XBjmAzf7aJnE17WCvz1VBBNgi+ao7ABapR/nQa2xPhizVXSyoEgTIIINDLgFUiKgI9GI59eEGgR4KZTBJMQCcNdg+I2XfBgu3ptLMsfwlfgotP0eqZgMT0PNX/3RtKrru/xHT+Daey8CwbNmxQOpV6VYk2s4TaGb59+LJlI+1os7Ic9RE5SQL9GJXVdl8f2EeZbcqwQSkmvq/S+zYVR0u/nOkyu8Ntm8oVOxLCfmD+JLNp77aWhmPZguxZ9eHLZmqY2U0fOz2gWNhRby6y73D2Q+tnH5C9HDAi6+NWDgIEEk8AgR5MEyHQg+HYhxcEeiSYySThBGapfKfllTGsTW8HKY+3E86C4lURAQn0o1TcX+UV2dc0d/k7T75sJnZ30CkdrdogLvCleUkR6KNVx18H0N4fl48/ZP2YcDK/Nnq5u8zuABarrwmmO2XTZC/JODoigIaocRd2c2hLmU1vsbty7bJvy2yNebFwl948Mu+DNj23zeKCOlnAbkzZzBPrv/ajcW2N86d6VU4AgR5MAyLQg+HYhxcEeiSYySQGAnZNbMtJj5d9RGaDZLaZbbGwp978oyx3HW2jhbazuy3hCCLYJoy/kI2U/VLWKns6CMf4qG8C6qgNmuZug2Lb50ik0ukJw5cvn1sumSXNzTtoxNzWtP97Nkkm09HU2bnT0JUrbXZ3oCEJAt1GuF/IB1dhDc9QuplF0tpo+6kyOzvdjoYotj7dfmhsjcI1WbPnQYmnCqtDsgQSsFFqW8cySmZ3y/bOlvEdPdoup3ZXrdgUlw/p/T8X9L3b9fokmd8bQibGbUlIfrDlIK0yWyNDgEDiCCDQg2kSBHowHPvwgkCPBDOZREzAroXPkX1TZgMOdn1jR6d9Sraol7LYstDj8j6zfZ1skKLi6cJZX4Un3uSyuDx7LWNLUQkQqJiAhPWxEtZ23Z0Lb+n1wSOWLXvCq9Pus88d52GJ8j1yacIaPTf/SRDoJ6scN/YCyIRP9xz/PsJkfW5T2nsLVs/tZDad3fKzXbUbikS2KcIvymw03aZD2I8C04b7ol/7n1v/saUXtnTiYtnnilTZ7p7ZHehiGxdadLtBZH82+cHuRtsf5GMeEdp0edvcMH/6l52zbuetFwv2Y9Qq+6dH/0SDQCQEEOjBYEagB8OxDy8I9Egwk0lEBGwG4OEyG2TYVZY/u9QGDK6U2bVysWB7Q9lgww55H9pmy7ank+1ovcZDHWxQzkYy7Vo7F2xGoZ20VCzYTYNWmU2pJ0BgI4FXhg/fu8F1z9YGbQfrIv2Bd9auPfe9r7/+Zm+IJLDvkLi25dS5YBrvwvalS3+k6dclNw1X2haltUFguw7PhSe04dw+yjuUAd0kCPS7VdMjCoCa6DhZ9qzMRr3ti2kbwtlUnPxgG8LZj4mtJfcSTJTbnQ+b9m53CUutT7cy2AZf5pv16V7o1mYc+/OyzQu/IvuyLLcTZH5tbdTcNii0PmWPxYJ9166TnVnkQxPqNtXmL7LlMlvPbjcE7G7dLrK9ZPvL7E/R+m/+kREm8H/YB3r782yVcWpBH6D4OBoCCPRgOCPQg+HYhxcEeiSYySRkAjZC/mHZZbIDZXZtU7g/kwkNu64+pURZ/kOfPZS9PsmPZsJojsz2dLLjjO11btahiRrbe8d2g7drebve+WxBHpbGBkF6CzaQ0SoLakp9yLhxHxaBFTvtNGJDR8fFqUzmBF1824CrXV9nUq575tp+/W57z6JFRfeEenXo0MGdjY225DT/ZCUrpm12OFsj6r/TcWkvylbLBjZ0dY3Q48f0mR3LZo/54W+dHR1jd1y50pa4hhKSINBt3a5Nr8kPthHFDUVq/FG9ZxtIrMoC7fVOSR+07IdpvGyKzH40elufbndXbEqPCRxrQL/TkUNpRJyGQsBu5li/tDvNNkNj515ysT80GzW3u8d2s6hUsO/bJdl+V2wGh5eKFAp0S3OTzKbLlwp2ckGr7CdeMiEOBMIkgEAPhi4CPRiOfXhBoEeCmUxCImDXHTbIYNcxdm1tA1PFrj9soMH2sbEp7HZKUqmwmz68Q7Zxqm+ZZbd9nwoFugkgm7m6Ux++7AaCXcvY0lhCHRF4ZeTIgY3p9Jc1rfxCdeotbG15fvX1XttmDQ1Hb7F4sWnEouHp3Xfvt9WqVTYSfmLF6Fz31x2NjUfv9K9/9bbvVMWuC+oTiB8/Tkz42vqT/PAevVjkx6nHtDYaakdenSuzH7De1qev1Ge2+ZatM7Y1N6FMZ/BYZqKFS8Du+NpNINtw0G7gfLqX7OxoPusLj8jsj++vZRTLfM+Q2QYr5QQbAbcND+1Oc2GwO+KtMhtpLxV+k40XxKaM5ZSduBDYSACBHkxnQKAHw7EPLwj0SDCTSQgEBsjn6TJbZ24zUItd41q2djrSD2RXy2wPJi9LO833V2V2cpLN9isn2GZ0JxdJYILLrrsmeXBmS1FbZYEebeUhX6LEQEBTzI/UFHO7bs4ty+hZCted35VKHbdDCYGeSyR/++n5FfL5yTKq86JG2S/UunW7ORV6SMII+lOqpU27yQ+9fXnDAGKCzHaNtJHNz8tsanGxu4smyOwQevtBsDP1bNq7lx+xMMqMz+AJ2HfB/nDs7q39mZ0gK3aUn/0Z2N4If5fZzIp7ZJX+Qdh0Ljv+wTads43khslsuo4Fm6Jj681tyrx9R2za2H0y+/MsFezPuFW2cbfKXiLflI0X9HFvfRSPjyHgOAj0YHoBAj0Yjn14QaBHgplMAiRg17CjZTaz74Oy3maJ2mDTbJmJYrsWqGSWqF032RpyO9XG9uF5r8y+M/a++bN16TYN2Ea8bUMu2yW+r425TIRZmWx3+VJhkT5slZlmINQggVeGDdujoaHhMgnpA1Q902fFdavrPtrouucMXbLkKUUwveYp6Mi0j2sN++Hyb3s5Wb8bms2nQ++v0vvWb5/U8/tHtLc/VI5vTwUoESkJAt02iDu5SBltgysTzFEF+0GzKTa2kZc1lE0DKsbHRjFt/Y1tFmZHQNgPUKUCLaq6kU9pAnZX2WZQmLi12RS2EUphsDa2trbN4Gy3f1tPntSdRa3v2p9bbxu95OpmN5haZaU2WKTvQCBwAgj0wJHiMDwCCPTw2OI5WAI24GQiw/7TbRlnb/ss2X+/7X1j+yzZ2u6k7rPUkr1GsUGMUuHhbLzfBosTb3EReGu33bZZ8+abF0kYnyaRbLOdC/dLyBXtJTeVmtqwYcOdQ1eseFuirWb0WBIEuk337e1umk0pL7apVph9xn7QbJc/G1G3qfZ257FYsJ20Zw0cuM331q7d+VUdv84GXGG2Sji+7aaMXXzZ3V+bLmX7ERQLdpfZ1prYnWY77zy0TSECrqbdOTehfmwffm3KvO3oavstECAQOgEEeuiIySA4Agj04FjiKTwCtmeOzf47S2aCprcZgHb9Ytc79n9vM/U8jzaGV/Q+PVudWmU2y7BUmJWNZ0tnCVVIIDN6dOOy556bmE6nvyWBasufi/Vjq9kaKfarM4MGXT38+edXRTmyHRXWJAh0q+vPZL2Nlt+iz/raACtoXsbFfuy+JrMzpu15j06SSjVmmpq2WNrUtOV3hg/f9ubnn99Ron12NfzYBc2r2vzZnTg7vs+WVpiAtalZxYLdZbbpWbZhis2Y6GtaVlI5jMvW03ZPLRXm68NW2eNJrQjlqg0CCPTaaMc6qQUCvU4aukqraTMAvyCzQSVbrllqUMlm/tm0d9tEq9oGlWxvILtesyNrSwWbDWDXMXZaE6GKCOis8jFa423rzG2pRG/LMtKu687WdPbJ2y5Z8pLEWrX1Y88tkhSBbg1hi+4Lj1vLVcSOr4pj6ooJORtFty+7bbNva2qy0yxcp6lpsGxLp7Fxi65+/bZ4Ss+/1b//0EcWLdpZU6FbWZ/uuRtGFtH6u82QsD+x82SnZNu0sAA2Rcamrz+f/ZH/hR5roT3tSDb7g7Pp/KWC/Ylbn9fMEAIEgieAQA+eKR5DI4BADw0tjn0QsBmAthzzuzI7irW3ZZk2A9D2TbJBBrumqfZlmbZzvF3HHN0Hu39kr2Mi2dDLRzvWfdLl22333q6GBltebBsn2+BZUW2qI8/+rHPPz+9w3cdGLl68rpamsxfrBEkR6Lmy2QilTXkvDMWOZIiyU9voue34Z5uC2VFv/Rsa+rsaPe8W6LlHifQNen3vwIFDp6xfP+KF55//SrX/EEbJOOy8rA1tbbndabZpYMWmSpkwt7txJkz/R2Y7mtpO7bUUtlBlWmU2O6RUsCUcFs/uthMgECgBBHqgOHEWLgEEerh88V4eAbtu30Fm09T/n73vgJOrKtufO2V30xNCSLIJIUBQIRBIAwIoARQBpUnxQ/n4AiGhGSw0FdRBQEBBFGkpQAQR/0RBRUGKsCoQSCERDUpoATbJpvdsnZn/80xmlruzszvtztz2nN/vTaac8p7nvTv3PPe8532ZqoyBs7Kdz+WmAuMk8Zw5s7ZwPeqFjYY0WtzQI1Hnmry7wocTXMssKgxm1S43AptGjuzf2Nx8JRbel+Cipqdy1nPm2DFfhRznNwabm3919/r1O2BML13HXcLsNIJORUnGuVttLnQb7+ocQrmvIXP//CFEdG/j25FI32FVVf2rOhL05G46CfsWyD09evT/eVtbfOPixRd51gWjkuAXORb/4HkeK/2AZUwX/fAaY4T09I8584F6ufCmxpsW87x3VxhBnvWYn1RFCFiCgAi6JTCqk8ogIIJeGZw1Sm4EuJZhajNK1qOX+JwbDesgN0PuhzDrjJePXjKwL4k6Nx+6Kwzuy7VMlzmyc8OvGlYgkDjrrFDDK6+cG08krsMCfS/kNe8q/R89We+LVFX9ZPcPPljrxXPm3eHpRIJOffl0JFM37n6WNSl8nhee0bv3kN1jseBVIOkXhsP9+2DnPEyiDsLevpseDveNB4MRpsi6aeDAHo/261fTNG/e2V7+kcwTvopV4/VDVxkGfuPZrNOyXFPpa427xYshDJRWVzENnTEQ3cR408pMdZipHdPJsd5SZ6gtLdyMgAi6m63nO91F0H1ncsdNmBtU6Xv1Pnjd1TlzBn17AEJyvgbil80hHtvj+uRrOSy3JVWPOd9VbECgYfjww+KxGD0z6S3d1bEMBG83nsSu+ff26N//P4Fly1q97s6ezRROJegkspmuDjwLvsKG66mLIc8KDR68cv9EouaHIOongKhXV1f3D9Ldnbvo4TDjWSRLm2EwuFjwu717h1+tq5uCABaGZ9IAOMce7ZoYo0adWLVhw1uDt2/feHlr62ZG/2w3hklf2oA3M15T/LFgMEKe1fJrYeCVKIQPNbord6TqbfUrUJp36QiIoJeOoXqoGAIi6BWDWgNlIBDs1WvYmObmDbe3tTUdge+6IjRcM9dB6M7+b4hfj1cyEC7XMSfluJKWpOr9UVdcZRBYVVs7AoTzeuyWn4n/e2IBntWdHZ//JxgMXoV6LyLveKMfiXnaIk4g6Lz5mRf7v8T78zIuGUbSpmuP48r48dMjGzbsPC4c7n0LSPqnsJMOt/e+ePjD+B0dSjM+/H+RSPCGrVv7frhs2dn8AVWxEIHJk6Ph5cvf6p9IrD+zqWnDd5ua1u3Z0rIhEIvRw6tD4VPl9RA+ab4d4gTPDAuRKLornsuPQvhQo7uyIVXvrqJHUkNfIyCC7mvzu23yIuhus5j79TX22utLQ3bsWPN9rGHObWpa26OlZWOnRSWmSW9Tpkn9PuRJCCOY++J8bg4TM7Us1zKfylGPR2pZjw81VMqAwKrx43sGV636Oi5Kxj2ip0O265jnMtaDmN/SFIncP3LFiq0gp76/ju0k6Ez9xHOtdNWh2yxJOKNrj8xyjTyMzzJJexkupeK7HDPmJ70SiabpoVCfK0KhHnugpyxnKgwEIUxsSiSMO6qqgvdUV9dvrauL+nnXtnjAO7SMBg87bLfeW7c2HNbSsv6mpqb1E5ub1wWam9cH8B6yIZBIJP/W+ZSZD4NegDCi6VsWKeC1bialblrH55gYgzpGIU95DQDNp7wIiKCXF1/1bikCIuiWwqnOukNg0qSf9tiw4cNLsH65EpsMu2MNE+F6huuYtjaexksWegAyZg69/5h1hcFstZbsDOx3UmuUro4EpFv8JFWv026OrtbiEMAOuPHbPfY4E9EMrx8eDu+L7XJyos6c0zBacRb9AaNnz5uWv/vu6mN0HbcDbhdB53lXBp/KtzCQFZ8OOrwkjPHjZw2BSzvJ33mJRNJdOOtTT9R5G98zCufvFy9eDVdrpWUr3LhJvBm4b19w72+3tGz5Mm5kIRLzNEHfdWNbn2hr2847G6855lgUocwP7K+mblqjclRnGroo5L/5datafkdABN3vV4Cr5i+C7ipzuVPZXb+JG09qa2u+AcT8U1i7VGEtY6TWMKkNB242xOgB+AiEMXNWQeSN2b3JufHHIHIX5rgyeGaf65j73HkFOUfrKf37H1Ibj982PBQ6Yq9QqAZi9A8GO/u0G8ZzRih07fbq6jdGvfNOi5/d2bNZzy6C/kUoky/hZjAHRml0TeEP7XvvbToYu+U/xkOkI6E4n95lO2/BH9qXgsGqazZt2vbGO+/MwA+tzqfnY+jx42cisGN8j5aW4EWofzkeKPeLxVqSO+Ymcp7ADa4Zn63E0+efxeOts1GXLmAqhSHwvdSNK+uZIVNXTEPIRYMWDIXh67vaIui+M7mbJyyC7mbrOV53egCO+FQs1nobNm0mY+exurV1EzJKcS2zaz2TWtfEsY5Z0Nq69UpMiUFtuZZRPKP87fsZVCVRPzZHk1dS65hn8+9aNYnA7j17Dh0ci12HXfNz98K53xHhcHBEKBQAQQ/g/cduxYnEuyDm3zXa2v48eM2anSLm2a8fuwg600O8AWEux+7KPHx5tlsv/dGjH6uqrt54Os6ek+DsB/INF49ENsx3gsw/VFUVvqW5ObZKadm6tjgX9vX1W/u1tMROQC3uhjN4YLLgxgYXsK3pG1obXN03traufyQY3Hbr2rX/5tNRleIRGImmvLlNydFFPb6PQpjeRUUIZEVABF0XhosQEEF3kbFcpCo8AGcOxPrwO1i7TIXevSFJj8t4vKWdnIOkJ0DQP2hpWXd9dfXaeWvWrGHqKd+fzy3BzlzDcC3DNU135Veptcy7JYzll6YMXngJ5Mo9QqHBIOThNClP/0+ivnsotBnX+0/7GMbdfevrN+ucefeXh10EnVoxbRp30RmZMrPwD4LRou/2wtV92GF39o3FqmdgLjPAITnvbDn/cD49sBbf8yzMnD59Vu/Q+XSz9aPBI4/cs1dLS2JsPB7Hj2si61NQ7JLzKfO21tYN/0AE92vff/8hPghSsQ4B4s6bG59Gd1f+nrq5vWjd0OrJKwiIoHvFkr6Yhwi6L8xcuUmeeOJT1WvX1p+PdQzPSA/tvCZMBLBTzp1zrmXuDIXW/mz58m04c16nc+bWmInegFEIN89yFR5FZV15K2RHih7RxGg0r+NqMHC4tid3zJPkHDIyHI7hHPojQ6uqbmisr/8A+dX8kv4v17XV7fd2EvS0YthZDjBgHJ8eMjr0SogHUx9Eg4cfvteI1tZWksuzMMcaSLbz6Qxktswwgt+PRLY9O3/+Vrgx+fp8ujF58oPVO3e2jgAxvxpHBhgsMOsDDngoIMBH/K14fMePXn/9W4/jd0I/qCX9PHTbmOe5SNR5vqu7Mjd1c/ugfKqoZ7chIILuNov5Wl8RdF+b37rJp373jorHE8wew1hMPP6YbR0OIh5/vKVlzQ/i8WXvLVs2T8fGrDODuSfG14lCGG+nu7IiVY9ZplR2IbA/5BbIZyGMBdV+He+G8+Zwb99F0IPB12qrqq4c3K/foikrVjTLnT3/y8cJBD1/bT1Qk6nAdu4cNikWi/O8Lh4kdZXX0uAP8rMgpddt29by33feudx3eS15zrxPn6qBO3a0TIFnwRWQ3TtfAiThCWLTAA+Eu1taetzzxhvntYc69cAl4+QpcHHBmxt3AbordMdjvRucPBnpVjkERNArh7VGKhkBpnj9NYQ7RenCCNpHQZbl6J2unwyieaqpHoLCBg6FFBIot+RJqAM7EUgYkybdv29ra+wGuLPjWjB4XWSL6RLHOuaNeDx4Rd++4Vfq6qZgg0YbDRWwHDPWcI3CDDbdFWYAYr1/VEAnpw5BL2Cu+bhJw4eXna5j7jwOj0Q+qA2FfjioqWneH5ClS8S8cHOKoBeOmSUtRo26s7pv36qvYJf3u+hwBKSrNBDbUWeWYUR+gnNJG/xxPv2x0EEHre9bXR0+Fjezm4DNJ7sAne5ePNPyu1Co542vvXYuzz+rVB4B5hrlTYu5R7sr76TqMQKtio8REEH3sfHdN3WSqemQO1Oq08ttCeRwCF93V8L4kueL05Gh6dVFUj8WIndl910LBWuMjYZ+wWDiSnj/XYpNBhIaXhOZhddFQzBo3NirV/+HBg0KNM6bd3aua6tgXdQgJwIXo0YUMjhHzTmpevT49UvhdXsBhOScnpPZrmNiwQ2yO3v37n3Hidu3b0QgMV3HRV4hIuhFAmdRM+PQQ3+5Wzze9C30d3E3P958qroScjMCyf2qtrbPTm/+eCeMMWMe7lld3XQAsIiCnJ/UBc7ckd2OOgsikeD3Xntt2qsW2UPdlIYA7cWb28Qc3TA6KuvNL204tXYrAiTo77+/6Tr+nZvm0Ib3P3j99YvoXaQiBJyEAFOmcneNv20rIH+DrM5TQR5nY1sSeh71YVyOfNvmOYSqOQ2B6dNnRl5/PXEOftO+j11wBkTuahMGQYIDs0Kh4C1tbfGN/tiEcZq1OujDv3Xel67KoSU9N1nvZkfPxhrljkM3DMrMB4tdHcvgQ6bfQXC9B7gZwweQOmZaAv4i6CWAZ13TaPDQQ2tHwe2dLsAnd+P+xCdR/wwGQ1f36hV62UPuTwY8CqoGDAgPSyTC3wAxn4Z5clGTWejO3oQd83fjceOWU06Z9mg0aiiaqXUXolU9fS114xqYo0PuKvEGpwj7ViHvmn6iwfHjh54BdR8zqdyKv+0zFy2a7sEYJNYY5qyzzgoNGDAg2NLS0gtYZYvFYc1A6CUYDMa2bt26fd48nX9NgUrPTe4a8Z5T6OKzlLaW2VQdVQIBpk0bdmhbW+w2rOXGY0R6YGRba2M9ZzwfDhtXb9jQ+JYfjzFWwholjMEYAVyf8D7VXflvqh6Psnit7IsJ8YE544TxwUVXnHEpvrsGQtd/HuERMbfgShBBtwBEq7rgmWsEh5uM+/8teOrKiIhdPanCuaQEgqBFrm9s7PP+smVnuzaACM/kb9kyYkA43PYVBE7hHzgjmmYrjPq4Fr8PszD3n+Mp8xarcFc/ZUGgH3plELlv5ugdgf2SN0FmL1DxEQLHH/9Qr40bG+/Db91nsYOE3XPjmX326X8pvINc+3tWbvNNnz49EovFDgU550PMT5RxPJLQNRjnwc2bNz8Nki43xTKCra69gADPmT9U29ra/ENsMnwZv2s98LvW1TnzN/EI7DoFAnaF3U9JrVG4e9xdeSpVb6ErZtW9koy7cSXkMgjTYmcLaM0e6AnEY6gPQ7ZDtGFmofFF0C0E06quTj75yZ6rV9dfkEgE6WKTJQUHR0oGDiFJvatnzzDScOy9qa7uGBedaUvuoPUJhUKIaMrAKUnXmWwlhpvcFnz/F7iAXbdgwbT3rcJZ/VQEAdqVRN0cJCnbwP9O3dzoIqXiEwQmTfppj2CwX/IsWzy+pW3+/G8xx69KFwhcdtllA5ubm/k3cnSFQFqDnfQjZ82apVzAFQJcw7gPgcmTH+u9Y8fmGdhk+AY2EBBEy8hyPjcZ0BaZioxbw+Ges0aMqNrhzaOK7rNfnhrDtsnNBG4+dFfuStVjViq3FT5Q+gqEbuojIbyOs/FE7pLPhHBjhR6QLuIe7jGJCLpjbZUwDjtszh5wk0JABmMK1GQaumxPsfjEiqT1hoEDe/z22WefxB+Ok3c7Esb48bOwKDc+EY8HrsUN60vQPetTZny+A+R8CXZxbli4cPrzjjWVFMsHAbqJkagflKMyAn4GrocwCJOKEBACJgTOO++8YZFI5CP8Jlbq3r2Ju/WzZ8/WgzNdiUIgAwF6AG7fPuy0RCLOexZSdvHYSSLb32Yz/mLnYqOB7sKrdc7ctZcSj+1xHTMjxwy4eRaF/MxFMz0Mut4K4f9dHcvgdP4EuQ7yHwg9W+XOXiYjV+omXyb1vd8tgyl98MG2A+PxNu4yM99gF+k5EnyChaBbxneRmmyRE8+njx79WFVNzaYhmMdluFldCn350CGjJJ8y82b2Ic6Z37bvvv1/KZdXT13n9ArhDa5XjmUlcywAACAASURBVFndkbrBbfXU7DUZIVACAlOmTBkSDocXo4vaErrJtykXXqsgp86ZM4djqggBIZBEIBqcOLF2DIj5j3E059P4gMcRs2000APwJXj/XYFz5v9+550ZOL6jtGkeuIgYLJLrGJ7N7q5woyEKcXJclWHQjw+YzoZwXZbtOuYcSci/DeFmGT3dRMzLfCGLoJcZYKu6J7nt1WvrSQgkhz+kBNKOGbghZH1SyyBqjxhG+PqFC89H2rHONwOcdZ8Lvf7PpNt/mpoGHFLMWfYJE2b9D85bPZruq0+f1ZG6umimuwu8Ae7sE4v1wJPmxA+h915d4MIgURtx08N5lr63Ll78lfVW4ad+HIUAU5jw5nZJDq3oIsabG13Gii100eKDLeY5nQDZB8I8nlxQMR0In3S/DcGZwEAd5K8Q5jhWKQGBceNmTTGMxIOmLppiscSYpUsvJtYFlYkT7x4Sj4fbo17D++ZzfvWowRl0Buq5KB6PX43/uzoXWBC+3VSmG+PTIOcXWdWhh/thMDDmSWe0duykJtM09YAQw20QRm/nAvcVyDOQDz2MRUWmdsgh944E8e1w5A3rh/MQZJLnYQsuWBcx2FcypSs2EW5CNgnuEmYWeADOHIjvbwTx/l98yQ2TbH+HJC/vGkboe5FI3z/Mn/8m4gZFdT63YKs4vgFTy3Its38OTemBFIXwKF+xhemYT4cclRqPxJqbXFxv8zemAcLfGD5MZaacf/JS7mYw3kvoCcA4Qbt3cR2zOddh3FmfDeGGia7jYi1YYDsR9AIBs7v6pEmP9Wht3TQDN4groMsASKdIviDBSMsW/Hc8HjpxyZKp3AHpULIQdP4d/3Dx4ov5Q1NQyYegjxnzk16RSD8s8hK3d9E5AxBtww3vr7jB/gCLb+aJVfE+AlzM8pr7fI6pMuhKFMIgLPkWLpqYs5PtCtltZIAypO4MMPUhghKqFINAFoKOboy6xYunHVvoDpIIekcLMJL7wIED90Qk964CahZjsg5tsEsfx31kE1zbl5fcmbc7YPqhWyB8+FdIqUNlPmTxQkCpQuZtWd1sBB2db4jHI/svWXLBukIHyoegH3roXQNjsQjJD49qZc2igHXMVuyq315VFbyrurp+a5YNi0JVU33nI8Dc4FzL8IFNd4Vntvl3X0jZD5UZiO1MSCGcjb/d2BALPJIxGPvgkcMohH3zOs7WL4n/AxAey2C+d50zL8RqFtQtxNgWDKcurEEgGWBtOG4E14Kon5v6Uch8irsd339n0aKLOu0+ZifogRbsTI0rlBznQ9B3LbAjyFXeaeecT/cQxdtYBl1vUnola64OF/byVejMmxtvFl0V7EAkv/8oj/nxaTafWOd6qt1VVxyD6UV4vkqlCASyE3TuTBnTX399Op/E511E0POGShUrh0BfDMWdWkZ4Lqbw3sc0TvTcUSkCgS4IOnv6Nc54855SUMlF0CdPfjG8c+fyKbFYMjhWFjfgRBsCKv4qEqm6ccuWFR8tWxZVNoqCLOD6ytzRjkIuzDETpN/LmWOdXZCfkWDTrTxL0MG88LoYtXi9pgu9B+dAuClCD5+uOCDd2L8HoYs+r2O5s+cFt7WVRNCtxbOivTFAybZtQ8fDlfQmLHyPxODmwA6bcbOYunDhtMczleqCoAdAkucvWrQa7jP5u2LlQ9DHjn1gUDDY9jT+xukGyN8EnjMn+VmHhwI/6dUrMrOu7ny6Aqr4GwHeEEjUu3Ld/SW+m5IDos/g+99D6F1iLnQp/TPkZQijjtK1nYts3lS5+8UbVjpt1eV4/Qt/m6K02XdF0NErjw8cgAV0u8t6rpFE0HMhpO8rjAB/M+jNMyZjXP6m0H2di1vuOPGIFhfBgyDMZsHI+0dAuO7ifTlXfuUKT8tdw3VD0LGWMU7CA3+sOfIvuQl6cr1FF+PHzL1ikwQei4lFWG9djbXMa06M/5M/CqppAQKMSRCFwFusyzIS3/DYS1eFR/DmQs7JqMB1898h/P1hZg2uZbhe4nqHD/z4+/I5SA2E99i9IdzcSBfupvMa5u9StsIjI9+FPAlhClwR864sVIHPRdArAHK5hxg16s7qvn2rzqJ7OP6esHgwGJjkH4MGNZ/+9NOXm/84k6pkEHS6l7cTIrSbkW3Xvas55EPQqV///jVfhMvkXPTDJ884L2P8pqYm9OOXX+7sgl9uvNS/oxFgfIIoZEoWLX+Oz5jqpKvyKXzB81c8W5UuXCgjW0DgIUium83BqMNzhXxQoHRfJVwmGQS9w28MFrS/w/lOuuvlVUTQ84JJlSqDABe2dEsfbRqOvxU8vsVzmswF3F3hcZvzIXxYuLQyKntzlAyCznOxXM+m17QftLb2GP3GG+cxzkheJRdBZydHHnl/n+bm2F+wliER4v1kNc7Bfx+xgR7dZ58BzUqblhfUfqnEOE9RyMgsE94Dn3V3DIOu5fydMJdf4w3Jc3fEnvUZ6I0B3/i79JuMPl7Hez5YzNwE4dly/obdCdE5c4dcoSLoDjGEFWqMHh2t6t17z8mxWOuQtrbqPy5den7WYFcdCXoC7jYGI6qnSc027HaPXrjwsnxciQP5EHTOjbr16jVkPHK7IwhL+K8LF16QV/9W4KI+XInAMdA6CuGOOMuLEAZk6eqmRu8RHKMIHGKaLW9GJ0J0lrzCl0AGQadHA48MmFPsnY5ddH6es4igdw0Rz6MPGDCgq6i7ObHNVmHTpk3xefOcnKqzqGlZ1ehedES30XRhACVGcn7NqgHUT34IZBB03BcMHGtKmGyT+Dni6nT3QLfDQPkQdAbmnTTpoVrEfzgDmxmrWlqqn95ttz2b6+qO0fnc/Mzmt1r8baZXIPOKp8tleHFPN0BwnWMm1nz4xIC6sywA72b0QQ9B8yYGx6J+KyA61mcByFZ1IYJuFZIu6sdM0LGbdS123nHGJMHgFenyZyyeGZE2Z8mXoOfsSBWEQHYESNB5bioXmWPgFe5gpQtdtehWSrdTlQoj0JGgG88ZRuw6PJxDGsj2s5sMXklX95z2EUHPbjxGdMdv9wFtbW3DrTIv+kvAVfejHTt2vPPII48oxWFHYJkfmA8B04WLWQa6VAo6qy7AAvrJIOi0BY8S8Ex/OigoXM/jkxYtumRBPt3mR9DZUwKR3GeFkbEmoQBw+SCrOqlrk67ndEvv7mEeiTOP4zHferpYeeSOu+sk+tTlHxCms10EoadtLg9DGbLCCIigVxhwJwzXcQfduHWfffpf+957m+i2R0KTLFionYMzXJnuMZ3UF0F3gkV9rwOjkJKQ82woC280JPYv+R4ZmwDI2EF/DUT8cCxq4T6XYFqXXUZKBGbC1d28G5lVWxH0zrBEo9HgRx99dB1+p5m/1uoCYmM8unnz5v/TTnoHaJndwXw0g+6m3JFSsQGBzDPoffpU9di6tfkkXLsMEJou/8KL8fj9ybkzmD9Bt2GyGtIvCHB33RzYmRkDcmW5KRQbBpwj9+M6icfPRMwLRbBC9UXQKwS0k4bJ2EG/C4vkGePGzUawuTif7KXPpqytqgrtP3/+hRu7010E3UmW9a0uX8HMzalEeL4zLw8Q3yJW5olnEPR/Y4F80OjRd/euqQlzh2vP1PA4yhk8+vXXp/FJfpdFBL0zNNg9jyAXOo979CuTKdsikcgn77333vfK1L/buuU1y4eA6fsjA8DxMwU3tcmSmQQ9FGrdfcGCr23A+uYJqHTax2olvgdX9xtzqSmCngshfV8BBJgazZzNZiLec4dbxYcIiKD70OgZZ9Dn4uaVDEaBHS4EiUgw/3OqJNq/6womEXQfXkDOmzIDwDG4W7qcgBeMpqxiEwIZBH0FCDqjyQbGjbvvZOxw/dGk1ltbtjQf/M47nYNZpuuIoHc2Yoqg1+MbBhsqR2nFA4CjH3jgAR5LUAkELgAI95uAYO5z5j5WsQmBTIIej4dGLlly4QcHH3zvsHA4yAeBzNLB0owjNgcvWnTpW92pKoJukyE1bBqBffCCLvDpwuM0PEKj4lMERNB9aPiMHfTfYAc9mcphzJiHekUijf/Gy5FpWOLxxGeXLLn4r13BJILuwwvIeVNeAZUY/Z2FO1rcVVQOWhvtlEHQG0DQh6bVwYNAuAonTK7Cxo2LF09n5PysRQS9MywMDtevXz+6Qp4LYYBEKwuDEn00Z84c806Olf27sa+5UJpRmdOFKdOY7kjFJgQyCTpI+KfSJHzcuJmXIYhbu6swXv8dR/Ym70rxmr2IoNtkSA2bRmAKXjxogoPB5ZgHXcWnCIig+9DwGQS9Q8ojEO4T4XfKHIvp8l5V1Y4D58//Vta0UyLoPryAnDVlBgYyR2lnnvOjyqQiI7KOhLSTzTKN06nbHj0GBGpq9ghEInvg/6H4fzf8Xxvg512nNLVeO8MI4uch3jho0M43s6VwTI+YQdA3gKDvnv4uRbj/g/f9U5+14njNOARz4sPBTkUEPasdjalTp45AQDdmKbDsjCJ2zTnYZvR72+zZs5dZfwW5tkdicUD6esX/fAhYjlSMzH/MVG6ZaZAqAFzfQN++3HTeM/X/8EC/fvTiT39eARVSQ2xNhidsbhk0aF1TV4HYOhP0+EEf/4ZEgxMmDH0JcS7adyBB0i9GCtmZXc1CBL1y9tVIWRG4G58yo1K6MJDb88LKvwiIoPvQ9maCjpvWk7hpnWKGATtcyLeYSO6q7yqJ2+AGf1U2qETQfXgBOWvKB0IdBgJKFz6Bpjuq1aU3OnwYwuBzlqa1yq2oAULeH2R8j0BV1WAQ80GB6mr+z/e7B4JBrukrWRIJ/G6sNIzQZQsXXph1FzGDoG8DQU+7myYVxQ7XdPRhXiwjkNxq5BaOJhmiuYigV9K2GqsLBHjmPB1ZmWfR6Y5qdWGwS8bTYPC5T1jdea7+wuHe+F3ZIyn8bfn49aBAKGTOypSrJ0u+Z/CqvyDH+E8XLJj2QrYeMwk66jAYHFNrJsuECfceiBgXfE9cWbbE4+EDliyZygwSnYoIuiV2UyfFI/BbND3D1JxegYzoruJTBETQfWj4jmfQA51Sqo0Zc+8ekUiQO1xMb8XCm+Wh5ptfGjYRdB9eQM6aMgnz30wqIY5C4EqLVSQD5gOr2ZD0Ys/iIbrrbhdBTy+azYvn6upBIOg2qIR8qSDYf8PDPT7l71QyCPoO/HbwAYepMFXRTNjN+LTpw6+jHiK9dywi6BW81DRUNgS4TmIU8PSuNtOqTbAYKo6xL+Rti/vNuzuHEXTqTXf05UhndmC2XfTOZ9ATE3Ecr0NALTwIvBG/U9d+DELiCWw2fCkbKCLoeV8qqlgeBPgg6hhT133went5hlKvbkBABN0NVrJYx1wEncOBeF8AX1ZzUJwluFEemnmjFEG32DjqrlAEGK39SVOjKF5bnXqKZ3yvgNxUqHLW1HckQWcqrjdwrrM9NaN5rrkJOoNSzvwU2vwTknYB4GJkNEh6h10DEXRrriL1UjQCfLi0zdS6LmMhXXTHpoYk/1ycM62SLesyBxJ0wrMzEgl8+tVXP94ZT2OWD0EfNerO6n79qt9Am3aPBKxrznj99YsfzzSaCLoVl7H6KAEBPlwan2rPh1MV9tQrQXM1LQsCttwIyjITdZo3AvkQdHaGeh2e6OFJ9DXYMfuxeSAR9LxhV8XyIMAdXC5q04V5iekiamVh3lCe8/2TlZ3m35cjCToiIxv3gKCbsj58PKN8CDprY4frB/hdiX7c0ngKAeO+YMZGBD3/K0U1y4IAXVTMQScZ2R7HMSwvPNdOzzVG5q/4GXQHEnR6LfwXvzEH47emU3C3fAg6LQRX98lwdX/RZK3VeL0/HgRuMVtQBN3y61kdFoYA4+eYf1e4MaBgt4Vh6KnaIuieMmd+k8mXoB9yyH37hUIGnz7XpHpmUJyDcGNrTwWBhfjZuHf+v/TI2GWPdBXUJT/tVEsIFITA4ahtTgXFc80XF9RDfpV7odqFELpkVzhIXPoM+mCcC02fP9/1P8+gh0KVdXFH4KXtwaDxMhbND+N8KM/jdir5EvTRox+rqqnZtJQLZlMnX8VvDOJg7CqpIzdr0u8x9ucWLpyu4DkfA8adFnohlErqeJSpOdVtl9Gu8/tz8VwtZodIR8tnui56f1hdaD8G/WO8F8bWqGjpSNB3/b7sOo9uyxl0eugsgTPBjxYtmlaXDYh8CTrb4kHg/XgQaIpNkpgNV/fp5n6xLmJqtuTvEH7jbkJ2m+sqagAN5ncE/gIAzAE/uc5o8Dsofp6/CLoPrZ8vQSc0EybMvBY3qxs/hinxAm5sx6XfYyF+Ogh6u7uYCLoPLyh7p1yL4VeaVCBxy3ou2gI1+aCKRMgG17P+gf79GfR8ZOp/vh+J99x0q2xBwKhEVdWAlvnz3wSZ6xzUjdrkS9BZF79HjLrPYHPp+9G6UKh1/wULvraB3x900D0DqqpCG9OzFEHvZG+67/Kh1DhIKSSdeXcZSZhHDDoF66vsVea40ZZDo3TaOT7EYNQ0YWSjmQoh6KnfkP9CXXonsCTwO3IMHvS1xy/B7xCP24xJfimCbqNlfTv0LMx8mmn2vC9yV13FpwiIoPvQ8IUQdNTl9hwjobY/0ccZrgtwhiuZrxEL8S+CoLefARZB9+EFZe+U+RvGpDzpIGSb8JrRlrUDaKNdCiHoVBMPAmdiUWza0TIegqt7Mu/06NF3966pCbefAbaSoE+cOGtir16rlrjc6+c3gImBr6xwpfgd+pkCUXCijn8/PN5iPnrB2Av0/FCxCYFCCPqu35j7zkH+iXbPHHy0fMuW5jHvvHN50msEa532M8Ai6DYZ1d/DMrjtT0wQfBOvf+ZvSPw9exF0H9q/EIJOeMaNm3048hTzSV5653BjOBw84LXXpq0ZO/a+47Bgbnc3FUH34QVl/5SfgwqfNalxGF4vsF8t/2pQKEHHb1L6/G378QE8+Dt+0aKLnzvrrMdC7723qS2NplUE/bDDHtwvFmt5AedT/9qnT/gbdXXnb3apxcwpwEqdAneFB0HaPRZK7dAj7RkJ3ORJFrgG7zvEY/HIPF0zjUIJ+q61zMyn4OrOYwTJgtdwob8oGeUdv0H/wH/ctdQOumuuAk8peiRm85JpRk/j9UmemqEmUxACIugFweWNyoUSdM4aO1x34anyZR8jkHgMru5fTpH39jPAIujeuEZcNgsulm8x6XwfXl/isjl4St1CCfqu35j7zsQO1zwTEDzffiDOo+/Eb1b7GWCrCPr48ff9Ckv0s1ML9ZcMI/J/CxeeX4/P3OZ9Qdddul9bcfSCab4mQjoE0PLUxVncZPjQj0cA0oXnlelV5rZrpbjZO7BVMQR97Ng5ewWDsWWYDmOKsLTiAd2E11+f9gZ+D3AG2EieAdYOugMN7n2VeHxuHaRvaqp8KD0SYj7C530UNMN2BETQfXgxFEPQjzzy/j5NTW1clAxPQwZX91OCwcT7uMH9K/2ZCLoPLyj7pzwCKqyApH/P6LL4ScgH9qvmTw2KIehECjtcf8Cu1ikfo2b8FK7uV+A3q32X2AqCPnHiA0fH462/xzg82M/CAGnLDSP01UWL6nEWNfvZeodak8GvfgTJyDVfsLZcEF4EYUwRRtD2S/kfTJRnj3k9dOd5w4cXo0ygnIPXPF6gYgMCxRB0qgkijswTxu2m35gFixevmjRu3NDH8NtzBj8XQbfBoBqSCMyBTDVBUa6gt0LbBQiIoLvASFarWAxBpw7Y4ToVO1xcxKRLPcj5F+D+zuAqySKCbrW11F+eCDyBeqeZ6tbhNYPFtbtG59mPqlmAQLEE/bDDZg9va4vzQWCflBox/MYcht8YkkY+iAmUStDhMl/1/vubnsUinO6s5qBqiBwdWIvPL8fnv8fOvZtIKh+cEp9SdtG5Q+ynvxe6j0Yh9BhIl0vx4t4u/gS+js/NZ0K523UwhGm7VCqMQLEEnUdm8Pf/Kv7OJ6RVxutvImo84gokzuNnIugVNqaGSyNwCF4w5lOam9FDh14dPMan4jMERNB9ZnBOt1iCzrZwdf8dbl4MSJQsWNA+bn4vgu7DC8oZUz4AajBokzlQFne3GGhMuUQrbKNiCfqu36f7ZuCX5U6TyrQr3f724WelEvTx42eBhCVuRVdZdpzp3p7YifFv6dMnchvOpdO1XsVbCDBFWhTy5SzT4rGK5HWWpdAFlccJ9jZ9R3fp4yGrvAWR82dTLEHnzBAc8pB4PLEQL8Opme7A3z3O/8rF3fmW97yGj2CGXzHNkgFS+TDRfD7d8yBogh8/pREWPkKgFII+duz9tcFg0tU9a34nEXQfXUjOmyrzB2cGbuLTaBC+wCt5qstdSKb3woJNpVgESiHo4E7B8eOH0l4899uplELQJ02as1tra9tCeAKRZHX3gBrHJIz/B5L+dRcHjyvWfF5tR4IdhXynmwm+i+/MbuyZVSfhA6YETBM7fr8WcgWEEcLzSb02APWYU105jku40koh6BwWDwIRMdtg5OxORTvoJRhGTUtFYDd0wIfSe5o6ojcXjzHdBsknwwZ/X4ZB3itVGbW3DwHtoNuHvW0jl0LQUzc25Nw1sroBiqDbZlYNvItw8brkOdrMQqLOVEk8jrEGwp3RHpDdIdwxGw/5dOqmeBD+/7cALR6B0gh60suHNlgM6ZQ6rBSCPnHizJvj8cA30C9z2ucqrfAQcnPwuFzz89P3F2KyUQgXrd0Vursz3VZ35Vx8OReSmXOe+eN5BIzt+ZoLaT4U4MNsPhDiNc3fmNEQHqO4y08GsHqupRP0mcxlz995s0dEUk0RdKutpf4KRIAxMf4K4frEXBi8k2mNmVWJMTH4nseaeCSMmwuMvcNo8Pwd43rnzALHVXUHISCC7iBjVEqVUgk6bl/G+PGzkZIkwR+CDkUEvVJW1DhdIMDftOsgP4BkLqDzBU0EPV+kuqhXKkFnt9jhwo6B0Wm3s1iCnnJrfQZ9Io1YIt97XzJ4XCgUnrrXXn0WzJt3Nt87vRR6Dj2fXV+nz7kr/Y7FF1EIiXF3hbvirPdinhNlIMMHIdztKqbQq0cEvRjkUm1KJei7fmNm8ngCfhM6FhH0EgyjplYhwKM4j0G4Himm/A6NRNCLQc4hbfJdpDhEXalhBQKlE/RAAPnPD8BCeQn04Q5BexFBt8JC6sMCBBgAiHmLk2lzCih0JeMOF59OqxSJgBUEffLkB2u2bWthhogOLsfFEnQQfu48nACCbnZPzmeGJLDMC84AYk4OHscHUkwfRTfsfNN/8XrnOWrOz0sB4kZiPlEIY1B0V5BWL1nv/nwuhIw6tXj/fcj5kA73wTz6Ypu5edRTlS4QsIKgs+tUusWvmocRQddl5xAE6OnF4JQ8ipG5m55LxV+iwpRclfS9cxEQQXeubcqmmRUEPXVjux6LXS5Q2osIetnMpo6LQ4Dk7nQISQsDyQ2GpIOD0c2d583pjkoiSLexpyCbixtKrdIIWEHQ2de4cbOPRQR3uvq1l2II+sSJc06Ox9uY9zydY7ZAYzk+eBwJ4smQByCFzpFBiL4NuadAUJxanfekKCTX+oZnOnEPKzmI5ED0wR31YyDc7WJEfdqAD0yY8pFuqHwQwABzjJTP35gVTgXPLXpZRdDHjn1gUDDY+h/Mm3ZMFhF0t1wFvtGTRJ1ZafCAOZk5Yt/Ubww/ZxBcHqdhoErG0GDww+dT//sGIC9ONNcNzItz1pyEgBAQAkLAJwik0qq9jEU30igVfewhjVYyeFwo1PKtBQu+xl3nfHeqy402zznPhpxV5EAMWDa0yLZOacaz4dHU4rU7nZjdgcSchFlFCAgBISAEhIDjEBBBd5xJpJAQEAJCQAhYhQBSQ34TUdtvAJem+7cVhcHjFkUiofPmz69HlNyoE85w8yz0HyGd4oLkOWHm8qbLthsLvWOiEJ4n7q4swJck5tzBVhECXSLAI3z9+jUsr6uLeunYhywuBISAixAQQXeRsSqrajR46KG1cA9OfMYwwh+OGNHnry4JkFRZmDSaEBACjkWAaSFDobbXsHvO6N1W3u8YLO59BI87zyHB43hsg8ERme6r0CBxdMP+G+RExxoyu2I8rhKFIKtIt2V9qt7dLpuf1K0wAjia88VgMHELfy/wEO6fbW1Vpy1der6OPFXYDhpOCAgBaxcswtMjCMAlNPT++1sQXCt+P25UTEXCMy7PLlo0/VzD4FlMFSEgBISA8xEYP34WSFliKjRlXlirC38LN8RiLZeGQlV2B4/jwwe6qDPF4OEFTJQ7hEwLNgfyUQHt7K56FRSIQnh/6q78FF9y13yr3QprfGcjsCvwbeAvWBbzYR4fcsVA1n8Yjxu3LV580U5nay/thIAQ8BoCVu4oeA0b385n0qSf9mhp6cUIkObzjJtCIePwBQumL/ctMJq4EBACrkEglVaNAeaKTYWVx1yNRHPz2p3NzWtu2X338O3z59/RmEcjVSkegTNSxPzAHF0wHzmJ+dLih1JLPyGA3fOvYv+BgRJNQRaNzSDtRy1cuApB5BxxlMVPJvHjXBlYMp0elg9PCzk+xYdK6Qwlhbb1I9aOn7MIuuNNVHkFEeUduxIJPkk2547dGQoFT1iwYBryn6sIAccgwBsSF+uM3My8ofMhd0L+mYeGvKHtA2H6LEZIXQy5I8+2eXSvKnYhQC+g997bSJJWTFq1vNVua9sRaGpaDWlobm5ueBLRoC9ZtaqOmQHkaZQ3inlVZIC/KITR0rsrb+BLEvPH8+pVlYRACoGJEx/YJx5vQZwCoz2aO14nQNofCYWaL3vttcvlhaGrpZwIRNA542gw2CWJOTNyvJh6nWtcknquYZhWkryOaSP5cLoQgp9rDH1fYQRE0CsMuBuGI0HH+atn4N5+lEnfncFg5KSFCy/gWUUVIeAUBAZAkScgDBRFss6UUY9ALstDQbrH3gX5MoTpSujGyAjP0/JoqyoORmDcuPt4HIe7YX3KpWYiEQ9g5zxJ5QGp+QAAIABJREFU0BsbGyCr2vB+YSy2+bzm5q0IHqfFkQXYMzp9FPKNHH0xzRCJ+W0WjKkufIlANDhhwlCeP/8apt/jYwiMFqR6/GLv3p98sa7uGAWN8+W1UfZJc7OAAT7/bhqJ65EjILk2G8jjJkJeM7UlMZ8AWVJ2zTVA2RAQQS8btO7tWATdvbbzoeYMFLUCQoLNwp3L9yHME5qrcPFPIpV2gWZbRrPmGUQVlyJw/PEP9dq4sZGB4fbHFAoNmJb3rNvatoKUc/d8l6Rex1pbt+H6S5yHjhg1nMHkVIpDYAaaRU1/n131cm+q3trihlErIbALAax9dsd/zFVPz6r29TE2LBY2N8c+/69/XbpJWAmBMiBQhT6vgfzQ1DeDd/Kzn+cYj9cp691sqkeCfjXk9jLoqi4rhIAIeoWAdtMwIuhuspbvdR0CBEiqzSXfnM790Yi5rM2/g4zYy115FZciMHHizG/H44HvQf1cAcSKnmE83ordc+6aJ93b20l6U9OaAHbWk8HjIFdCHoUwyGalC6/pfO7vTnSB/AJ0j0K4A9RdeSZVj4RKRQhYgYCBtIzT8XDvJ+jM7H0TA0m/rHfvql/W1Z3fZMVA6kMImBAgQedv3ndMn/G+cSMEKUK7LfydZ1se80sX3oPY7gdC2b0I5HMDd+/spHlRCIigFwWbGtmDQKkEPXNHRATdHjtaMuqRR97fp6kp9jp2sOlBUbb7W0vLxsyd8yRRb2ujV2Ly+Dn/4UKeLtc/Sr22ZI55dMIHTFMgp+aoywBq3LHhQyonFHo8RCFn51Dm7VS9XztBaengLQROPPGp6nXr6l9IJBKHYWbpgF0BEPR6xOGZ9Npr01am/8i9NXPNxkYERNBtBN+pQ5dtAePUCUuv3AiIoOfGSDUcg4AIumNM4QhFDPx+DUHk5dPi8cQ54Ojp2ASWKReLNaZ2zT/eOedOekvLBu6eZ45DN8UnIZdAKhU87psYi+nF8inM1jEln4plrMMUeFHIt3OMweMCrMddJRUhUDYEDj109rGxWPx3GIBeVumCgHGB21paelz/xhvn7Sjb4OrYjwiIoPvR6jnmLIKui6ITAiLouihchIAIuouMVSFVjdGjo5FQaJ9IVdWOvRE78H9AnP8HY+N16WfSkVbNdOZ8F0knQY/HycWzFgaWWgjhufRyB4/jPZ2Rf4/OE2t6kJQxDV1OLS5EjSgkV9yHB1P1PszZoyoIgRIRmDw5Gt6+feiDcHVnqlk+QEqX7Xjwd9SSJQ3/Utq1EkFWczMCIui6HjohIIKui6ITAiLouihchIAIuouMVXlVo8FRo3aLDBwYqI7Haw7F4vrL2AU7HQtvktKC739tbdvTadXMgeGwe86TEd1mVuPuL4MXTocwVWW5okFzTkwxdlqeWDPK77g861pZ7Vh0FoWYU3lm659ZQ1ivzsrB1ZcQyIXAuHFzRhlGDFG1DdxjEuaAcb/D78fUxYsv2pKrD30vBPJEQAQ9T6D8VK3gBYqfwPHrXEXQ/Wp5V85bBN2VZqu80syNXl9fXxUO9+/d2Bg7EVnQsLMeOA6acHGUsyQSsWRatY8Dw61KplfjDjq/y6OQwXNRTxd0np8uV/C4yeg70z03m3rU5wzIH/LQ3aoqI9FRFMJ8vd2Vj1L1mAtYRQjYgEAy7dr38RtxFQY3B5xsxdH005Gg4VmQdLxWEQIlIyCCXjKE3utABN17Ni15RiLoJUOoDiqHgAh65bD2zEj4jYtgMpFEIlSLHMdwY+V59cABkPagUJmTbW3d3B6x3ZxerbWVKbi73T3P7KoRH9wJYd5uvi5H4dnZg3N0zPy63PqvVGGU4Sgk17rjphQ2Ij+VsozGyYrAQQfdM6CqKjgfl+x+qNCestEwjKUIIvc5EPT1gk4IWICACLoFIHqti1w3Sq/NV/PJAwER9DxAUhWnICCC7hRLuFKPhDFq1C+qqqtDkZ49q8fF4/EvY2f9TCzIB5mJZDzeYkqn9vG5c55HzxIYLh8k7Agel49e5ahzboqYM7J+d4Up6fjQ4q1yKKE+hUARCCDt2uz/xd/4XWibmXbtqkhkx33z53+rXA/ZilBXTVyKgAi6Sw1XTrVF0MuJrkv7FkF3qeH8qbYIuj/tbvms6QK/bt2OyM6dwV7xeOMxIOlwgU/AFd7oyQjt6WBw/H/X64ZALMa0akWXdPC4qSlS6sSc5EVPDg2PSBHzz+Xo5LUUMX+6lMHUVgiUA4HRox+r6tFj07NwdT8S/YfTYyCWRUNVVejwV16ZisCFRkEuNOXQU326GgERdFebrzzKi6CXB1dX9yqC7mrz+U15EXS/WbwC8508+cXwtm3Lq4LByEC4tn+pqWnN/8CtfWJzc0Mo7d7e3Mz04SVzah5eXwWZAkFAqrIFj6sAau1D8G8yCrkox6B0D2a9uyupnMYSAoUigDXRUWjzR8gAU1uQcuOupqbW7y5bdhnPuagIgWIREEEvFjkPtxNB97Bxi52aCHqxyKmdDQiIoNsAun+GTCBl2/VI2bY9smHDB/s1Nn74laamhi83Na0aHo+3tp9JLRGPSgWPK1HNvJpfnSLdPXLUZp52kvNtefWqSkLARgToXfPee5vugwo8rlGTVsUwEo14iPeZvfbqs2TevLPzihRp4zQ0tHMREEF3rm1s00wE3TbonTuwCLpzbSPNOiEggq6LokIIRIMjR9ZVbdnyYfWmTe8xzzhzq38R0htixb20EsHjyoUVzu0nCffoHAP8PlWPAepUhIBrEBg7ds5ewWDsJSg8zPz3Dlf3v7S17Txn6dJvVjLgomtwk6J5ISCCnhdM/qpkxaLCX4j5YLYi6D4wsnemKILuHVu6aSY8i8pI8HR5/UKKrH8G/7efUS1yMungcVPQfkeRfVSyGXOoRyEn5xj0jVS9JyqpnMYSAtYhEA2OHz+UHiLXQXp93G+iLRgMnLtz525PLFt2drlSJ1o3DfXkRARE0J1oFZt1EkG32QBOHF4E3YlWkU5dICCCrkvDTgR4DyUp5wJrTwiiwCd31j8BKdYFniT2fyFOJuhM4/YDyDdygM+zuVHI7XYaSWMLASsQOOywX/Vta9vxdwSPPAip1sx/32+Gw8FjX3tt2horxlEfvkNABN13Js89YRH03Bj5roYIuu9M7uYJi6C72Xre0p0L9mR+dchhKaJ+Ov7fDZLvvZY76NyJXwyx6kzrePRFV/xJkFGQwRCeEW+C8Az4B5D/QF6BPANBVOpuywx8G03Nq7uK96TqrfOWmTUbPyOAtGtnJhKx+/En3deEQzwYNK6LxxM/R270klI7+BlbH89dBN3Hxu9q6vkuGgSdjxAQQfeRsd0/VRF099vQizMIYVJcdPF8+mch3FU/HtIeYKqLSd+Lz6+CWLF7fhz6uQUyoUCA61CfrrwLM9rRlT+aR39/SdVj+jQVIeApBLA+4gM4ernw75mvkwVn0ZGVIHbUokVr38afScnpHTwFmiaTCwER9FwI+fB7EXQfGj3XlEXQcyGk7x2EgAi6g4whVbIikN5V3wPfngH5CuRgCEm8uWzAG+68vwcpJa8yd/YehpxSpD049oGQN03tSfSvydHfcnwfhTxa5LhqJgRcgcDEibMOicfjz4OWDzQpzL+b+2tqwt96+eWpyk7gCks6RkkRdMeYwjmKiKA7xxaO0UQE3TGmkCK5ERBBz42RajgDAd5vSda5GNsfQqJ+NmQohN99F3IHhK7nxRZGmH4KMiajgy14T/d1kIrASghzkNPNfRBkLIRR6Y9I6fE4/ueDhHQ5Cy8e60ahNnwXhdxUrNJqJwTchADTrq1Ysemn8XhgOvQ2ecUkmoPB4Od79Vr1cl1dlH8XKkIgHwRE0PNByWd1RNB9ZvB8piuCng9KquMQBETQHWIIqVEQAjyvzkUZCfvnIcdAroWUkqqJhJtu6eZUZ0zdxgBtt0IYsK27Uosvz4f8GbLUVJFt6fKerTyID6OQXOfWCwJHlYWA0xGYOPHBIfF4y6vQcwSkfS0dDsdeikQCp7z00qWbnD4H6ecYBETQHWMK5ygigu4cWzhGExF0x5hCiuRGQAQ9N0aq4WwEGAWewgBxpbi28/z6xaap0mWe58ZLPQt+Avp4OgPCv6WIeZ2zoZV2QqBcCCSMiRNnX47AcDdihN6hUCwQCrUFwuG2WCTSdmF1dc2jTz99Of+mVYRALgRE0HMh5MPvRdB9aPRcUxZBz4WQvncQAiLoDjKGVLENAZ5d525eurTiBaO2Mxq8FeVIdHI3hLvwD6TEin7VhxBwLQJcKwWD8b9h13xsKNQaAjlPkvRIpHVFz56hIx5//NoGTK6Uh26uxUaKF4SACHpBcPmjsgi6P+xc0CxF0AuCS5XtRUAE3V78NbozEJgHNc40qcLz7Dc7QzVpIQS8i8BRR/38hHC49dFgsK0/CToFO+hxEPWbWltrbnnyyajSrnnX/FbNTATdKiQ91I8IuoeMadVURNCtQlL9VAABEfQKgKwhHI3AntDufUg6KjwDwPGzUoLNOXrCUk4IOAWByZOj4erqql8Hg62ngpxXpUk6/t9aVRU4Yu+9+/0nGlXaNafYy6F6iKA71DB2qiWCbif6Dh1bBN2hhpFa2RAQQdd14XcELgAA95tAYEq07/gdFM1fCFQKgRNPjB5QU9NSh13zQbvOobcmd9Lx/6+bmhoveeSRR7ZWSheN40oERNBdabbyKi2CXl58Xdm7CLorzeZXpUXQ/Wp5zTuNwFy8+D8THEyZ9nfBIwSEQGUQwA558L//3f4j7KJfDlLeg+QcZ9M5eAvki8OHD38RdZR2rTLmcOMoIuhutFqZdRZBLzPAbuyeBD0USjyTSCSOMumPc1ShkxYunM7ovSpCwCkIiKA7xRLSwy4ElmHgA1KDMzhcPwjTq6kIASFQIQTOOeeK3Wtqtr0KYr6PYXycdg3DL4xEIp+/9957lXatQrZw4TBJgg5CZvZ8akF0QWYIuCHHfMjj2Pb7pnoJtGW7H7gQC6mcQkAEXZdCJwRI0GtqGp/BFx0IejAYPOkf/7hcBF3XjGMQGBkIDIEf4eoOCiUSDStisaG5lETb/mjbcdGUSGxG2wG52up7IeAgBHjmfGBKH55F38dBukkVIeAXBIxp06ZdiI2N2zHhPqZJx/B6Rltb24Nz585VXAi/XA0FzHN0IFC1NRyO4tppJ+ggZy0Bw7jxo7a2nAR9BNrGE4kOBD1oGDd82NYmgl6AHZxWVQTdaRZxgD4nnzyz586dm7CDbrQTdMNI7CRBf+65q0XQHWAjqbALgcm9eg0Jx2IdCXog0PB8U1NOgj4ZBD1cU9OJoD/f3CyCrgvMLQjwHs5d83SAOKZVm+AW5aWnEPASAjNmzKhuamp6AUSLaQ/Tf5OcYj1k0pw5c1bif6Vd85LRLZgLCfoeNTVZCfqLTU05Cfoxu9p2IOgGCDraiqBbYB+7uhBBtwt5B4978snRnm1tAeygf0zQoe7OcNg46cknvy+C7mDb+U21S0HQE4bRaQf93h07chL0b/Tv37+5ra0DQccP4uZ7tm8XQffbheTe+faG6ttM6tfh9THunY40FwLuRuDCCy88FjP4HaR/eiYgTwlscNwO8h59+OGHd7h7htLeagTOAkHv36tXFP12cHEHyb5x1vbt3RJ0PO0xpvfuHQ1k2UGfuX27CLrVxqpgfyLoFQTbLUORoIfDTR120EnQI5HASfPm3SyC7hZD+kDPH4OghyKRTgT9ii1bchL0O0DQEcYn81zg5is2bxZB98G145EpRjAPBqJKl/l4cYRH5qZpCAHXIYBgcOH6+npmVfgypNo0ge2hUOiooUOH/ktp11xn1rIqDGZe1aNfv04EnS7u12zenJOg39q/f9QwEXQQuwTa3nD15s0i6GW1XHk7F0EvL76u7H369GjPbds2ZxD0xE7DiJz06KM/EUF3pVW9qfSfBw0a0pZIdCDo+FFrOGX9+pwE/QkQ9GCWM+inbtgggu7Ny8Wrs+K51jQReAuvP+XViWpeQsANCEydOnUUdj+ZSYFBTM3r7Cewk37+rFmztrhhHtKxMgg8BoIeGjiwA0HnGXR4B954xvr1OQn6E7vv3snFPQSCftr69SLolTFhWUYRQS8LrO7udPr06T2bm8MdgsTxDLphhE968MFfiKC727ye0n4ZCLoRCnXaQT9gzZqcBH0JCHp1ljPoaCuC7qmrxPOTWY4Z7peaZTP+7wlJ5nhSEQJCoPIIMO0adtF5Jviq1N9jWolWEPTT8eZZkHTGjlARAoFlo0dXtW3cGDXi8Y9d3A2jJR6P33jI2rU5CfqyIUM6BYnjDvqYhgYRdBdfXyLoLjZeuVQnQY/FEs+AlHeI4s4d9Nmz7xVBLxfw6rdgBN4HQa/KjOKOHfRhq1fnJOjvg6BX9ejRwcUd57k2D1+9WgS9YEuogY0I/Aljf8E0/li8XmqjPhpaCPgegUsuuWRAS0vLS9hJp0dLMA0I3i/t27fv526//XZmX1ARAkmC3m/z5mjQTNCxg47I7DcOb2jISdBX1dZ2cHEHpNh8N24YumqVCLqLry8RdBcbr1yq7yLoMRD0jkHi8B4EfbYIermAV78FI7CWLu5ZCHptPgR95Mj+1c3Nnc6go60IesGWUAMbEbgWYzNfbrpcgxc/tlEfDS0EhABc2xEw7qtYN92NGHF9TYDEsIt+1aZNm+6bN29eo4ASAiLougayISCCruuiEwIi6Loo3IKACLpbLCU9y4gAUzq9aur/Tbw+EKJ0TmUEXV0LgVwInHXWWVX9+vWjh8tkCAM6JgsIewMDxs2cOfM9EHj9neYC0uPfi6B73MBFTk8EvUjgvNxMBN3L1vXW3ETQvWVPzaZoBN5Gy1Gm1ufg9W+K7k0NhYAQsASBadOmTQQhZ0wfs2cW067dEw6Hv33PPfdst2QgdeJaBETQXWu6siougl5WeN3ZuQi6O+3mR61F0P1odc05CwJfx2c/M32+Dq8PhnQMoCjohIAQqCgC2EUPYRf9Hgx6HqTGNHgjdtGP27hx4wK4uscqqpQGcxQCIuiOModjlBFBd4wpnKOICLpzbCFNukdABF1XiBBIIlAF+S9kbxMey/D6eMgqYSQEhIB9CMyYMWN4Y2PjfGgwDGJed7/Q1tZ2xty5czfbp51GthsBEXS7LeDM8UXQnWkXW7USQbcVfg1eAAIi6AWApapeR2ASJsjcy2HTRNfi9RWQX0PySb1GN1zmVG/wOlianxCoFAJwcTcuuuiiq5A2i6nXepnGbcPr87Zs2fI77KK3VEofjeMsBETQnWUPp2gjgu4USzhIDxF0BxlDqnSLgAi6LhAh0AGBc/FuLiSUgcuHeP97yCIIX/PcK3fd+0G4634Q5NOQ0ZDLIXcJVyEgBKxD4NJLL+3d3NzMtGv8W2tPuwby/jY++/ScOXPWWDeaenITAiLobrJW5XQVQa8c1q4ZSQTdNabyvaIi6L6/BARAZwROwUcPQnYrEpwZIuhFIqdmQqAbBJB27UwQ8vtByM1p1+IIGMed9TtmzZq1UwD6DwERdP/ZPJ8Zi6Dng5LP6oig+8zgLp6uCLqLjSfVy4lALTrnov98CHfKCylsM7eQBqorBIRAbgSwtoqAoD8BYWyI9rRreL0pEolMGjx48NvRaDSfoyi5B1MN1yAggu4aU1VUURH0isLtjsFE0N1hJ2kZCIig6yoQAt0iMBDfckf9GAhda4dDuHtHF/hmyBZIPYQB5phL/SnICmEqBIRAeRBA2rVDQNCfR+/820yXBHbVH4zFYt944IEHtpVnZPXqVARE0J1qGXv1EkG3F39Hji6C7kizSKksCIig67IQAkJACAgBtyCQSrt2Gwj5RSDqPdJ64z0fmH1+2LBhL2MXncHjVHyCgAi6Twxd4DRF0AsEzA/VRdD9YGVvzFEE3Rt21CyEgBAQAn5BAAHjhrS0tNBjZQSkfR0Okv5SOBw+5d57793kFyw0z0BABF1XQTYERNB1XXRCQARdF4VbEBBBd4ulpKeNCNClfTxkMWSrjXpoaCEgBHYhYMDV/WvYQf8RXvc2gRLDZ9N79uz5yC9+8QvuqKv4AAERdB8YuYgpiqAXAZrXm4ige93C3pmfCLp3bKmZlAWB09HrwxDmXt4B+V/IE2UZSZ0KASGQNwIzZsyobmpq+hsI+QQ0ak+LiF30t5GObdJDDz20Ie/OVNHVCIigu9p8ZVNeBL1s0Lq3YxF099rOb5qLoPvN4ppvgQgsR/39TG3exutPFNiHqgsBIVAGBKZOnXoCCPmj6Lq/qXumXTt6+fLlr9bV1eksehlwd1qXIuhOs4gz9BFBd4YdHKWFCLqjzCFlukFABF2XhxDoEgHe37OlbAri84RwEwJCwF4EEAwuXF9f/xC0+BKkOqXNpurq6rF33333h/o7tdc+lRpdBL1SSLtrHBF0d9mrItqKoFcEZg1iAQIi6BaAqC68ioAIulctq3l5BoELL7xwMCYzB3I4pA5yy/Dhw/+pSO6eMXHOiYig54TIlxVE0H1p9u4nLYKui8ItCIigu8VS0tMGBETQbQBdQwqBAhEwENW9186dO8MIDte2bt26xnnz5sUK7EPVXYyACLqLjVdG1UXQywiuW7sWQXer5fyntwi6/2yuGeeNgAh63lCpohAQAkLAHgRE0O3B3emjiqA73UI26CeCbgPoGrIoBETQi4JNjfyBgAi6P+ysWXoAgYsvvnhkW1vb++mpIHjc92bPnn1jMVOD2/wKtNsr1faZOXPmnFBMP2pTGQRE0CuDs9tGEUF3m8UqoK8IegVA1hCWICCCbgmM6sSbCIige9OumpUHERBB96BR85ySCHqeQPmsmgi6zwyez3RF0PNBSXWcgIAIuhOsIB0cioAIukMNI7WEQCYCIuj+vSZE0P1r++5mLoKu66ITAiLouijcgoAIulssJT1tQEAE3QbQNaQQKAYBEfRiUPNGGxF0b9jR6lmIoFuNqAf6E0H3gBF9MgURdJ8YWtMsBgER9GJQUxshYAMCIug2gO6QIUXQHWIIh6khgu4wgzhBHRF0J1hBOuSDwPuDBg2pDodXoa75t6yhdvXqobnavz9yZP/q5uaNGW03o+2AXG31vRBwAQIi6C4wklQUAkRABN2/1wEJ+oCNG38ABL5rQqEFr2/AeqTbQIEJrH1W1dZGjUTi+6a2iYRh3DBs1Sr2qeJSBETQXWq4cqotgl5OdNW3lQisHjJkUDwYXIqbUy37xQ9aDDemf9WuWjU21zgbdtutb1N19ZtoMyzVNo62y9F2/1xt9b0QcAECIuguMJJUFAIi6P6+BhYFApHaoUMvAwp3mJBoxusZIOizu0OHBL2htvbSRCJxl6lePBAMXla7cuV9/kbW3bMXQXe3/cqivQh6WWBVp2VAoGHw4F5tweC1wUDgKnQfhuwIBoM3D1m58qZcw2EHvaaqpeU7IPd8ah3Gja45YBi34KlzNFdbfS8EXICACLoLjCQVhYAIur+vAZLs1Xvt9alES8sC/GhX4T03GzaFq6sP2WPFioZc6DTstdfe8ZaWf6JedbKtYTRGIpH9B33wwepcbfW9cxEQQXeubWzTjAQdT+OegBxvUmIHXh+NfJqLbVNMAwuBDAR4Y1u/++69EzU1Q9oCgX3DiURDoH//d/ZYtmx7LrBMbQfHAoH9QvF4g9GnzzuD3nprW662+l4IuAABEXQXGEkqCgERdF0DXI+s2WuvkbHW1mOwadBSFQq9uHt9/cp8kVm19957JZqbjwsaRltVIPDCwJUr6/Ntq3rOREAE3Zl2sVWrGTNmVDc2Nn4PSlybUoQP5eqrqqoOuOeee3ISH1uV1+C+RIA3t8D48eF5ixfHz4abeyEgpNsG0JYu8oW0VV0h4GAERNAdbBypJgTMCOgMuq4HISAEzAiIoOt6yIaAgZtFbVtb20X4ciLcZT6APD5r1qzn8J5kXUUICAEhIAScjYAIurPtI+2EQDsCIui6GISAEBBB1zWQCwEjGo0a7777bo9QKBTBmd5YOBxuAkFvzdVQ3wsBISAEhIAjEBBBd4QZpIQQyI2ACHpujFRDCPgJAe2g+8namqsQEAJCQAj4BQERdL9YWvN0PQKZBN3CCT2D2EEnWNifuhICQqACCIigVwBkDSEEhIAQEAJCoMIIiKBXGHANJwSKRUAEvVjk1E4IeBMBEXRv2rXbWcmVyodG99GUV9XWjggkEqcjp/kRiIZ6IKY+GNIHEodshXyIz99A/vRnI62tf95j3ToFPvTR9eGjqYqg+8jYmqq7ERBBd7f9rNY+lRv9WPR7IuRgyH6QfpAeWN9sRy61jZA3jXh8AdYzTwxZs+ZfVuug/uxFQATdXvxtGV0E3RbYNWiZEfhojz3GIGbCDzHMqQUMRXJ+Z3Vz860DN24keVcRAl5BQATdK5bUPDyPQBaC/gukup1VzMQR1PcZtKtNtZWLezEg2tRm2ejRVQM2brwUw18DGVKAGq+AqF83tKHhxQLaqKqDERBBd7BxyqWaCHq5kFW/diGwesiQq5Be4CY8UY4UqcOKeDx+zvA1a14tsr2aCQGnISCC7jSLSB8h0AUCWpfp0vho0KBRoXD4/wGJccWiAZJ+18aBA68YvWxZS7F9qJ0zEBBBd4YdKqqFbgQVhVuDlRkBkPM74c4+I2OYRrz/M3Yg6kKJxH/iodDmuGFU4+Y1KBiPfxL1T8L3n4aETO0a8fkpw1ater7MKqt7IVAJBETQK4GyxhACFiCgdZkFILq4C6xjDsD64wVMgUfyzOW/ePME1i6v41jeKrzm2mYg3rPe0RCuZYaZG2Dd86edvXufud877zS7GBLfqy6C7sNLQDcCHxrdo1PGTe0K3NRuM08PN64HQMK/O3jt2jXdTRttR6PtXagz2VRvO26C44evXLnco5BpWv5BQATdP7bWTF2OgNZlLjdgCep/MGLEAMTDWYIu9jLj5hQ1AAAgAElEQVR1sxLrk8uwYfCH7rpOnVXnBsX1kN6murNrV6+eXoJaamozAiLoNhvAjuF1I7ADdY1pNQKrhg7dH8FS/pnh1n4Jbkr35TsW3OJDq4YMeQRn9r5sarNo6OrVh+LHEV+rCAHXIiCC7lrTSXG/IaB1md8s/vF8sZb5Fd59tf0Tw/gXgr8dh/Pk6/JFpX7w4MODCHyL+gyImywpj8An8+1D9ZyFgAi6s+xREW10I6gIzBqkzAjgpvY4hjjddDO6DU+bryp0WLDw8OqhQ19DO/O5r3NB9B8ptC/VFwIOQkAE3UHGkCpCoDsEtC7z5/VRP2zYIfD4ex2zT/OxzfDiOwhefPWFIoI10ZfQ5nemdv/FZsOB6DhWaF+qbz8CIuj226DiGuhGUHHINaDFCKRSqa1I39Tg1r6qqaZm371XrGgqZqjU0+f5praLQdAnFNOX2ggBhyAggu4QQ0gNIZALAa3LciHkze9x1O5+7HRfkJ4dXl+OjYZfFDtbkPSn0faEdHuQ/5ORgu1PxfandvYhIIJuH/a2jawbgW3Qa2CLEMBN6Dvo6kem7q4Dob6plO5xo3wFN8dJphvbQbix/buUPtVWCNiIgAi6jeBraCFQCAJalxWCljfqvj1qVHWvHTvoxp52S98WC4UG71lfz0BwRRVsXhyPo39Ms5cuv8Xa6KyiOlMjWxEQQbcVfnsG143AHtw1qnUIrBwy5K84N35sukcQ63F46swgK0UXEPRL0c/dpg6uwI3tp0V3qIZCwF4ERNDtxV+jC4G8EdC6LG+oPFMRGw3MJPP39ITgCfhHnDs/tZQJMq7O6traj0DSh6b62Qw394G4GcRL6VdtK4+ACHrlMbd9RN0IbDeBFCgBAdyADJwZ344ueqa6WYcb0OBSg7o1DB58IM5+/cuk2hMg6DzTpSIE3IiACLobrSadfYmA1mX+M/vK2tqrQcpvTc+c6WKx0cDMMiUVEP/fooMz0p3EYrGD91y79o2SOlXjiiMggl5xyO0fUDcC+20gDYpHAEFVhuNc1UemHv4CIn1i8T3uapkKFrcNL2tSfS1DvweW2q/aCwGbEBBBtwl4DSsECkVA67JCEXN/fRDpOZjF1PRMsK45HMfqGLC2pIJ+r0UHN6Y7wUOAs7AzT9Ku4iIERNBdZCyrVM28EVjVL/p5Zs6cOe3BKSzsV10JgXYEQNAn4Ub2igmSh0Gkz7MCItzY3kU/+6T62o5+21OWWNG/+hACFURABL2CYGsoIVAKAiLopaDnzrZYb/Cs+PFp7UPx+L6D16x5r9TZoN//RR8PmQj6lSDot5far9pXFgER9Mri7YjRRNAdYQYpUSQCWYKg3AEi/a0iu+vQDDc2pjsZm/owAdf5UKmu81bopT6EQBEIiKAXAZqaCAE7EBBBtwN1e8fMDExb3dzcb+DGjVtL1Qqu86dg1/wP6X7gOn89XOejpfar9pVFQAS9sng7YjQRdEeYQUoUiQDOin8RZ8WfLMfNBwT9JfR7ZLrv5urqHsWmbityemomBKxCQATdKiTVjxAoMwIi6GUG2IHdY72xCGqNT6uGDYGgFRsCIOifBUF/Lt0vz7ljB/3bDoRAKnWDgAi6Dy+PLAT9F4lEYlYxUCCSNl10alNt5eJeDIhqUxACeOp8NJ4I15ka/Qw76N8sqJMuKuOGybRqo1Nft6Dfaiv6VR9CwAYERNBtAN0tQ4oQusVS0tOrCGC98SLmNjk9v5qmpv67bdq0pdT5Yo10JtZI80z9XIu1jDktbalDqH0FEBBBrwDIThtCN2anWUT6FIIAzqAfjDPoS01tfoWbD89clVxww2xAJ4NTHa1Bv0NK7lQdCAF7EBBBtwd3V4yqdYArzCQlPYwA1htPYHqnpacYisVGDV67lnFwSiro92J0cK+pk0uwlrmvpE7VuOIIiKBXHHL7B9SN2X4bSIPiEfhw991rw5HISlMPz+DmU3JwwmT6tiFDmgOGEUn1rSjuxZtJLe1HQATdfhs4VgOtAxxrGinmEwRApOm5Oi093Xg8Pmn4mjWvljp99Hsd+rgh3Y+iuJeKqD3tRdDtwd3WUXVjthV+DW4BArgBrUU3g1JdbcDZrUGlnt1CnzwLxjNh6WJZdHgLpqwuhEChCIigF4qYj+prHeAjY2uqjkRg5ZAhl+GY6Md5zw3j67WrVt1ZqrLo90n0+8V0P1ZFhy9VL7UvDAER9MLw8kRt3Zg9YUZfTwJk+s8A4KR2EAxjPG5sjMBedEFglWvwpPkWUwdyCysaTTV0AAIi6A4wglNV0DrAqZaRXn5BAB57E3FWfEF6vogF9eSwhoZTSpk/PAHDq4cO3Yg+0ilidVSvFEBtbCuCbiP4dg2tG7NdyGtcqxDAje0q3Nh+bOrve3Bzv7GU/kH669D+6PabpWF8CqlJ3iqlT7UVAjYiIIJuI/hOH1rrAKdbSPp5HQG460Vqd3kD9k/NdVssFBq8Z319Y7Fzx9poMtZGDD6XLo9ibfSVYvtTO/sQEEG3D3vbRtaN2TboNbBFCCDV2h5xw6hPnxfHzveqppqafYtNiYbc6uMCicRik3p1uKkdY5G66kYI2IGACLodqLtkTK0DXGIoqelpBLAx8HNM8PL2SZbo5g739j/Cvf3kdH9YG01GirW/eRpEj05OBN2jhu1uWrox+9DoHpwybkS/wY3oy6Yb2+1wc7+y0KmmXMJeQbuJppvaWbip/bbQvlRfCDgIARF0BxnDaapoHeA0i0gfPyIAgr4/5r0MkuZjm+PB4EHDV66sLxQPHNM7FYT896Z2CnRbKIgOqi+C7iBjVEoV3ZgrhbTGKScCawYP3icWDL6BMXqZxrkYO98z8x0X5DyE81pzUf/cdBucA3uhtqHhs6UGnctXB9UTAmVCQAS9TMB6oVutA7xgRc3BCwiApDMlGlOj7SqG8S/8eyw2HNbnO7/UefbnUb9vqk0CZP04bDSY3d3z7U71HICACLoDjFBpFXRjrjTiGq9cCOCmdCnOW92d0f9MPIG+Fk+gN3Q3Lp42fxI3MJL59nPncHPfEggGx+DG+GG5dFa/QqBCCIigVwhoNw6jdYAbrSadvYjA2kGDereFw9xs2Ns0vw+xPrkEBPup7uZMD0Ac0bsYdRmTp4ep7h3YrPiWF/Hyy5xE0P1iadM8dWP2odE9PGWQ9FtA0q/JmOJ2vP89g6VA/hOMxzdDQng9kO5juJkxAvzxkFB7O5JznN3CTe0fHoZLU/MPAiLo/rF1wTPVOqBgyNRACJQNgdSGwbMYYETGIP/EeuVxfLYIAeRW4XUjpDdk70QweDg2Fc7Gd3ua2+C736xsaDhvQiDQWjaF1XHZERBBLzvEzhtAN2bn2UQalYYAniBfjhsVnyBXF9nTByDup2LX/Z9FtlczIeA0BETQnWYRB+mjdYCDjCFVhAAQ+Gj48GGhWIxnyMGtiyrYUA/8fOjq1Vfgxz9eVA9q5BgERNAdY4rKKaIbc+Ww1kiVQwA76SMx2s3YJWfguHx/27ai7i3N1dV3FBsBvnIz1EhCoCAERNALgstflTPXARbO/pk5c+acYGF/6koI+AYBMOxgw5Ah52EdcwMmPbyAideh7pXwADRnoymguao6DYF8F7FO01v6lICACHoJ4Kmp4xHAbvoI7KafAUWPghwAqYX0wmdxuLCTkH8AF7CluAG+EG5r+8Me69bRHV5FCHgNARF0r1nUwvmIoFsIproSAhYjwLPlIOrHY53yeXQ9AWuXvbGG2Q2vIxDmSWf+9OUIajs/EQr9Ad5/Sy1WQd3ZjIAIus0G0PBCQAgIASEgBMqAgAh6GUD1Spci6F6xpOYhBISAFxEQQfeiVTUnISAEhIAQ8DsCIuh+vwK6mX8Wgv4L7MbNKgYywzCeQTt6KrHIxb0YENVGCAgBIWBCQARdl4MQEAJCQAgIAe8hIILuPZtaNiMddbMMSnUkBISAELAcARF0yyFVh0JACAgBISAEbEdABN12EzhXARF059pGmgkBISAERNB1DQgBISAEhIAQ8B4CIujes6llMxJBtwxKdSQEhIAQsBwBEXTLIVWHQkAICAEhIARsR0AE3XYTOFcBEXTn2kaaCQEhIARE0HUNCAEhIASEgBDwHgIi6N6zqWUzEkG3DEp1JASEgBCwHAERdMshVYdCQAgIASEgBGxHQATddhM4VwERdOfaRpoJASEgBETQdQ0IASEgBISAEPAeAiLo3rOpZTMSQbcMSnUkBISAELAcARF0yyFVh0JACAgBISAEbEdABN12EzhXARF059pGmgkBISAERNB1DQgBISAEhIAQ8B4CIujes6llMxJBtwxKdSQEhIAQsBwBEXTLIVWHQkAICAEhIARsR0AE3XYTOFcBEXTn2kaaCQEhIARE0HUNCAEhIASEgBDwHgIi6N6zqWUzEkG3DEp1JASEgBCwHAERdMshVYdCQAgIASEgBGxHQATddhM4VwERdOfaRpoJASEgBETQdQ0IASEgBISAEPAeAiLo3rOpZTMSQbcMSnUkBISAELAcARF0yyFVh0JACAgBISAEbEdABN12E0gBISAEhIAQEAKFIyCCXjhmaiEEhIAQEAJCwOkIiKA73UI26BeNRoPLli0zRo8encDruA0qaEghIASEgBDIgYAIui4RISAEhIAQEALeROCfmNYY09TewOuDvTlVzSoPBIzp06efmkgkvgJZivoPDR8+fJWIeh7IqYoQEAJCoIIIiKBXEGwNJQSEgBAQAkKggggcjbFmQT4BWQ6ZDvlbBcfXUA5C4MILL+TDmr9CdqdahmG8DfnsrFmzPsLbhINUlSpCQAgIAV8jIILua/Nr8kJACAgBIeADBPbGHN/3wTw1xS4QoGt7fX39c/j605BIuhp20qfFYrFfzZ07t0ngCQEhIASEgDMQEEF3hh2khRAQAkJACAgBISAEyoLAtGnTLkbHt4KQ9zWR80QwGPwCdtGfxy56a1kGVqdCQAgIASFQMAIi6AVDpgZCQAgIASEgBISAEHAHAnBtHw5NX4KMgJjXfX8DYf/S/fffv9EdM5GWQkAICAF/ICCC7g87a5ZCQAgIASHgTwTGY9pfhEyCjIIMhvSA0KV5G+QDyH8gr0CegXzoT5i8OWu6tn/00UePYJf8dMyw2jTLRnx29ObNm1+fN29ezJuz16yEgBAQAu5EQATdnXaT1kJACAgBISAEukPgOHx5C2RCgTDVof7VkIUFtlN1ByIA1/YvYpf8Iag2wKReAuT8x5FI5MZ77rlnuwPVlkpCQAgIAV8jIILua/Nr8kJACAgBIeAxBHjG+GHIKUXOi9G8D4S8WWR7NXMIAhdccEGfUCj0Mgj6aKgUNKm1HGfPJ+Pc+WqHqCo1hIAQEAJCwISACLouByEgBISAEBAC3kBgGKbxFMSc+5wz2wKh+/rzkJWQ9RC6uQ+CjIUwHdsREK4JHoec4Q04fD0LA2fPbwQCX4f0MiERBzk/ZdOmTc/Btb3F1whp8kJACAgBhyIggu5Qw0gtISAEhIATEMAify70+L+ULrE5c+aEi9ELrrZTsJP3oKntJPT1ajF9qU1WBEi46ZbO3dJ0acSL2yG3QnK5MteizvmQP0OWCmN3IzB16tSxcGPnQxk+hGkv+Izn0S/D7jkf2qgIASEgBISAAxEQQXegUaSSEBACQsApCIigO8USOfW4FzWYSitdNuDFFyCv5WypCp5CYObMmZGFCxc+i0kdBWl/oAZivh6750cMHTr0XQSPi3tq0pqMEBACQsBDCIige8iYmooQEAJCwGoERNCtRrQs/R2GXs3eCMxpzajti8symjp1NALTp0+/BN4qt2TmPAdBn9GnT58H7rjjDnpWqAgBISAEhIBDERBBd6hhpJYQEAJCwAkIiKA7wQo5dZiHGmeaan0Xr2/O2UoVPIcAc56DiDMw3J6YnHmN94+WlpbTH3roIXpWqAgBISAEhICDERBBd7BxpJoQEAJCwG4ERNDttkDO8UnE3oeEUjUZAI6fMc+5io8QUM5zHxlbUxUCQsDTCIige9q8mpwQEAJCoDQERNBLw68CrS/AGPebxmHu8+9UYFwN4TAEEIjxFOycz4VamTnPb0HO8x8p57nDDCZ1hIAQEAJdICCCrktDCAgBISAEukRABN3xFwcJWTrKPpVlyrS/O15rKWgpAldffXUfpE5TznNLUVVnQkAICAF7EBBBtwd3jSoEhIAQcAUCIuiON9MyaHhASksGh+sHURAwx5vNUgWZ8/xH6HEGRDnPLYVWnQkBISAEKo+ACHrlMdeIQkAICAHXICCCXhFTVWOUGgj/Zz5zvk7/34DXH0FiXWjCM+cDU9/xLPo+FdFYgzgGgW5ynj/MyO3Kee4YU0kRISAEhEBeCIig5wWTKgkBISAE/ImAHwn6WWed1buhoaFHU1NTzfbt22u2bdvWY8OGDTWNjY0kzWkynUmkzaQ6/R0/SxPvnhnE21w/mLq60vdk8//MV/0G5EsQknFzYT3umqcDxDGt2gR/Xqn+nLVynvvT7pq1EBAC3kZABN3b9tXshIAQEAIlIWAnQWdU6i1btlRv3bq1B0pNLBarIWlGwCu+7hEOh2vi8XgPBMaqCYVCydckwfwfO4fVwWCwBt8lv+f/fM/v+ToLWa5Bm5rm5uYICLmBMQMQA+MnX/N/jB1AW943sxHpUj7LZSPunp8GeRbSYqrcG6+3md7X4fUxuTrT995BAH+fl+G6/VFmznP8PVyGM+lz582bp+MO3jG3ZiIEhIBPEBBB94mhNU0hIASEQDEI2EHQ4bJ7JEjHdyETQDyqUnon71f4zEiR5PTbTqQZVQol0sm+KK2trQEQdBJyEvR24XvsoLPfYmC0os216OROyHZTZ5EMwj4f74+wYjD14XwElPPc+TaShkJACAiBYhAQQS8GNbURAkJACPgEgQyCbuWsJ82ZM+fVzA6nTJlSg53x1/D5/hAS0IqWtra2TsQ8TdR37txpJ0E/E0D8CdKcAQjzndPtnuUtyKcqCpgGswUB5Ty3BXYNKgSEgBCoCAIi6BWBWYMIASEgBNyJQKUJ+sUXXzwMJHkh0BpqB2Ik6F3toJeZoO/AfOmOTMJNSb/mGfNFkB9CNmTBZDk+2y/1Ock7z7rz3LqKhxGYPn36afDmeADSIec5pnxzVVXVzcp57mHja2pCQAh4HgERdM+bWBMUAkJACBSPQKUJ+mOPPRZ69tlnuYN+CCQd/Kz4CRTYEmfbY9gxbwZJb4JbexP+b8T75GsEjGsEITKT5/RrEuNs5DrbZ5kEnO/bIGnfef5vfs0Z8HvWy+Zfz131L5imORavlxY4bVV3EQIXXHBBH5wxV85zF9lMqgoBISAECkFABL0QtFRXCAgBIeAzBDLPoIOgkjgXXHAu/FQ0utHUMKuLO7/HGfSzUP9reHl4ipQmSS3GbsTn7QQ5RZabEPyt/TsEiOP7nfiuGf838j3boh3JcjP74Ht+x76wY94EstPIPnD+fCvOmSewU57YvHkzd9ITIOaJjRs3BvB9Yv36ZBD1bAS6O3LdVf1MEl4wpqkGPJtuxvUavP9xsZ2pneMRMM4+++ybq6urZ2CnvCfjLaRKHNfoKQgM9xwCw5kDCTp+QlJQCAgBISAEOiIggq4rQggIASEgBLpEwI4gcXDfjeAcejWIcjitGMhIktDu2LEjAXKSfF1TU5P8n0Sa/yPSe6JXr16J+vr6AP/nZ3369EkgZVry9YABA5L/19bWJpYtW5Z8PXr06OT/ONNrJtJuuiIOg7Lms/xv4v2BENui2bkJPLfp+pnPfGYsrvNncO0PgvBvIIC/FQZP/CUI+teV89xtFpW+QkAICIHOCIig66oQAkJACAiBLhGwg6DLHAUj8DZajDK1Ogevf1NwL903+Ay+5nl4RopXsQGB8ePHR+AR8ixI+VGQMIh6kqBD1uMB1hEjR458Fw+aFH/ABttoSCEgBISAlQiIoFuJpvoSAkJACHgMARF0Vxj069DyZyZN1+H1wZDVFmk/B/1MTfX1Ev6PQv5qUd/qJk8Ehg8fPgPeIzeBkPcxkfMEXl+Czx5SzvM8gVQ1ISAEhIDDERBBd7iBpJ4QEAJCwE4ERNDtRD/vsZkr/r+QvU0tluH18ZBVefeSvSJjAfwiy1cPpYj6+yX2r+Z5IAASPjwSibwMIr4nxODOeYqk/wNxFU5fsGBBtgj/efSsKkJACAgBIeA0BETQnWYR6SMEhIAQcBACIugOMkb3qkzC13+HtJ/bx+u1kCsgv4bk4/rMlF3Mqd5gGup6vP5+N0NH8R3rqJQPgSC6fgTnzE/HDnq1iZw3grQfffDBB7+O3fNY+YZXz0JACAgBIVBJBETQK4m2xhICQkAIuAwBEXRXGexcaDsXkpme7kN89nsI86nz9XYId937QbjrfhDk05DRkMshd5lm3RuvecZ9SDdIvIvvopBfuQot9yh7GlR9AJLMeY6sA8kAiZCbEBju1nXr1tGeKkJACAgBIeARBETQPWJITUMICAEhUA4ERNDLgWpZ+zwFvT8I2a3IUWagnZmgs5ujIbdCGDG+u/IcvoxCXilybDXrjEBffMRz/3x4wp30dFnes2fPych0YFWcAWEvBISAEBACDkFABN0hhpAaQkAICAEnIiCC7kSr5NSpFjXoln4+hDvlhRS2mdtFg0vxeRQyKEeHM1P1zK7yheigursQ4BqND0Yug/Q0gcLjCnwQwwciynmuq0UICAEh4DEERNA9ZlBNRwgIASFgJQIi6FaiWfG+BqaI3DH4n27swyHckaULfDNkC6QewgBzzKX+FGRFDi3p8h6F8Gx7d6UxVe/HFZ+1dwYci6k8A8l8IEIPiW+m7Oed2WomQkAICAEhkERABF0XghAQAkJACHSJgAi6Lo4uEBiTIuCn50CI0eSjkN8KyYIQoOfDs5AjIebAf3Rp52crIImCelRlISAEhIAQcAUCIuiuMJOUFAJCQAjYg4AIuj24u2hUBjAjAWfe9e7Kk6l6r7tobnapyrUZg/XdAOljUoKE/GIIU9w12aWcxhUCQkAICIHyIiCCXl581bsQEAJCwNUIiKA7ynwMEkZX9bkprZg+7ScO0ZAu71EIXeC7Kz9P1dvsEL2dqAYj6zNl3jCIeZ32V7w/G7LRiUpLJyEgBISAELAGARF0a3BUL0JACAgBTyIggu4os9ZAG0b05tlkFu6i3gG5ziFa8qx0FMJgct2VTal6dzpEbyepwYcwPA7wBYg5wN8OvGcqvDcgynnuJItJFyEgBISAxQiIoFsMqLoTAkJACAgBIVAGBCLok7vUN0HS6bYYzXsJZEIZxiulS6Zji0JOyNHJ4lS9P5UymMfafgnzuR/S3zQvurbT3Z3eEsp57jGDazpCQAgIgUwERNB1TQgBISAEhIAQcDYCvFd/ErIQYnYhb8N7RvSe7lD1z0kR8E/k0G9eqt6bDp1HpdQagIGYQ554mXOeM9DecZA1lVJE4wgBISAEhIB9CIig24e9RhYCQkAICAEhkA8C1ajEXebPZlSmq/g4yIp8OrGxzrUpAm6ORp5NnVvw4fUQPwZA43qMO+SXQMw5z+nOfhLkRUirjTbU0EJACAgBIVAhBETQKwS0hhECQkAICAEhUAQCzFn+P5BfQvg6XUjWvgdhnnE3pNvaE3pGIRfkwGBVqt7sIrBycxMeC/gzhLnrzeUBvPkWhDnrVYSAEBACQsAHCIig+8DImqIQEAJCQAi4EgHeowdDmJpsqGkGPHu+FMJ82G7bbT4aOkchk3NYhMHwWI+Ry71eGAzuBQhJunKee93amp8QEAJCIAcCIui6RISAEBACQkAIOBMBEjemJbsIYr5fN+L9sZBXnal2XlqdnyLgI3LUZs5vEvX38+rVfZVo169DfgjJzHnO2AK/grjtIYz7rCCNhYAQEAIOQkAE3UHGkCpCQAgIASEgBFIIMEjYURDuIJt3VRkYbibkcgh30t1c6LIfheSTJo71eD7da0U5z71mUc1HCAgBIVAiAiLoJQKo5kJACAgBISAEyoAAo7XPhxxo6ptnzT+AMDAcA8R5peyHiZCAfyXHhN5L1XvYIxNXznOPGFLTEAJCQAhYiYAIupVoqi8hIASEgBAQAqUjwJznV0GY+9qcbqsZ76dAflP6EI7sgXnTSdR5Fru78nyq3suOnEX+Sp2JqgyGl5nznJ4Ct0F25N+VagoBISAEhIBXEBBB94olNQ8hIASEgBDwAgJd5Txnuq2/QE6D0M3dy+XSFAEflGOSs1L1VrsQDOU8d6HRpLIQEAJCoBIIiKBXAmWNIQSEgBAQAkIgPwS6y3k+AV3QzdsPhS7+UcgVOSbLAGqsd6uLQOHa63YIg/8p57mLDCdVhYAQEAKVQEAEvRIoawwhIASEgBAQArkRYNA0nsN+EJKZ8/xafEa3ZzfkPM890/xrjEkR8NNzNHkzVW9e/l3bVrOrnOf3QyPmPN9qm2YaWAj8//buBEyyqrwbeFf3LN0gDKioDIiIuKIgDEhwiRi3RJOYxGA0KgKyDAiKW4h7m6jBJWocZZlpYKKJn3ESYz634BLHhYisBoNG/OKCLKIijDBMd0931/eeoRuKppfq6qquc+/91fOcp6uq7/Ke37nK/PsuhwABAl0XENC7PgQKIECAAAECO6ZRK9uc5+0c1nRp/2C0g+bZ6Gcml0tzx+f4Ss8X+Go0c57nODpqIkCAQAYCAnoGg6AEAgQIEKi8QJrzfF20E6KVbc7zdg5uOsOcgnrjnOEzbT/NH5+Wu7WdO2/Dtl46Oc6rGraVroo4PtrHo5nzvA3INkGAAIEiCwjoRR49tRMgQIBAGQTmmvP87Ojg6dGKPud5O8fp/pPh+xXzbDRNRZdC+ofaufNFbiv94SD9EWagYTtprvsXRPv1IrdtdQIECBAogYCAXoJB1AUCBAgQKLRAleY8b+dAPWEygP/ePBu9fHK5z4PWw4AAACAASURBVLZz5y1u6w9jvfOj3S9aOnN+c7RnRbsqWnpSv1eTAscff/xPYtGHTC7+laGhoWc0ueo9FovtbIwvXjb55Uhsp7+V7ViHAAEC7RIQ0NslaTsECBAgQGDhAume5DOipbmvp895fnR898mFb7Jya7wwejwY7ZHz9Dw9QC4tlx4o181Xmv98ap7zV8b7r0fb3s2CirhvAb2Io6ZmAgSaERDQm1GyDAECBAgQaL+AOc/ba/rGyQCe/ugx1ytNyZaCuvu92+u/pFsT0JeU284IEFhCAQF9CbHtigABAgQINAiY87z9h8ODJ8P3cfNs+sbJ5da3vwRbXAoBAX0plO2DAIFuCAjo3VC3TwIECBCousCyAEhznqf7kRvnPB+Nz+lM8PujVW3O83YeE0+dDOBHzrPRiyaX+/Iidr4m1v39aEdE2z9ami4vPQQunaG/LdpPo30/2n9GuzDatYvYl1UnBQR0hwIBAmUVENDLOrL6RYAAAQK5CkzNeX5lFPighiLTk9q/E+1Jk+Eu1/qLVNexUexgtH3mKfpj8ft0z/9CXk+Phc+MduhCVoplN0f7i2iXLnA9izcICOgOBwIEyiogoJd1ZPWLAAECBHIVWNHb2/uRiYmJl0eB5jzv/CilKxRSSH/zPLt6W/z+r5ooZ9dYJgX69ET2Vl7pyojHRuv2w+paqT2bdQT0bIZCIQQItFlAQG8zqM0RIECAAIE5BHr33HPPJ2/duvUr27ZtW7Z9+10P7x6Ldc6K9upo5jzvzCH08NjsYLR0a8FMr3Rf+up5dr1X/P7z0Q6cttyW+JwuX0+Xyl8f7VfR0mXue0Q7OFq65P6J0dK/uz4V7fmd6WJ1tiqgV2es9ZRA1QQE9KqNuP4SIECAQNcEDjjggPuMjIx8K8L5Y4eHh3viZ098ro+Pj6f7lA+JdkvXiqvOjp8dXR2M9lvTuvzF+Jx+N9srBe50WfoBDQtsi/d/Gy09Gf72eQhT+E+X3H8uWrqVwWsRAgL6IvCsSoBA1gICetbDozgCBAgQKIvAmjVrlvf397/hjjvueFsE894U0CdD+sjo6OhL4rt/LktfC9KPk6PO9EC+vaP932hpPvUUuGd7nR2/WNvwy5vj/XOjfbsg/S1VmQJ6qYZTZwgQaBAQ0B0OBAgQIECg8wK15z//+Y+8/fbbL40gfp+ps+fxczzOoP/7tdde+7woYbzzZdjDDAL3j+/SJelzvQ6PX17csEC6NyE9tf1yot0RENC7426vBAh0XkBA77yxPRAgQIBAxQVOO+20lbfeeutnI5w/oyGcpzPot9x2222HXnPNNT+qOFHu3d8UBf5pQ5HpzPvf5F50mesT0Ms8uvpGoNoCAnq1x1/vCRAgQKDDAkceeeSyhz/84S+p1+tDca9539Sl7fFzNNpffvWrX/1glGDO8w6PwyI2/+BY98fRpuarT2fb03dpnnOvFgWOOuqogV133XVg+fLlA/GwxPSzP/73MbBs2bL08/urV6/+9eDg4KwPTJwW0Fus4l6rjQwNDfW3a2O2Q4AAgVYEBPRW1KxDgAABAgSaE6idcsopD4x7zO+a8zyCes/Y2NhEnE3/zi9+8Ysnbd68WdBrzrJbSx0XOz6vYedp7vM3dKuYTu13//3333XlypU77bzzzgO77LLLjpYC9IoVKwZqtdpAHLcDMTXgQF9fX3+870/fRS0pzO6Ufje1zNTPyd+lZaa3VfFdbxP9OC9C+1+cffbZMz44UUBvQtAiBAgUUkBAL+SwKZoAAQIEiiAQZwlX7LbbbmdHgElP777rv7kRYrbFWcPf2bhxY+N9zUXoUhVr3BidfllDx9OUaV/vIEQ6Uz9TsE1heKbvp4Jy4+/mWnb6NuLZhf19EcZ7ptqqVavueh8BvSeO19m628l/R94eAf2gCOjp6oV7XWEioHfwCLRpAgS6KtDJ/2PtasfsnAABAgQIdFMgLs/tvfHGG58cl+t+JepY1lDLWG9v74fjEt7XznUJbzdrt+97CFwdnx4z+U16OFw6AzzX095b5TslVjw1Wpqvfepy+oVsq+V/00VA74kz5jtCeWM4T+/nCegLqW/By8bZ+mfFH7c2r1+/Prnf4zUtoF8cy52w4B3ECvHHh3fEj/SQxvRyiXsriNYhQKCtAi3/n3lbq7AxAgQIECBQMoG4tP0+cWn7t6Jbj23oWjoT+KOBgYFD1q1b95uSdbms3Un3nN9vsnPpbO5+HejoE2Kbaaq3B3Zg2/NuMi5tv+uM+fSQnn43xxn0ebfd6gKxz3QG/eCzzjrrf2Mb851B/0rcO/6MVvYVQX9jrDd1hYSA3gqidQgQaKuAgN5WThsjQIAAAQI9PSeeeOLyuF83Pen7rdEa77cdibPnz48zgp/jVAiB9O+kdPZ26ox2mlbt0A5UflRsM82zPvWHgA7sYvZNphA+2xn0Dgf026KqO+Ls97Z020e8Tz/T5zTl4PlR06YPfOADM16t4CnuS3qI2BkBAksoIKAvIbZdESBAgED5BSJcpAfDPS4eBJcuu033+069xiN8fDqmW/uzTZs2mfO8GIfCfaLMFCKnXpvjzdM6UPo+sc10tcXqDmx73k3GZexjceZ8W1zSvm3y53D6GQF5W1ztsSM8T4Xoxp+x4eH4g1MK0MPp+/Q+/jC142f6HJeo7/gcT2af+jwct3xsi5kNtr3gBS+Y9QntkwXPObOBgD7vsFqAAIGCCgjoBR04ZRMgQIBAngLHHHNMfwSSC6O6355W4a8iuKyJs+fX5lm5qmYQWB7fjTZ8n0L0Ezsk9erY7kujpVsixqLtOKM8T0szADQuM/1zM79Lf4BoZZq/VtZpG52A3jZKGyJAIDMBAT2zAVEOAQIECBRXYHLO86Pj7OGG6EXjpe2jcRbyLzZs2PChFsNQcVGKX3kKvSsnu/GD+PmoDnap1X+XdTUsd9Bj1k0L6N1Qt08CBJZCoNX/ECxFbfZBgAABAgSKJFBbu3bt6riE94oI6A9oKDxdyvvtvffe+8h4anvj2dgi9a3KtV4TnU9PVk+vkWg7RZvv8uwqey1J3wX0JWG2EwIEuiAgoHcB3S4JECBAoHwCac7zuG/33DhTnp4I3fjf161xyftTzjnnnCvL1+tK9Oiz0cvnNvT04Hj/nUr0PONOCugZD47SCBBYlICAvig+KxMgQIAAgZ6eNOf5dddd9/Sw+Hy0e8x5HoH9Q3vttdfrzXle2CPlTVF5mit76nVGvHlPYXtTksIF9JIMpG4QIHAvAQHdQUGAAAECBBYpENOqrYqnVX87NvPIhk2Z83yRrpmsfnjUcXFDLd+L9+lBbpW77zuT8dhRhoCe02iohQCBdgoI6O3UtC0CBAgQqJxAmvM87jl/cwT0t8TZ8sb/rprzvDxHww+jK/s3dOdF8f4T5ele8XoioBdvzFRMgEBzAgJ6c06WIkCAAAEC9xKYZ87zT8Wc5y8y53kpDpxXRS8+2NCTX8b7g6LdWIreFbATAnoBB03JBAg0JSCgN8VkIQIECBAgcG+BueY8X7FixSFnnXXWz7iVQmBF9OJ/oj20oTdXx/tnRbuhFD0sWCcE9IINmHIJEGhaQEBvmsqCBAgQIEDgboE05/kjHvGIY+LS9nPj23vMed7b2/v69evXr4vv3adcnoPmiOjK16M1PgTwF/H5tdE+Hq2Zqdd2j+XSnOo/Lw9Ld3oioHfH3V4JEOi8gIDeeWN7IECAAIHyCeyY83xsbCxNnbZHQ/fMeV6+sW7s0Uviw8ZofdO6eW18/nS0y6Kl97dHS2fdV0VLZ90fF+0p0Q6I9spoHy43k94RIECAQKsCAnqrctYjQIAAgcoKpDnPV61atT4Ajo5mzvNqHQl/GN29INp9W+z2aQJ6i3JWI0CAQAUEBPQKDLIuEiBAgED7BOaY83x7PMT972LO8zPMed4+70y3tDrqemu0Y6OlM+ULeaV1Ni5kBcsSIECAQHUEBPTqjLWeEiBAgEAbBMx53gbE8mziftGVdEb9adHSZex7R9s1WroEfiTalmjXRUsPmEtzqX8+2k/K0309IUCAAIF2Cwjo7Ra1PQIECBAorUCa8zweCvemmF7trdPnPI/vjjrvvPM+U9rO6xgBAgQIECDQcQEBvePEdkCAAAECZRGIgH7/8fHxH0Y4362hT+Px+ZMx5/lLzXlelpHWDwIECBAg0B0BAb077vZKgAABAsUTqJ100kn7R0D/QZQ+9d/PNI3ar2LO8zXmPC/egLap4vSwwBdFuzHaGdH+tU3btRkCBAgQqKCAgF7BQddlAgQIEGhN4Jhjjulfvnz5J+Jy9udNbiHdZ3zs0NDQJ+KnOc9bYy3yWu+O4v+ioQNb4316gNxvitwptRMgQIBA9wQE9O7Z2zMBAgQIFFDglFNOuc/27dvfGCH9kN7e3nOuueaaz27evHmsgF1R8uIFNscmnjptM78Tn7+6+E3bAgECBAhUUUBAr+Ko6zMBAgQILEogPSxudHS0b+vWrdvdd74oyqKvLKAXfQTVT4AAgcwEBPTMBkQ5BAgQINA+gRNOOOGYONN9wdQW4wnsTzn//PO/udA9rF27dt+xsbEfN6z3hris/cyFbsfypRMQ0Es3pDpEgACB7goI6N31t3cCBAgQ6KCAgN5BXJtOAgK644AAAQIE2iogoLeV08YIECBAICcBAT2n0ShlLQJ6KYdVpwgQINA9AQG9e/b2TIAAAQIdFhDQOwxs8wK6Y4AAAQIE2iogoLeV08YIECBAICcBAT2n0ShlLQJ6KYdVpwgQINA9AQG9e/b2TIAAAQIdFhDQOwxs8wK6Y4AAAQIE2iogoLeV08YIECBAICcBAT2n0ShlLQJ6KYdVpwgQINA9AQG9e/b2TIAAAQIdFhDQOwxs8wK6Y4AAAQIE2iogoLeV08YIECBAICcBAT2n0ShlLQJ6KYdVpwgQINA9AQG9e/b2TIAAAQIdFhDQOwxs8wK6Y4AAAQIE2iogoLeV08YIECBAICcBAT2n0ShlLQJ6KYdVpwgQINA9AQG9e/b2TIAAAQIdFhDQOwxs8wK6Y4AAAQIE2iogoLeV08YIECBAICeB6QG9jbW9YWho6Mw2bs+miikgoBdz3FRNgACBbAUE9GyHRmEECBAgsFgBAX2xgtafR0BAd4gQIECAQFsFBPS2ctoYAQIECOQkIKDnNBqlrEVAL+Ww6hQBAgS6JyCgd8/engkQIECgwwLTA3q9Xj86dnnlQncb663u7e29sGE9l7gvFLGcywvo5RxXvSJAgEDXBAT0rtHbMQECBAh0WsBD4jotXPntC+iVPwQAECBAoL0CAnp7PW2NAAECBDISENAzGoxyliKgl3Nc9YoAAQJdExDQu0ZvxwQIECDQaQEBvdPCld++gF75QwAAAQIE2isgoLfX09YIECBAICMBAT2jwShnKQJ6OcdVrwgQINA1AQG9a/R2TIAAAQKdFhDQOy1c+e0L6JU/BAAQIECgvQICens9bY0AAQIEMhIQ0DMajHKWIqCXc1z1igABAl0TENC7Rm/HBAgQINBpAQG908KV376AXvlDAAABAgTaKyCgt9fT1ggQIEAgIwEBPaPBKGcpAno5x1WvCBAg0DUBAb1r9HZMgAABAp0WENA7LVz57QvolT8EABAgQKC9AgJ6ez1tjQABAgQyEhDQMxqMcpYioJdzXPWKAAECXRMQ0LtGb8cECBAg0GkBAb3TwpXfvoBe+UMAAAECBNorIKC319PWCBAgQCAjAQE9o8EoZykCejnHVa8IECDQNQEBvWv0dkyAAAECnRYQ0DstXPntC+iVPwQAECBAoL0CAnp7PW2NAAECBAgQqI6AgF6dsdZTAgQILImAgL4kzHZCgAABAgQIlFBAQC/hoOoSAQIEuikgoHdT374JECBAgACBIgsI6EUePbUTIEAgQwEBPcNBURIBAgQIECBQCAEBvRDDtPRFrl27dt+xsbEfT+25Vqu9ZcOGDe9opZLjjz/+J7HeQybXvXBoaOh3W9mOdQgQKIaAgF6McVIlAQIECBAgkJ+AgJ7fmGRRkYCexTAogkAhBQT0Qg6bogkQIECAAIEMBAT0DAYhxxIE9BxHRU0EiiEgoBdjnFRJgAABAgQI5CcgoOc3JllUJKBnMQyKIFBIAQG9kMOmaAIECBAgQCADAQE9g0HIsQQBPcdRUROBYggI6MUYJ1USIECAAAEC+QkI6PmNSRYVCehZDIMiCBRSQEAv5LApmgABAgQIEMhAQEDPYBByLEFAz3FU1ESgGAICejHGSZUECBAgQIBAfgICen5jkkVFAnoWw6AIAoUUENALOWyKJkCAAAECBDIQENAzGIQcSxDQcxwVNREohoCAXoxxUiUBAgQIECCQn4CAnt+YZFGRgJ7FMCiCQCEFBPRCDpuiCRAgQIAAgQwEBPQMBiHHEgT0HEdFTQSKISCgF2OcVEmAAAECBAjkJyCg5zcmWVQkoGcxDIogUEgBAb2Qw6ZoAgQIECBAIAMBAT2DQcixhOkBvY01Xjg0NPS7bdyeTREgkJmAgJ7ZgCiHAAECBAgQKIyAgF6YoVraQgX0pfW2NwJlEhDQyzSa+kKAAAECBAgspYCAvpTaBdqXgF6gwVIqgcwEBPTMBkQ5BAgQIECAQGEEBPTCDNXSFjpDQF9Xr9fXt1JFrVa7MNZbPbmuS9xbQbQOgQIJCOgFGiylEiBAgAABAlkJCOhZDUc+xXhIXD5joRICRRMQ0Is2YuolQIAAAQIEchEQ0HMZiczqENAzGxDlECiQgIBeoMFSKgECBAgQIJCVgICe1XDkU4yAns9YqIRA0QQE9KKNmHoJECBAgACBXAQE9FxGIrM6BPTMBkQ5BAokIKAXaLCUSoAAAQIECGQlIKBnNRz5FCOg5zMWKiFQNAEBvWgjpl4CBAgQIEAgFwEBPZeRyKwOAT2zAVEOgQIJCOgFGiylEiBAgAABAlkJCOhZDUc+xQjo+YyFSggUTUBAL9qIqZcAAQIECBDIRUBAz2UkMqtDQM9sQJRDoEACAnqBBkupBAgQIECAQFYCAnpWw5FPMQJ6PmOhEgJFExDQizZi6iVAgAABAgRyERDQcxmJzOoQ0DMbEOUQKJCAgF6gwVIqAQIECBAgkJWAgJ7VcORTjICez1iohEDRBAT0oo2YegkQIECAAIFcBAT0XEYiszoE9MwGRDkECiQgoBdosJRKgAABAgQIZCUgoGc1HPkUI6DnMxYqIVA0AQG9aCOmXgIECBAgQCAXAQE9l5FQBwECBEoiIKCXZCB1gwABAgQIEFhygY2xx5dN2+t+8fnHS16JHeYgUHvta197vy1btjwvirlmaGjoGzkUpQYCBIolIKAXa7xUS4AAAQIECOQjcGCU8pVo958saX38PCmf8lSylAKnnXbaym3btm2Kff5OtO3RLq/X6y8477zzfr2UddgXAQLFFhDQiz1+qidAgAABAgS6K5DC+ZHRboj2n90txd67JXDkkUcu23///Y+L/X842vLJOoZ7e3vfsX79+nd2qy77JUCgeAICevHGTMUECBAgQIAAAQL5CNROPPHEB09MTFweJU1dTZGq216r1d69YcOGt+RTqkoIEMhdQEDPfYTUR4AAAQIECBAgkK3AUUcdtWLVqlUbosCXRmv8t/VwX1/fmnPPPfd72RavMAIEshMQ0LMbEgURIECAAAECBAgUQWBwcLD3+uuvf3bca/7pqHdFQ81jcfb8/XvttdcbYpmJIvRFjQQI5CEgoOcxDqogQIAAAQIEiimwJsr+/WhHRNs/2gOjDUQbjnZbtJ9G+360dH/6hdGuLWY3VT2TwOmnn77b7bff/u343SOmfh9hvR7h/JqxsbHf2rhx463kCBAgsBABAX0hWpYlQIAAAQIECNwp8PRoZ0Y7dIEgm2P5v4h26QLXs3hmAnHf+fK47/xtUdYbovU2lDcS3//x+eef/4XMSlYOAQIFEBDQCzBISiRAgAABAgSyEdg1KvlYtD9ssaJ6rPfYaO5LbhEwh9XSSfKTTz758XGWPM11vnNDTePx/pN777330XFp+1gOtaqBAIFiCQjoxRov1RIgQIBAyQSOP/74jdGll012a3xoaGhZK1084YQTjonQcEHDukfEti5uZVvWmVVgr/jN56Ol+c8bX1viQ7p8/cvRro/2q2jpMvc9oh0c7anRnhgt/bvrU9Gez7jYAhG++3/2s599KS5lf3JDT9IfX36xYsWKw84666yfFbuHqidAoFsCAnq35O2XAAECBAiEgIBemMMgBe50WfoBDRVvi/d/G+3d0W6fpyer4/fHRvtctO8UptcKvZdAmvP84Q9/+PHxi3XxR7HGP6htj+9eHdOqnRXBPYV1LwIECCxYQEBfMJkVCBAgQIBA+wQE9PZZdnhLZ8f21zbs4+Z4/9xo6QFhXtUR2DHn+fj4+GURwtMVElOvifj8n/39/c9Yt27dSHU49JQAgXYLCOjtFrU9AgQIECCwAAEBfQFY3Vv08Nh14+0C6Uxpemr75d0ryZ67ITA55/l5se8XR2v8d/TWZcuWPeWcc865sht12ScBAuURENDLM5Z6QoAAAQIFFBDQCzFom6LKP22o9I3x/m8KUbki2yYw15znsZP3bdmy5c2bNm1KD4nzIkCAQMsCAnrLdFYkQIAAAQKLFxDQF2/Y4S08OLb/42h9k/tJD4BL36V5zr0qJGDO8woNtq4S6KKAgN5FfLsmQIAAAQICevbHwHFRYbqkeeqV5j5P8157VUggzXkeD4R7e7QzotvmPK/Q2OsqgaUWENCXWtz+CBAgQIBAg4CAnv3hsDEqnJoGLxWbpkz7evZVK7BtAnPNeR4PhvvEXnvtdYw5z9vGbUMEKi8goFf+EABAgAABAt0UENAXpJ/+3TL1b5ep9618blwnTYc1Gi1NmTbT6+r48jGTv0gPh1s1x7IL6oyFiyEw15znAwMDh8ZT268rRk9USYBAEQQE9CKMkhoJECBAoLQCBQ/otQgvtauvvrr2y1/+shbzQ/fccMMNtVtuuaX2oAc9aMe/MW677bba1q1ba7vvvvuOz9u2basNDw/X0nJjY2O1m2++uSdaLZ2lvPXWW9MijcF7evjuj9+n+chXRkvvpz5PvZ/ru8Zl0jamPt8W778a7cPRZpoeK91zfr/JAzDdi75faQ9GHbuXQJrzfP/99z8hzpR/aNqc5+mPOqfHnOfnmPPcgUOAQDsFBPR2atoWAQIECBBYoEC3Anq6pzZKXR5TQ/WmwJzK3nnnnWsjIyO10dHRHZ/j7OCO99u3b6/tsssuPelnaitXrqzdcccdy2PO5/4ILf2xjf6YF3ogve/r6+uP4L3jZ/oc3/f39vbuCMPxeWBiYqL/N7/5TX+E8f4I7wPx5Ov+1OL9yttvv70xOE8P2ymUd+rfLenM+Iui/cu04Uv7S7+bekBcmlbt0AUOscWLK2DO8+KOncoJFFagU/+hKyyIwgkQIECAwFIKdCOgn3LKKfeJoH1knPk7IkLzrimLpzAdn6eC9I4z09M/x3dTZ653atUoAnpPBPSeCOU7fja+j4De6mYXu16aGuv8aCdO29B94nM6wz712hxvnrbYnVm/GAKTc55fENWmP96Y87wYw6ZKAoUXENALP4Q6QIAAAQJFFpgW0NvZlSOGhoYunr7BCB19u+2222AE8je3c2fNbiv2O2M4T0E9zqI3u5l2L5cC+keivWrahtNVBulS5qnXt+LNE9u9c9vLT2CuOc/jGH5vHK9vMed5fuOmIgJlEBDQyzCK+kCAAAEChRXoQkBfsWrVqu8G2CO6gZYC+mxn0JsM6Omhbo0tdWMhn9Oy09dJIfx50b49g0ma7zxdOZBeP4j2qG642efSCsw153ncsnH4+vXrtyxtRfZGgEBVBAT0qoy0fhIgQIBAlgJLHdAn53P+RgTlw9sAMlcwnikI98R+6xHQp1pP3Itej2B+1+cmwnY6zZ5Cc2rpyetT79MD3ho/T/994zpp2anP6eeN0dID4GZ6XRNfPnzyF2m9dHn/RBvsbCJTgcn/jfx1HKqvjxLNeZ7pOCmLQFkFBPSyjqx+ESBAgEAhBKbfgx6h4PGtFB73i6czwO9oWHfWS9zjDPorYrnBaMtjvRSa02r19DTq9Jrcxj3Cd/p+8mnVU9+PxXJTQXdb/G44Frkr9MbnbdM/p+XjHvThCOjDEcq3RRuOgL6jxf3n2+K+9MbQPNP7bgTjz0bdz21wPTjef6eVMbJOIQRqL3zhCx8fD0L8xvLly3duqHg8jumPx5znx5nzvBDjqEgChRUQ0As7dAonQIAAgTIIdOMhcSlrn3zyyYfF09Z/Ky7X7UmhOSyHU8hu+HlH/G40frcjfMdT2YdjirTheLL7trPOOqtrT3Prwpi/adofPs6Iz+/pQh12uQQCxxxzTP9NN930pTjOnxyTFPSkFv87SH+U+oU5z5dgAOyCAIGOTVeClgABAgQIEGhCoBsBvYmyLHK3QLoVoPFhe9+Lz4+NNnWlAauSCKQ5z+NKjpMilH8w2rII5DsCevwcjbPpr4yHLq4353lJBls3CGQs4Ax6xoOjNAIECBAov4CAXogx/mFUuX9DpWnarU+0sfIDY1sfipauTNgY7Z/buG2bak6gtt9++z142bJll0Ug32Pq7PlOO+00Ee//c++9937GunXr0i0dXgQIEOiogIDeUV4bJ0CAAAECcwsI6IU4QtL0ax9sqPSX8f6gaOnhcot9PT028OVpG/lMfB6MdsViN279pgVW7L777n8fYfzPotWmzp7HvehbY1rCp3zhC1+4suktWZAAAQKLEBDQF4FnVQIECBAgsFgBAX2xgkuy/orYy/9Ee2jD3q6O98+KdsMiK0j3s6enhc/0+rv4cjDarYvch9XnFkhPan92PGfh0xHOVzRc2j4W79/9yEc+8m3mPHcIESCwVAIC+lJJ2w8BAgQIEJhBOkzyTAAAIABJREFUQEAvzGFxRFT69WjLGir+Rbx/bbSPR2vmCfO7x3JpTvWfN2zjmHh/wRwKt0yG9HQJvFdnBHaLzX472iPSrAZxv3m677we7Zq4xP3wH/3oR+Y874y7rRIgMIOAgO6wIECAAAECXRQQ0LuIv/BdvyRW2Ritb9qq18bnT0e7LFp6n+4lT2fdV0VLZ90fF+0p0Q6I9spoH562/rr4fOo85aRtD0b73MLLtsYcAsvjd++Mlv7Qctec5xHUR3bZZZc/jikBv0CPAAECSykgoC+ltn0RIECAAIFpAgJ64Q6JP4yK0xnv+7ZY+WkzBPS0qfTguRTAHzHPdj85udz3W9y/1e4WSP8Ofny0b0S7x5zn8fkfo7082hgwAgQILKWAgL6U2vZFgAABAgSmCQjohTwkVkfVb412bLR0pnwhr7TOxjlWSPOuD0ZrvJR+psXPnFzOk8UXon/PZfvj45eiPbnh6zR9Xnr4X5pe77rWN21NAgQItCYgoLfmZi0CBAgQINAWAQG9LYzd2sj9YsfpjPrToqXL2PeOtmu0dAl8Cs7p3uUU8tID5tJc6p+P9pMmin1wLDMY7bh5lk0PqEvLbWhimxa5p0D6A8jJ0d4frfGPIaPxOd1uMBTNXPeOGgIEllxAQF9ycjskQIAAAQJ3CwjoWR4NA1FV+jfScLRmHv7WqU48dTKAHznPDr45udxXOlVIybabxjY9GyD90WSPhr6lsf5qtOdGc2VCyQZddwgURUBAL8pIqZMAAQIESikgoGc3rLtERS+Ilu5J/o9oP8wgrKUz6W+Lts88Wh+dDOo/zk41r4LSk/T/KVq6+qHx38K/ic9PjJam0PMiQIBAVwQE9K6w2ykBAgQIELhTQEDP6khIlzqne8tfFy2dRU+XqP9ZtHRmutsPC0u1DUZL96jP90rLvX2+hSr6+3T7QQrmKaCnJ7hPvbbHm3dHS38I6eZVExUdFt0mQGBKQEB3LBAgQIAAAQIE7hRIc52naczSfOVTr3T5eLrkOZ1dzeGVnvI+GC099X2u148ml/tYDkVnVEN6bsAl0fZrqCnda57OmqfxT1PkeREgQKBrAgJ61+jtmAABAgQIEMhIIF3SnsL5k6I1PjTsW/H5d6PlEtCnyFJNg9HS08bnen15crmLMrLuVinpjPnfRHt1tLvmPI/36X7z50RLtzR4ESBAoKsCAnpX+e2cAAECBAgQyEAghbVXRntntJ0a6klP9E5P+v6HaOl9jq9ToqjBaI0PO5upzvWTy6UpxKr4SmN8WLT0ELh0+8LUazzepKsMTojW7dsYqjgu+kyAwDQBAd0hQYAAAQIECFRd4OEBsDnantEa/22U5sh+frTbMge6T9Q3GO2189S5bXK592Ten06Ul/7wksL5Exo2PjXn+aHxXVX/cNEJa9skQGARAgL6IvCsSoAAAQIECBReID3Re2O0P4m2oqE3t8b7p0f7r2jpLGsRXgdGkYPR/nieYtP91mm5fy5Cp9pQY7pl4RXR/jZaekjc1CtdFZGuQDg/mjnP2wBtEwQILF5AQF+8oS0QIECAAAECxRRI/w5KYfbvo6Wz0FOvFMjT5e5nRktnnYv2+qMoeDDaQfMU/pnJ5a4oWgcXUO/UnOeXxjr3bVjPnOcLQLQoAQJLJyCgL521PREgQIAAAQJ5CaT7tr8eLT0ZvfGhYems+TOj/TKvchdczWsmA3ia232u199NLpeuGijby5znZRtR/SFQcgEBveQDrHsECBAgQIDAjALpsud0hjxd+tzfsEQ6Y57Oqucw93k7hu7+k+E79XOu1y2Ty32oHTvNZBvpcvZ0NcH/iTZ9zvP0NPc0V7w5zzMZLGUQIHCngIDuSCBAgAABAgSqKDDTnOcprF0Q7VXRtpYMJU3HNhgtTc821+vyyeU+W4L+m/O8BIOoCwSqJiCgV23E9ZcAAQIECBBI95t/IVoK6Y0PDftZfP7taD+NVtaHhr1oMoCny/rnem2aXO57BT1c0hnzd0dLf2wx53lBB1HZBKooIKBXcdT1mQABAgQIVFcghbXTo/11tOlznp8a33002kgFeN40GcDTpf5zvVLIHYw2XCCTueY8Tw8EPCmaOc8LNKBKJVAlAQG9SqOtrwQIECBAgEDR5zxv5wg+eDJ8HzfPRtMc4Smkr2/nzju4LXOedxDXpgkQ6KyAgN5ZX1snQIAAAQIE8hFIT/ROZ8jTQ+AaHxpWxDnP26n61MkAfuQ8G71ocrkvt3Pnbd5WuiIgXQnxvmjT5zw/Ob5Lzxgo6+0Lbaa0OQIEuiEgoHdD3T4JECBAgACBpRaYa87zdLn7e6IVcc7zdjoeOxnA95lno+mPHIPRftzOnbdhW2mM94yWpslLT6+feqWH/6U/KvxBtNE27McmCBAg0DEBAb1jtDZMgAABAgQIZCTwgKjla9HKOud5u6jTWefBaG9uYoNpuTRVWS6vVPuLo22M1vhv3HT//KHRrs6lUHUQIEBgNgEB3bFBgAABAgQIlF0gXfaczpCnS5zLPOd5O8cx3aufAvifz7PRH00u97F27rzFbaWHw/1OtC81rL893v9VtHdFM+f5AmCPP/74n8TiD5lc5StDQ0PPWMDqdy0a29kYH142+cVIbKfxf4OtbNI6BEotIKCXenh1jgABAgQIEAiB2eY8Py9+9+poZZvzvJ2D/uzY2GC035pno+kS8rRcuk+9m6+ByTF9Z/xMT2pPT21P96QX6Sn03fS7a98CehbDoIgKCgjoFRx0XSZAgAABAhUSqPKc5+0c5nT1QQrg6VaBuV7pSe9pufTk92690lPcHx0tXTnx39H8AaaFkRDQW0CzCoE2CAjobUC0CQIECBAgQCBLgXTJczpDni5xnj7n+SnxXbos20PDmh+69MeOFL5fO88q6Wx1Wi7Nod6tVxr79O/c8W4VUPT9CuhFH0H1F1VAQC/qyKmbAAECBAgQmE/AnOfzCbX2+wMnA3iarm6u1/cml9vU2m7uWis9VT7t68nR0pnxvaKlPxakS9hvi/bzaN+Pdnm0L0ZLT3E3ldoi0QX0RQJanUCLAgJ6i3BWI0CAAAECBLIWSHOepzPkfxTNnOedGapkOxjtoHk2/9nJ5VKAXsgr/YEl3Uv+p9EW8m/Wa2L5dNXEPy5kZ5a9p4CA7ogg0B2BhfyfXXcqtFcCBAgQIECAwMIEan19fX88Pj6eHhCWzrROvdLlzim4vTda1ec8X5jo3Eu/Jn49GG2XeTb6mPh9OtM93yv9+zSN019GS/eRt/JaGyud28qK1rlTQEB3JBDojoCA3h13eyVAgAABAgQ6JPCwhz3sAT//+c+/tm3btkdMTEyke5GnXunS52dG+2WHdl3lzd4/Oj8Y7RVzIHw3fpcuj5/rtSJ+uTHai6YtlKZL+3q0z0f732g3RUvznu8e7bHRnjg5tmkKr/SAuodGG6nygCy27wL6YgWtT6A1AQG9NTdrESBAgAABAhkKrFmzZvnNN9/83gjna4eHh1fGz57t27f31Ov1O6LcP4n2lWjp3mWvzgg8ITY7GO33Ztj8dfHdg+fZ7fnx+2OnLfPx+PzGaD+dZ92d4/cviJaujvhEZ7pXna0K6NUZaz3NS0BAz2s8VEOAAAECBAgsQuApT3nKU2+99dZPRzjfLYXz+JnaRLwfikve06XYptxahO8CVn3hZFB/ZMM66ZL1uZ7s/mfTgvVEfE7Tu6Wp27yWWEBAX2JwuyMwKSCgOxQIECBAgACBUgi8+MUv3jUubf9ShPE1Ecr7UjifDOk/izPovx2/S2dgPd17aUf7pNhdeojcp6J9eY5dp2nwro12v4ZlXhnv1y1tufY2JSCgOxYIdEdAQO+Ou70SIECAAAECbRQ46qij+lauXPma22+/fTCC+U4N4Xwk3p+8bNmyf7z66qvNed5G8zZvKt27/uGGbabp0p7d5n3Y3AIEBPQFYFmUQBsFBPQ2YtoUAQIECBAg0B2BY4899jHx5Pb/GBkZeUAE8trkpe31OIP++Th7/qKLLroozZftla9AmhotTas29Tos3lyWb7nlr2xaQG9Xh0eGhobSg/y8CBCYRUBAd2gQIECAAAEChRY45phj+uMM+SejE78bbXnca94TQT3de35zvH/awQcffPXg4GC6n9krT4H9oqz0ZPap18Xx5og8S+1MVa973et2jj8m9cfx2h8zD/THH5XSMd0/Ojq642d8N5C+i72ntjL9rNVqK6M1fp/WG4jvdmyjt7d3x3aipeWm1k0/d4rvrovv/i3C8rtm65GA3pmxtlUC8wkI6PMJ+T0BAgQIECCQs0DtxBNPfFEEkjTndeOc52Px9Pa3Rwh538aNG4dz7oDaeo4JgwsaHN4W79M86N14pX8b7wjADW2g4f3038223F1BOq0bt1/077rrrv2rVq3a8XOXXXYZ2G233dLP/nilud7Tfu/VIkjHIVxr/D6Z7Pgu/W6e9XYsO0sbj+9vi30f8OEPf/iGmaAF9G4cfvZJ4M7/0XoRIECAAAECBAopEOF8zwgqX4v2sOhA45znl8V3zz7vvPN+XciOVavoj0R3T2nocpqrfq4HyrWqs1usmKZhe1a0NCVbY7hO73ed3PCswbeJ30+tmxa9azvLly+vRTjf0SKg36MNDKT835XXeOT84zds2LBxpr1PC+gXx/+eTmilytjHO2K9502u6xL3VhCtUykBAb1Sw62zBAgQIECgPAIRzpfHmfO/jR6dGC2d2Zx63RGX9/7+Nddc843Nmzeb8zz/If/nKPH5DWU+JN6nJ7q389UXG9sU7enRUhi/11np+K7xDzzt3HdPBPSeCOY9EdB3/Gx8362AHsF5LNrT1q9f/82ZOushcW09BGyMQNMCAnrTVBYkQIAAAQIEchI44YQTnhr1/Fuc2VvVUFe613x93IP+uo997GPmPM9pwGav5T/iV09r+PUu8f72Npe+R2zvumgr2rzdpjYX95HPGM5TUN9ppzTD3JK/fhZ7/MKWLVtO27Rp04yzGwjoSz4mdkhgh4CA7kAgQIAAAQIECidw2mmn7RoP1fpSFL4mWjo7euc/bGq1n0R7apwVTAHEnOfFGNn0tPY0jumVxqwTZ7LT5evpXut0afuSv1JAn+0MegT01OfhOG6H449N6XkJd7X0Oa4GGY4rRXb8vvF36XP6PmYv2Bbfj0y+H44Hzd21bFomfY4z+MNjY2M7lo1tjqRtpu/WrVv3m9kwBPQlP0zskMCd/x3jQIAAAQIECBAokkCa8zwesPW6CBrpYWKNN/CORCBZe+utt358trOCRepnhWq9KPr6xIb+ptsV2j1nfXoQ2weindqkawqu9wjE8XlHEJ7h++nL3etzBOPhuLx92+677z4SQX34fve733A8OG74vve9bwrKIxHg6/HE9nr6mVpcAVKP73e02267LV0iX1+xYkWaNnDHz61bt9Zj/Xo85C39vh6Xydd33nnn+nXXXdeTfsbD5+o///nP67G/+urVq+tXX311/YADDqi/7W1vS0+da+oPVwJ6k0eKxQi0WUBAbzOozREgQIAAAQKdFZia8zz28oBoU/+WScHj83G28EXnn3++Oc87OwTt3vq/xwaf3bDRPeP9z9u9k9heOov+wGiPnfwDwEzBOoXw9Eq3SqQgOxVmp97P9TOtN+dyRx55ZH2PPfbYsc34I1Ljsh3o7uI2KaAvzs/aBFoVENBblbMeAQIECBAgsOQC0+c8nyogzqbvmPN83333Nef5ko/Kone4PrbQ+ITwJ8fndFa9E6/0b9/lkxueLUx3Yr+F26aAXrghU3BJBAT0kgykbhAgQIAAgQoI1CI0vDj6eXa0e8x5Hp/fFvfYvt+c54U8Cl4XVb+3ofJXx/sPFrInJSpaQC/RYOpKoQQE9EINl2IJECBAgEB1Bcx5Xtqxf1L0rHGqry/E5+eUtrcF6ZiAXpCBUmbpBAT00g2pDhEgQIAAgfIJpDnP4zL290dLl0Kb87xcQ5ymPvtltHSPeHqluev3jXZ9ubpZrN4I6MUaL9WWR0BAL89Y6gkBAgQIECitwGxznkdgPyeekP36mFbtjtJ2vhodG4puvryhq+fG+7XV6HqevRTQ8xwXVZVfQEAv/xjrIQECBAgQKLSAOc8LPXzNFv/4WPCKaHc9lT/epye7p7nuvbogIKB3Ad0uCTT8nyAMAgQIECBAgEB2ApNznv9FnCl/SxR3jznP4/OJW7Zs+YQ5z7MbtlYL+sdY8c8bVk7T5aV70RvvT29129ZboICAvkAwixNok4Az6G2CtBkCBAgQIECg/QLmPG+/acZbvG/U9p1oD26ocXu8f1e090W7vYna0/MJ9or2oyaWtcgcAgK6w4NAdwQE9O642ysBAgQIECAwj0CcPR9YtWrVP8Vivxttau7qHnOel/rQOTB695Vo95/Wyy3x+TPR0vzoP4yWPvdG2yXaPtEeGS09Df6waJ+N9qelVtI5AgRKKyCgl3ZodYwAAQIECBRaIM15/tJarfaRCOT3mPO8t7f3LaOjox8053mhx3eu4h8Vv/xktMe12MN/EdBblLMaAQJdFxDQuz4ECiBAgAABAgSmC5jzvPLHRH8IvCra66JNP5s+H87fxwLHzLeQ3xMgQCBHAQE9x1FREwECBAgQqLDA5JznH4wz52naLXOeV/hYiK6noP7MaOk2h4OiPSxami89fT8aLd2XfkO0/412abQvT/6stpreEyBQWAEBvbBDp3ACBAgQIFBOgdnmPI/L3c+KdoY5z8s57npFgAABAnfPNcmCAAECBAgQINB1gclp1TbH2fMjopi+qYIimP/v8uXLn3bWWWddF9/Vu16oAggQIECAQAcEnEHvAKpNEiBAgAABAq0JnHrqqauHh4evirXv17CFkXh/fMx5/klznrfmWoK1dos+pOnTromWpl7zIkCAQCkFBPRSDqtOESBAgACB4grEJe4XxRn0NF1WmlothbHPrFix4mVx9ryZebCL23GVzyZwevziNdEGol0b7WXRvhdtAhkBAgTKJiCgl21E9YcAAQIECBRcIKZXe3R04bxo+8Wl7VdFWD9uaGjo+vjs0vaCj20L5aez5pdFe9DkuuPxcyhaCu3DLWzPKgQIEMhaQEDPengUR4AAAQIEqilwxhlnrPr1r3/90B/+8If/vXnz5rFqKuh1CKRnEXwp2s4NGl+L98+NtpUQAQIEyiYgoJdtRPWHAAECBAgQIFAegSdHVy6MtlNDl74V79PUawJ6ecZZTwgQmBQQ0B0KBAgQIECAQMsCcb/4MXEJ+gVTG5iYmHjK+eef/82FbnDt2rX7jo2N/bhhvTfEZe1nLnQ7li+dgIBeuiHVIQIE5hIQ0B0fBAgQIECAQMsCAnrLdFZsTkBAb87JUgQIlERAQC/JQOoGAQIECBDohoCA3g31Su1TQK/UcOssAQICumOAAAECBAgQaFlAQG+ZzorNCQjozTlZigCBkggI6CUZSN0gQIAAAQLdEBDQu6FeqX0K6JUabp0lQEBAdwwQIECAAAECLQsI6C3TWbE5AQG9OSdLESBQEgEBvSQDqRsECBAgQKAbAgJ6N9QrtU8BvVLDrbMECAjojgECBAgQIECgZQEBvWU6KzYnIKA352QpAgRKIiCgl2QgdYMAAQIECHRDQEDvhnql9imgV2q4dZYAAQHdMUCAAAECBAi0LCCgt0xnxeYEBPTmnCxFgEBJBAT0kgykbhAgQIAAgW4ICOjdUK/UPgX0Sg23zhIgIKA7BggQIECAAIGWBQT0lums2JyAgN6ck6UIECiJgIBekoHUDQIECBAg0A2B6QG9jTW8YWho6Mw2bs+miikgoBdz3FRNgECLAgJ6i3BWI0CAAAECBHp6BHRHQYcFBPQOA9s8AQJ5CQjoeY2HaggQIECAQKEEBPRCDVcRixXQizhqaiZAoGUBAb1lOisSIECAAAEC0wN6vV4/OlSuXKhMrLe6t7f3wob1XOK+UMRyLi+gl3Nc9YoAgVkEBHSHBgECBAgQINCygIfEtUxnxeYEBPTmnCxFgEBJBAT0kgykbhAgQIAAgW4ICOjdUK/UPgX0Sg23zhIgIKA7BggQIECAAIGWBQT0lums2JyAgN6ck6UIECiJgIBekoHUDQIECBAg0A0BAb0b6pXap4BeqeHWWQIEBHTHAAECBAgQINCygIDeMp0VmxMQ0JtzshQBAiURENBLMpC6QYAAAQIEuiEgoHdDvVL7FNArNdw6S4CAgO4YIECAAAECBFoWENBbprNicwICenNOliJAoCQCAnpJBlI3CBAgQIBANwQE9G6oV2qfAnqlhltnCRAQ0B0DBAgQIECAQMsCAnrLdFZsTkBAb87JUgQIlERAQC/JQOoGAQIECBDohoCA3g31Su1TQK/UcOssAQICumOAAAECBAgQaFlAQG+ZzorNCQjozTlZigCBkggI6CUZSN0gQIAAAQLdEBDQu6FenX0ODOzx5PHx+oXR453u7nXtW6Ojvc/s6blpa3Uk9JQAgaoICOhVGWn9JECAAAECHRAQ0DuAapN3Cey++0FPnpgYu7Bevzug12q1b/X39z7zppuuEtAdKwQIlE5AQC/dkOoQAQIECBAgQKAcAnvs8Yy4xH38HmfQU0Cv1ZZFQP+igF6OYdYLAgQaBAR0hwMBAgQIECBAgECWAvvs86In1+spoNfuusQ9BfSRkeUR0D8moGc5aooiQGAxAgL6YvSsS4AAAQIECBAg0DGBRzziVXGJ+8S9AvrAwPJnXnXV+wT0jsnbMAEC3RIQ0Lslb78ECBAgQIAAAQJzChx00JnxkLjt9wrotdqKCOivF9AdPwQIlE5AQC/dkOoQAQIECBAgQKAcAmvWnBuXuKcz6Pd8ivvY2E4R0I8W0MsxzHpBgECDgIDucCBAgAABAgQIEMhSYM2a8+IhcWPTHhLXE9OsDQjoWY6YoggQWKyAgL5YQesTIECAAAECBAh0REBA7wirjRIgkLGAgJ7x4CiNAAECBAgQIFBlAQG9yqOv7wSqKSCgV3Pc9ZoAAQIECBAgkL2AgJ79ECmQAIE2CwjobQa1OQIECBAgQIAAgfYICOjtcbQVAgSKIyCgF2esVEqAAAECBAgQqJSAgF6p4dZZAgRCQEB3GBAgQIAAAQIECGQpIKBnOSyKIkCggwICegdxbZoAAQIECBAgQKB1AQG9dTtrEiBQTAEBvZjjpmoCBAgQIECAQOkFBPTSD7EOEiAwTUBAd0gQIECAAAECBAhkKSCgZzksiiJAoIMCAnoHcW2aAAECBAgQIECgdQEBvXU7axIgUEwBAb2Y46ZqAgQIECBAgEDpBQT00g+xDhIgME1AQHdIECBAgAABAgQIZCkgoGc5LIoiQKCDAgJ6B3FtmgABAgQIECBAoHUBAb11O2sSIFBMAQG9mOOmagIECBAgQIBA6QUE9NIPsQ4SIDBNQEB3SBAgQIAAAQIECGQpIKBnOSyKIkCggwICegdxbZoAAQIECBAgQKB1AQG9dTtrEiBQTAEBvZjjpmoCBAgQIECAQOkFBPTSD7EOEiAwTUBAd0gQIECAAAECBAhkKSCgZzksiiJAoIMCAnoHcW2aAAECBAgQIECgdQEBvXU7axIgUEwBAb2Y46ZqAgQIECBAgEDpBQT00g+xDhIgME1AQHdIECBAgAABAgQIZCkgoGc5LIoiQKCDAgJ6B3FtmgABAgQIECBAoHUBAb11O2sSIFBMAQG9mOOmagIECBAgQIBA6QUE9NIPsQ4SIDBNQEB3SBAgQIAAAQIECGQpIKBnOSyKIkCggwICegdxbZoAAQIECBAgQKB1AQG9dTtrEiBQTAEBvZjjpmoCBAgQIECAQOkFBPTSD7EOEiAwTUBAd0gQIECAAAECBAhkKXDIIRt+q1arf7mnp77zVIG1Ws/XR0cHnnPVVUdvzbJoRREgQGARAgL6IvCsSoAAAQIECBAg0DmBAw/86AOWL992Texh1d0BvXbufe6z/PTNm48d7tyebZkAAQLdERDQu+NurwQIECBAgAABAvMKDPYeeuier43FXlqv9+wTZ88v6+npe/1ll133Xz09gxPzrm4BAgQIFExAQC/YgCmXAAECBAgQIFAlgTVrzt0p+rvTsmW9fcuXbx/dc8/7/2bTpheMV8lAXwkQqI6AgF6dsdZTAgQIECBAgAABAgQIEMhYQEDPeHCURoAAAQIECBAgQIAAAQLVERDQqzPWekqAAAECBAgQyEbg8Y8/e9++vt4fNxZUq9WOvuyyEz/WSpFxKfz/xHqPTOvG/ervvOKKk97cynasQ4AAgW4KCOjd1LdvAgQIECBAgEBFBWYK6EFx88TE8kdfeeVxv1woi4C+UDHLEyCQo4CAnuOoqIkAAQIECBAgUHKBWQJ66vXHL7/8pBcvtPsC+kLFLE+AQI4CAnqOo6ImAgQIECBAgEDJBeYI6D1xqftz4lL3LyyEQEBfiJZlCRDIVUBAz3Vk1EWAAAECBAgQKLHAtICe5jRP/y6d+rfpT7dvHzjgqquO3tosgYDerJTlCBDIWUBAz3l01EaAAAECBAgQKKnAtIAe95zX/iUe77b27u7W/+7yy9ee3mz3BfRmpSxHgEDOAgJ6zqOjNgIECBAgQIBASQWmBfTt0c09on0v2urJLk/UahNHXHbZyZc0QyCgN6NkGQIEchcQ0HMfIfURIECAAAECBEooMP0e9F12WTHwm9+MPCfuP48z6Xe9vhvv1sRD41KAn/MloM8n5PcECBRBQEAvwiipkQABAgQIECBQMoHpAb2vb/v9L7nk1JsjaP9rdPWP7u5u/S1xqfs75uu+gD6fkN8TIFAEAQG9CKOkRgIECBAgQIBAyQSmB/SJib59r7zy+J8edNDZey1b1psudd91sssjtdr4QZdddsoP5iIQ0Et2gOgOgYoKCOgVHXjdJkCAAAECBAh0U2B6QI8Q/qipEH7IIee+olZf49B5AAAbwklEQVTr+fBUffH+6zHt2pHxILn6bDUL6N0cTfsmQKBdAgJ6uyRthwABAgQIECBAoGmBewf0icfFA+H++84NDPYeeuie36zXe45oCOlrL7vspHMF9KaJLUiAQAEFBPQCDpqSCRAgQIAAAQJFF5ge0KM/6WFwV0z169BDz35svd6bPi+f/G7LxMSyx1x55ctvmKnvzqAX/YhQPwECSUBAdxwQIECAAAECBAgsucC970GvH3bllWsvaywkLnV/R1ze/qa7v6v/azww7k8E9CUfLjskQGCJBAT0JYK2GwIECBAgQIAAgbsFmgno++//oZWrVq28KtZ6xNSa9Xr9+VdcsfZT0y2dQXd0ESBQBgEBvQyjqA8ECBAgQIAAgYIJNBPQU5fiUvcj41L3rzZ078Z4/+i4HH5LY5cF9IIdAMolQGBGAQHdgUGAAAECBAgQILDkAs0G9FRYXOp+XlzqftzdRdY3xKXuJ04L6Glqtken7+Lhcu+84oqT3rzknbJDAgQILFJAQF8koNUJECBAgAABAgQWLrCQgP64x521+4oVff8Te3nA5J7qvb21p1166Ylfm9pznEH/r3h/oIC+8LGwBgEC+QgI6PmMhUoIECBAgAABApURWEhATyiHHnrOi+r12scbgK7ZsmXkwP/3/145kr6LgJ4eMLdGQK/MIaSjBEopIKCXclh1igABAgQIECCQt8BCA3rqTVzq/vm41P33pnoW798Vc6PveMp7BPRvxI8nC+h5j7vqCBCYW0BAd4QQIECAAAECBAgsuUArAf3gg4ce0ts7fnUUu/NkwdvjAXKHXnHFCVetWXPOv8cMws8W0Jd8KO2QAIE2CgjobcS0KQIECBAgQIAAgeYEWgnoacsRxF8TQfxv795L7ZLLL7/hiEMO2fOTcUb9+QJ6c/6WIkAgTwEBPc9xURUBAgQIECBAoNQCrQb0o476ZN+Pf3zLxfGk9kOngOL9q2u12sHx/PajBfRSHzY6R6D0AgJ66YdYBwkQIECAAAECSytw6KHrX1ivTzy/t7fnu5deetJfxxnv+vQKWg3oaTuHHbb+8RMT9Uvj7bLJ7W6NcP7NZi5xP+KIj+0/OnrH2yPQ3xRn3D8aT4L/ztLq2BsBAgRmFxDQHR0ECBAgQIAAAQJtETjssHOePjFR+0Bs7IBo6d+ZaTq00yIEn53eN+5kMQE9bScudX9v7OJ1MxU+1zzo8TC5y2OdONu+Y770VN8/1GrLz7j00mN/3hYEGyFAgMAiBAT0ReBZlQABAgQIECBAoKfnCU/46EPHx+94TwTmPw6Pvmkmv7z88hsf1NMzONHegH7uTrG9/4720OljMFtAj6nanhdTtf3r5B8PplZLfzi4Pc72vyvO9p9pPAkQINBNAQG9m/r2TYAAAQIECBAosMCTnnTeLtu2jb05LhWPB7ftCOb3+rdl/O62yy67cbd2B/TEFmfDnxU/Lmw2oMfyfx4l/kOcO5/p38DxB4T6T3p7+15/6aUnfKrAw6J0AgQKLCCgF3jwlE6AAAECBAgQ6JbAYYdtOHZiYiLuL+/ZM1rvbHX09fUcc8klJ300ft/WS9yn9heXukfgrr24cf+znUE/8MCP7rxixbb/E7//gzncJuKPCv8R96ifHpfmpyndvAgQILBkAgL6klHbEQECBAgQIECg+AKHHnr2E+r1vrMib6f7uGcN5hFw/29cNv76Sy454Yftfkhco+LBB5+/R2/v9u/Hd/eb+n6ue9DjTH7vIYc86Kio792x/ENmHpH0ULv6WAT19cuX9731W986/tfFHzk9IECgCAICehFGSY0ECBAgQIAAgS4LHHHE3+81OrotQm3thdEimM94mXhUWf9BX1/fKZdc8sWv9fRsGu9y2bPsvl5bs2b9wJ0PmaufEQul+9lneqWz/jfHMn+13373PWvTphdk2p88lVVFgMDCBQT0hZtZgwABAgQIECBQGYEjj7yg/7bbRl8fHU5PTN8l2oz/foyzzb+O9vZ99939nAiy21NSzx+pXjvooHNWL1vWGw+464n702d9pQfc/U/cn/7KSy89/iv590uFBAgUVUBAL+rIqZsAAQIECBAg0GGBJzzh3KPGx3vSk833jTbj5ewRysfr9fq5fX1jb73kklfEpeD3nvO8w2W2YfODvQcf/KDDY8q1dbGxNXMF9bg0/jO12rLXXHrpcT9qw45tggABAvcQENAdEAQIECBAgAABAvcQOPzwDQeOj9c/NDFRf0oE8DnuM+/5ek/PxCsuu+ym701/SnsBSWtHHfXJ3p/8ZMvR9frEu+I+9pgabsZXuj99OIL6uvved+CvvvjFo7cWsK9KJkAgUwEBPdOBURYBAgQIECBAYKkFYhqy+0cgf2eE02PjTPiyOe4z/1GajmzffVf9W/nuy67XDj983S7j4yvfFA6vijFYOXtQ77mxt7f3zZdccvzGCOwFuKR/qY8o+yNAYKECAvpCxSxPgAABAgQIECiZQATz5X19tdMmJnoilNZ3j+7Ndp/5bbHMmbvuuuL9mzcfM1LMy9mbHbz0tPe99+vtnXhfmDxvjrXStGz/FWH+5MsvP+nbzW7dcgQIEJhJQEB3XBAgQIAAAQIEKiwQl7M/Z2ys/r44W/7IYJjtcvZ0dvij/f3L3njRRT/7eQkuZ1/AiA/2rlmz51NjhZharudRM69Yiwwfk8/19Xwizqif8e1vn3DdAnZgUQIECNwlIKA7GAgQIECAAAECFRQ44oih/UdHxz8SXX96tL7ZCWqXLFtWO+Xb377+ymoF83uIxLRs58Yl/7W1cSX7YJwtv+8sXukPGbf39tbft/POK9+zefOxwxU8tHSZAIFFCAjoi8CzKgECBAgQIECgaAJHHXXmql/9qu+tIyMrXjEy0r8i6p/l34P162u13jc89KG7fbx895m3Omr12uMe9/HdVq687a9TWI+gPuMfNvr6xidWrhy+dqedRs+48MK//GSre7MeAQLVExDQqzfmekyAAAECBAhUUGBwcLD3u98dPj6C+dsjmD9wZGRlLVrP2Njye2jE/dTb4j7z9w8MLHv3RRcdd3u57zNv9UDYMS3bo+K+/bMipKfL3+/xWrlypCcCes+KFSMR1EcuGhjYfto//dO7/6vVvVmPAIHqCAjo1RlrPSVAgAABAgQqKvDyl7/8t7dv7//Q8HD/40ZHV/amYB4hPVr6ubKnXr/z1vMIm/+yYsXE6y6++KZrK3w5+wKOkvQgudXPi8ve3xsrPSytuGzZ2I5wnkJ6BPT0vh4/x/v7hy8I2zeuX7/+VwvYgUUJEKiYgIBesQHXXQIECBAgQKA6Aq961av2ueOOO9JTyP9kfLwvBfPa6OhUML87oG/fvvx7vb3LTr700uu+KZgv9Pio1/bff92KVasGXt3bO/7GFSuGd7nzDHoK6HcG9cn39d7e2q0xHds7Yw8fiqC+faF7sjwBAuUXENDLP8Z6SIAAAQIECFRM4MQTT9xpYmLiL6Pbr402EG3Hv/lGR1fsOHMeZ9F3nDmPsP7LkZGBtz760U86b/36Q8diEXN5t3ys1GuHHXbWA3fe+Y4zV6wYPTrCeW0qnKcz6nFf+tSWJ+LNDyOov27Dhg2fbXl3ViRAoJQCAnoph1WnCBAgQIAAgSoKxJnyWoTzP4++vyve7x0/7zFt2sRE745gHpe7b4/L3T8yPr7TX33uc395q/vM23m0DPb+wR/0runr27YuAvrhU5e6z7CHFNS/0tfX94pzzz33h+2swLYIECiugIBe3LFTOQECBAgQIEDgLoEI5odEKI+HltUPmx7MG5m2b1/xheHh+7z20Y/e6Qfx4LgUEr3aL1AL29oPfnDLnw8MbPub3t6J9MeSmV71OJM+GmN2dsyfPhiXvW9pfym2SIBAkQQE9CKNlloJECBAgAABAtMETjnllAdt3779b+Lrl0TQS9N+zfbvu/8XIfAVt9xyy1c2bdp01/XWQDsqUIvx2XlkZOSMdEl77Kl/xpSeLn2o1X4R4/O21atXb/CHk46OiY0TyFpAQM96eBRHgAABAgQIEJhZ4LTTTlu5bdu2V8dvz4h8tyoC3mz/rtvxYLL+/v518RqN5d1nvsQHVcrfJ5100oPjZ3pg31Fz7D5d0XB1jNdpcX/615a4TLsjQCADAQE9g0FQAgECBAgQIEBgIQJxOfsfRdB7T7Q0tdc97jNv2M5EBL3z4uz6Wy+44IKb4r1gvhDkDiyb5qK/6aabnhRjcnZs/oBZdpHGKbVPrVy58nUf+chHftqBUmySAIFMBQT0TAdGWQQIECBAgACB6QJxFvYx4+Pj6+L7p0ZLl7PP9vrPeIr7Kfvss893XS6d3XGU7k/vu/HGG4+LsXxHVLfHHEH9jvjdB+PS93fF/enpvRcBAiUXENBLPsC6R4AAAQIECBRf4NWvfvV9b7/99rfHGfMTozfLo832b7h0tvWMLVu2/LP7zLMf99rpp5++auvWrW+NcT11clzvVXT8Lt2ffl087f2N55xzzj+6EiL7cVUggUUJCOiL4rMyAQIECBAgQKBzAnGmddn1119/cmS0t0S7/xz3mW+N370n2vviTOu2qMjl7J0blrZuefKy94fHZe/vjw0/Z46Np/vTL4928tDQUPrpRYBACQUE9BIOqi4RIECAAAECxRc4/vjjfycC94cjmD8yejPbfebp7OonxsbGznjIQx5yvcvZizvuKajHZe9Pj1sTPhJj/vBZepL+8DIRv/9YOqMef4y5sbg9VjkBAjMJCOiOCwIECBAgQIDADAIRkDfG1y+b/NV4nLVc1grUCSeccEwEqgsa1j0itnXxbNs69dRTHzo8PPyB+P3vR5vrPvMr0tO+99prr4sF81ZGJst10v3py+OqiVPTVRNR4W5zBPXfxPi/O57O//54Ov/IbL3p1nGcpa6iCBRAQEAvwCApkQABAgQIEFh6gW4Em3g6+2AEszfNM5/5L0PjzXGf+Xlxn3m67Nnl7Et/eHR6j7W1a9fuEVdG/HXsKD13YLZXOpt+7fLly18S96dfNNNC3TiOO41j+wTKLCCgl3l09Y0AAQIECBBoWWCpg02caX9XhK0zouDZLmfvmbzPPD3R+zeCectDW5gV02XvN9xwwwFx2fvUk/tnq/2OZcuWHR4h/b+nL7DUx3FhcBVKIFMBAT3TgVEWAQIECBAg0F2BpQ42sb+fRY/3nqXX/xZTbb129erVP3Y5e3ePi27sPQX166677s9i32dG22eWGgbj1om3C+jdGCH7JNA+AQG9fZa2RIAAAQIECJRIoAsB/QvB9+xojf8+uyY+nxqXs/+HadNKdHC11pXaUUcd1bvbbru9IVZ/Y1xtMdC4mbi64k82bNjwrwJ6a7jWIpCLgICey0iogwABAgQIEMhKYKkD+sknn7zf6OjoxRG09giI6+KM+btvueWWs91nntVh0fVi0rTor3zlK/eKBwmeGe9fnAqKY2ZTPCzwhTNdXbHUx3HXgRRAoOACAnrBB1D5BAgQIECAQGcEuhFsTjnllPvE/cYPv/nmm68SzDszrmXZarrs/dZbb91127ZtD9lzzz2/O9utD904jstirB8EuiEgoHdD3T4JECBAgACB7AUEm+yHSIFNCDiOm0CyCIGMBAT0jAZDKQQIECBAgEA+AoJNPmOhktYFHMet21mTQDcEBPRuqNsnAQIECBAgkL2AYJP9ECmwCQHHcRNIFiGQkYCAntFgKIUAAQIECBDIR0CwyWcsVNK6gOO4dTtrEuiGgIDeDXX7JECAAAECBLIXEGyyHyIFNiHgOG4CySIEMhIQ0DMaDKUQIECAAAEC+QhMCzbtLOyIoaGhi9u5QdsiMJuA49ixQaBYAgJ6scZLtQQIECBAgMASCQg2SwRtNx0VcBx3lNfGCbRdQEBvO6kNEiBAgAABAmUQEGzKMIr64Dh2DBAoloCAXqzxUi0BAgQIECCwRALT792t1+uPb2XXtVrtebHeOxrWdYl7K5DWaUnAcdwSm5UIdE1AQO8avR0TIECAAAECOQt4uFbOo6O2ZgUcx81KWY5AHgICeh7joAoCBAgQIEAgMwHBJrMBUU5LAo7jltisRKBrAgJ61+jtmAABAgQIEMhZQLDJeXTU1qyA47hZKcsRyENAQM9jHFRBgAABAgQIZCYg2GQ2IMppScBx3BKblQh0TUBA7xq9HRMgQIAAAQI5Cwg2OY+O2poVcBw3K2U5AnkICOh5jIMqCBAgQIAAgcwEBJvMBkQ5LQk4jltisxKBrgkI6F2jt2MCBAgQIEAgZwHBJufRUVuzAo7jZqUsRyAPAQE9j3FQBQECBAgQIJCZgGCT2YAopyUBx3FLbFYi0DUBAb1r9HZMgAABAgQI5Cwg2OQ8OmprVsBx3KyU5QjkISCg5zEOqiBAgAABAgQyExBsMhsQ5bQk4Dhuic1KBLomIKB3jd6OCRAgQIAAgZwFBJucR0dtzQo4jpuVshyBPAQE9DzGQRUECBAgQIBAZgKCTWYDopyWBBzHLbFZiUDXBAT0rtHbMQECBAgQIJCzgGCT8+iorVkBx3GzUpYjkIeAgJ7HOKiCAAECBAgQIECAAAECBCouIKBX/ADQfQIECBAgQIAAAQIECBDIQ0BAz2McVEGAAAECBAgQIECAAAECFRcQ0Ct+AOg+AQIECBAgQIAAAQIECOQhIKDnMQ6qIECAAAECBAgQIECAAIGKCwjoFT8AdJ8AAQIECBAgQIAAAQIE8hAQ0PMYB1UQIECAAAECBAgQIECAQMUFBPSKHwC6T4AAAQIECBAgQIAAAQJ5CAjoeYyDKggQIECAAAECBAgQIECg4gICesUPAN0nQIAAAQIECBAgQIAAgTwEBPQ8xkEVBAgQIECAAAECBAgQIFBxAQG94geA7hMgQIAAAQIECBAgQIBAHgICeh7joAoCBAgQIECAAAECBAgQqLiAgF7xA0D3CRAgQIAAAQIECBAgQCAPAQE9j3FQBQECBAgQIECAAAECBAhUXEBAr/gBoPsECBAgQIAAAQIECBAgkIeAgJ7HOKiCAAECBAgQIECAAAECBCouIKBX/ADQfQIECBAgQIAAAQIECBDIQ0BAz2McVEGAAAECBAgQIECAAAECFRcQ0Ct+AOg+AQIECBAgQIAAAQIECOQhIKDnMQ6qIECAAAECBAgQIECAAIGKCwjoFT8AdJ8AAQIECBAgQIAAAQIE8hAQ0PMYB1UQIECAAAECBAgQIECAQMUFBPSKHwC6T4AAAQIECBAgQIAAAQJ5CAjoeYyDKggQIECAAAECBAgQIECg4gICesUPAN0nQIAAAQIECBAgQIAAgTwEBPQ8xkEVBAgQIECAAAECBAgQIFBxAQG94geA7hMgQIAAAQIECBAgQIBAHgICeh7joAoCBAgQIECAAAECBAgQqLiAgF7xA0D3CRAgQIAAAQIECBAgQCAPAQE9j3FQBQECBAgQIECAAAECBAhUXEBAr/gBoPsECBAgQIAAAQIECBAgkIeAgJ7HOKiCAAECBAgQIECAAAECBCouIKBX/ADQfQIECBAgQIAAAQIECBDIQ0BAz2McVEGAAAECBAgQIECAAAECFRcQ0Ct+AOg+AQIECBAgQIAAAQIECOQhIKDnMQ6qIECAAAECBAgQIECAAIGKCwjoFT8AdJ8AAQIECBAgQIAAAQIE8hAQ0PMYB1UQIECAAAECBAgQIECAQMUFBPSKHwC6T4AAAQIECBAgQIAAAQJ5CAjoeYyDKggQIECAAAECBAgQIECg4gICesUPAN0nQIAAAQIECBAgQIAAgTwEBPQ8xkEVBAgQIECAAAECBAgQIFBxAQG94geA7hMgQIAAAQIECBAgQIBAHgICeh7joAoCBAgQIECAAAECBAgQqLiAgF7xA0D3CRAgQIAAAQIECBAgQCAPAQE9j3FQBQECBAgQIECAAAECBAhUXEBAr/gBoPsECBAgQIAAAQIECBAgkIeAgJ7HOKiCAAECBAgQIECAAAECBCouIKBX/ADQfQIECBAgQIAAAQIECBDIQ0BAz2McVEGAAAECBAgQIECAAAECFRcQ0Ct+AOg+AQIECBAgQIAAAQIECOQhIKDnMQ6qIECAAAECBAgQIECAAIGKCwjoFT8AdJ8AAQIECBAgQIAAAQIE8hAQ0PMYB1UQIECAAAECBAgQIECAQMUFBPSKHwC6T4AAAQIECBAgQIAAAQJ5CAjoeYyDKggQIECAAAECBAgQIECg4gICesUPAN0nQIAAAQIECBAgQIAAgTwEBPQ8xkEVBAgQIECAAAECBAgQIFBxAQG94geA7hMgQIAAAQIECBAgQIBAHgICeh7joAoCBAgQIECAAAECBAgQqLiAgF7xA0D3CRAgQIAAAQIECBAgQCAPAQE9j3FQBQECBAgQIECAAAECBAhUXEBAr/gBoPsECBAgQIAAAQIECBAgkIeAgJ7HOKiCAAECBAgQIECAAAECBCouIKBX/ADQfQIECBAgQIAAAQIECBDIQ0BAz2McVEGAAAECBAgQIECAAAECFRcQ0Ct+AOg+AQIECBAgQIAAAQIECOQhIKDnMQ6qIECAAAECBAgQIECAAIGKCwjoFT8AdJ8AAQIECBAgQIAAAQIE8hAQ0PMYB1UQIECAAAECBAgQIECAQMUFBPSKHwC6T4AAAQIECBAgQIAAAQJ5CAjoeYyDKggQIECAAAECBAgQIECg4gICesUPAN0nQIAAAQIECBAgQIAAgTwEBPQ8xkEVBAgQIECAAAECBAgQIFBxAQG94geA7hMgQIAAAQIECBAgQIBAHgICeh7joAoCBAgQIECAAAECBAgQqLiAgF7xA0D3CRAgQIAAAQIECBAgQCAPAQE9j3FQBQECBAgQIECAAAECBAhUXEBAr/gBoPsECBAgQIAAAQIECBAgkIeAgJ7HOKiCAAECBAgQIECAAAECBCouIKBX/ADQfQIECBAgQIAAAQIECBDIQ0BAz2McVEGAAAECBAgQIECAAAECFRcQ0Ct+AOg+AQIECBAgQIAAAQIECOQhIKDnMQ6qIECAAAECBAgQIECAAIGKCwjoFT8AdJ8AAQIECBAgQIAAAQIE8hAQ0PMYB1UQIECAAAECBAgQIECAQMUFBPSKHwC6T4AAAQIECBAgQIAAAQJ5CAjoeYyDKggQIECAAAECBAgQIECg4gICesUPAN0nQIAAAQIECBAgQIAAgTwEBPQ8xkEVBAgQIECAAAECBAgQIFBxAQG94geA7hMgQIAAAQIECBAgQIBAHgICeh7joAoCBAgQIECAAAECBAgQqLiAgF7xA0D3CRAgQIAAAQIECBAgQCAPAQE9j3FQBQECBAgQIECAAAECBAhUXEBAr/gBoPsECBAgQIAAAQIECBAgkIeAgJ7HOKiCAAECBAgQIECAAAECBCouIKBX/ADQfQIECBAgQIAAAQIECBDIQ0BAz2McVEGAAAECBAgQIECAAAECFRcQ0Ct+AOg+AQIECBAgQIAAAQIECOQh8P8BbM8UxMpxEpEAAAAASUVORK5CYII=;clipPath=inset(9% 0% 8% 0%);movable=1;resizable=1;rotatable=1;deletable=1;editable=1;locked=0;connectable=1;" parent="1" vertex="1">
          <mxGeometry x="55" y="116.15" width="590" height="489.69999999999993" as="geometry" />
        </mxCell>
        <mxCell id="YxmLyxGHtYIxTq1yroco-2" value="&lt;font style=&quot;font-size: 25px;&quot;&gt;&lt;b&gt;Ala&lt;/b&gt;&lt;/font&gt;" style="text;html=1;strokeColor=none;fillColor=none;align=center;verticalAlign=middle;whiteSpace=wrap;rounded=0;" parent="1" vertex="1">
          <mxGeometry x="160" y="81" width="60" height="30" as="geometry" />
        </mxCell>
        <mxCell id="YxmLyxGHtYIxTq1yroco-3" value="&lt;font style=&quot;font-size: 25px;&quot;&gt;&lt;b&gt;Ala&lt;/b&gt;&lt;/font&gt;" style="text;html=1;strokeColor=none;fillColor=none;align=center;verticalAlign=middle;whiteSpace=wrap;rounded=0;" parent="1" vertex="1">
          <mxGeometry x="490" y="81" width="60" height="30" as="geometry" />
        </mxCell>
        <mxCell id="YxmLyxGHtYIxTq1yroco-4" value="&lt;font style=&quot;font-size: 25px;&quot;&gt;&lt;b&gt;Lys&lt;/b&gt;&lt;/font&gt;" style="text;html=1;strokeColor=none;fillColor=none;align=center;verticalAlign=middle;whiteSpace=wrap;rounded=0;" parent="1" vertex="1">
          <mxGeometry x="326" y="81" width="60" height="30" as="geometry" />
        </mxCell>
        <mxCell id="YxmLyxGHtYIxTq1yroco-22" value="" style="endArrow=none;dashed=1;html=1;rounded=0;entryX=1;entryY=0.132;entryDx=0;entryDy=0;entryPerimeter=0;" parent="1" edge="1">
          <mxGeometry width="50" height="50" relative="1" as="geometry">
            <mxPoint x="50" y="116" as="sourcePoint" />
            <mxPoint x="650" y="117.20000000000005" as="targetPoint" />
          </mxGeometry>
        </mxCell>
        <mxCell id="YxmLyxGHtYIxTq1yroco-23" value="" style="ellipse;whiteSpace=wrap;html=1;aspect=fixed;fillColor=#1A1A1A;" parent="1" vertex="1">
          <mxGeometry x="40" y="111" width="10" height="10" as="geometry" />
        </mxCell>
        <mxCell id="YxmLyxGHtYIxTq1yroco-24" value="" style="ellipse;whiteSpace=wrap;html=1;aspect=fixed;fillColor=#1A1A1A;" parent="1" vertex="1">
          <mxGeometry x="647" y="111" width="10" height="10" as="geometry" />
        </mxCell>
        <mxCell id="YxmLyxGHtYIxTq1yroco-27" value="&lt;font style=&quot;font-size: 16px; background-color: rgb(230, 230, 230);&quot; face=&quot;Courier New&quot;&gt;&lt;b&gt;0&lt;/b&gt;&lt;/font&gt;" style="text;html=1;strokeColor=none;fillColor=none;align=center;verticalAlign=middle;whiteSpace=wrap;rounded=0;" parent="1" vertex="1">
          <mxGeometry x="311" y="306" width="60" height="30" as="geometry" />
        </mxCell>
        <mxCell id="YxmLyxGHtYIxTq1yroco-28" value="&lt;font style=&quot;font-size: 16px; background-color: rgb(230, 230, 230);&quot; face=&quot;Courier New&quot;&gt;&lt;b&gt;1&lt;/b&gt;&lt;/font&gt;" style="text;html=1;strokeColor=none;fillColor=none;align=center;verticalAlign=middle;whiteSpace=wrap;rounded=0;" parent="1" vertex="1">
          <mxGeometry x="338" y="344" width="60" height="30" as="geometry" />
        </mxCell>
        <mxCell id="YxmLyxGHtYIxTq1yroco-29" value="&lt;font style=&quot;font-size: 16px; background-color: rgb(230, 230, 230);&quot; face=&quot;Courier New&quot;&gt;&lt;b&gt;1&lt;/b&gt;&lt;/font&gt;" style="text;html=1;strokeColor=none;fillColor=none;align=center;verticalAlign=middle;whiteSpace=wrap;rounded=0;" parent="1" vertex="1">
          <mxGeometry x="338" y="213" width="60" height="30" as="geometry" />
        </mxCell>
        <mxCell id="YxmLyxGHtYIxTq1yroco-30" value="&lt;font style=&quot;font-size: 16px; background-color: rgb(230, 230, 230);&quot; face=&quot;Courier New&quot;&gt;&lt;b&gt;1&lt;/b&gt;&lt;/font&gt;" style="text;html=1;strokeColor=none;fillColor=none;align=center;verticalAlign=middle;whiteSpace=wrap;rounded=0;" parent="1" vertex="1">
          <mxGeometry x="285" y="255" width="60" height="30" as="geometry" />
        </mxCell>
        <mxCell id="YxmLyxGHtYIxTq1yroco-31" value="&lt;font style=&quot;font-size: 16px; background-color: rgb(230, 230, 230);&quot; face=&quot;Courier New&quot;&gt;&lt;b&gt;1&lt;/b&gt;&lt;/font&gt;" style="text;html=1;strokeColor=none;fillColor=none;align=center;verticalAlign=middle;whiteSpace=wrap;rounded=0;" parent="1" vertex="1">
          <mxGeometry x="370" y="284" width="60" height="30" as="geometry" />
        </mxCell>
        <mxCell id="YxmLyxGHtYIxTq1yroco-33" value="&lt;font style=&quot;font-size: 16px; background-color: rgb(230, 230, 230);&quot; face=&quot;Courier New&quot;&gt;&lt;b&gt;2&lt;/b&gt;&lt;/font&gt;" style="text;html=1;strokeColor=none;fillColor=none;align=center;verticalAlign=middle;whiteSpace=wrap;rounded=0;" parent="1" vertex="1">
          <mxGeometry x="390" y="190" width="60" height="30" as="geometry" />
        </mxCell>
        <mxCell id="YxmLyxGHtYIxTq1yroco-34" value="&lt;font style=&quot;font-size: 16px; background-color: rgb(230, 230, 230);&quot; face=&quot;Courier New&quot;&gt;&lt;b&gt;2&lt;/b&gt;&lt;/font&gt;" style="text;html=1;strokeColor=none;fillColor=none;align=center;verticalAlign=middle;whiteSpace=wrap;rounded=0;" parent="1" vertex="1">
          <mxGeometry x="425" y="254" width="60" height="30" as="geometry" />
        </mxCell>
        <mxCell id="YxmLyxGHtYIxTq1yroco-35" value="&lt;font style=&quot;font-size: 16px; background-color: rgb(230, 230, 230);&quot; face=&quot;Courier New&quot;&gt;&lt;b&gt;2&lt;/b&gt;&lt;/font&gt;" style="text;html=1;strokeColor=none;fillColor=none;align=center;verticalAlign=middle;whiteSpace=wrap;rounded=0;" parent="1" vertex="1">
          <mxGeometry x="284" y="195" width="60" height="30" as="geometry" />
        </mxCell>
        <mxCell id="YxmLyxGHtYIxTq1yroco-36" value="&lt;font style=&quot;font-size: 16px; background-color: rgb(230, 230, 230);&quot; face=&quot;Courier New&quot;&gt;&lt;b&gt;2&lt;/b&gt;&lt;/font&gt;" style="text;html=1;strokeColor=none;fillColor=none;align=center;verticalAlign=middle;whiteSpace=wrap;rounded=0;" parent="1" vertex="1">
          <mxGeometry x="279" y="397" width="60" height="30" as="geometry" />
        </mxCell>
        <mxCell id="YxmLyxGHtYIxTq1yroco-37" value="&lt;font style=&quot;font-size: 16px; background-color: rgb(230, 230, 230);&quot; face=&quot;Courier New&quot;&gt;&lt;b&gt;2&lt;/b&gt;&lt;/font&gt;" style="text;html=1;strokeColor=none;fillColor=none;align=center;verticalAlign=middle;whiteSpace=wrap;rounded=0;" parent="1" vertex="1">
          <mxGeometry x="251" y="346" width="60" height="30" as="geometry" />
        </mxCell>
        <mxCell id="YxmLyxGHtYIxTq1yroco-38" value="&lt;font style=&quot;font-size: 16px; background-color: rgb(230, 230, 230);&quot; face=&quot;Courier New&quot;&gt;&lt;b&gt;2&lt;/b&gt;&lt;/font&gt;" style="text;html=1;strokeColor=none;fillColor=none;align=center;verticalAlign=middle;whiteSpace=wrap;rounded=0;" parent="1" vertex="1">
          <mxGeometry x="390" y="402" width="60" height="30" as="geometry" />
        </mxCell>
        <mxCell id="YxmLyxGHtYIxTq1yroco-39" value="&lt;font style=&quot;font-size: 16px; background-color: rgb(230, 230, 230);&quot; face=&quot;Courier New&quot;&gt;&lt;b&gt;2&lt;/b&gt;&lt;/font&gt;" style="text;html=1;strokeColor=none;fillColor=none;align=center;verticalAlign=middle;whiteSpace=wrap;rounded=0;" parent="1" vertex="1">
          <mxGeometry x="225" y="252" width="60" height="30" as="geometry" />
        </mxCell>
        <mxCell id="YxmLyxGHtYIxTq1yroco-40" value="&lt;font style=&quot;font-size: 16px; background-color: rgb(230, 230, 230);&quot; face=&quot;Courier New&quot;&gt;&lt;b&gt;3&lt;/b&gt;&lt;/font&gt;" style="text;html=1;strokeColor=none;fillColor=none;align=center;verticalAlign=middle;whiteSpace=wrap;rounded=0;" parent="1" vertex="1">
          <mxGeometry x="504" y="224" width="60" height="30" as="geometry" />
        </mxCell>
        <mxCell id="YxmLyxGHtYIxTq1yroco-42" value="&lt;font style=&quot;font-size: 16px; background-color: rgb(230, 230, 230);&quot; face=&quot;Courier New&quot;&gt;&lt;b&gt;3&lt;/b&gt;&lt;/font&gt;" style="text;html=1;strokeColor=none;fillColor=none;align=center;verticalAlign=middle;whiteSpace=wrap;rounded=0;" parent="1" vertex="1">
          <mxGeometry x="196" y="346" width="60" height="30" as="geometry" />
        </mxCell>
        <mxCell id="YxmLyxGHtYIxTq1yroco-43" value="&lt;font style=&quot;font-size: 16px; background-color: rgb(230, 230, 230);&quot; face=&quot;Courier New&quot;&gt;&lt;b&gt;3&lt;/b&gt;&lt;/font&gt;" style="text;html=1;strokeColor=none;fillColor=none;align=center;verticalAlign=middle;whiteSpace=wrap;rounded=0;" parent="1" vertex="1">
          <mxGeometry x="450" y="373" width="60" height="30" as="geometry" />
        </mxCell>
        <mxCell id="YxmLyxGHtYIxTq1yroco-44" value="&lt;font style=&quot;font-size: 16px; background-color: rgb(230, 230, 230);&quot; face=&quot;Courier New&quot;&gt;&lt;b&gt;3&lt;/b&gt;&lt;/font&gt;" style="text;html=1;strokeColor=none;fillColor=none;align=center;verticalAlign=middle;whiteSpace=wrap;rounded=0;" parent="1" vertex="1">
          <mxGeometry x="422" y="324" width="60" height="30" as="geometry" />
        </mxCell>
        <mxCell id="YxmLyxGHtYIxTq1yroco-45" value="&lt;font style=&quot;font-size: 16px; background-color: rgb(230, 230, 230);&quot; face=&quot;Courier New&quot;&gt;&lt;b&gt;3&lt;/b&gt;&lt;/font&gt;" style="text;html=1;strokeColor=none;fillColor=none;align=center;verticalAlign=middle;whiteSpace=wrap;rounded=0;" parent="1" vertex="1">
          <mxGeometry x="390" y="437" width="60" height="30" as="geometry" />
        </mxCell>
        <mxCell id="YxmLyxGHtYIxTq1yroco-48" value="&lt;font style=&quot;font-size: 16px; background-color: rgb(230, 230, 230);&quot; face=&quot;Courier New&quot;&gt;&lt;b&gt;3&lt;/b&gt;&lt;/font&gt;" style="text;html=1;strokeColor=none;fillColor=none;align=center;verticalAlign=middle;whiteSpace=wrap;rounded=0;" parent="1" vertex="1">
          <mxGeometry x="171" y="224" width="60" height="30" as="geometry" />
        </mxCell>
        <mxCell id="YxmLyxGHtYIxTq1yroco-49" value="&lt;font style=&quot;font-size: 16px; background-color: rgb(230, 230, 230);&quot; face=&quot;Courier New&quot;&gt;&lt;b&gt;3&lt;/b&gt;&lt;/font&gt;" style="text;html=1;strokeColor=none;fillColor=none;align=center;verticalAlign=middle;whiteSpace=wrap;rounded=0;" parent="1" vertex="1">
          <mxGeometry x="482" y="306" width="60" height="30" as="geometry" />
        </mxCell>
        <mxCell id="YxmLyxGHtYIxTq1yroco-50" value="" style="ellipse;whiteSpace=wrap;html=1;aspect=fixed;strokeColor=none;" parent="1" vertex="1">
          <mxGeometry x="50" y="225" width="30" height="30" as="geometry" />
        </mxCell>
        <mxCell id="YxmLyxGHtYIxTq1yroco-51" value="" style="ellipse;whiteSpace=wrap;html=1;aspect=fixed;strokeColor=none;" parent="1" vertex="1">
          <mxGeometry x="610" y="157" width="30" height="30" as="geometry" />
        </mxCell>
        <mxCell id="oK9FegU8TQhe0z6IXH7M-1" value="&lt;div dir=&quot;ltr&quot; style=&quot;margin-left: 0pt; font-size: 17px;&quot; align=&quot;left&quot; id=&quot;docs-internal-guid-20de8f48-7fff-ecb9-3dc4-f85c904a50f1&quot;&gt;&lt;table style=&quot;border: medium; border-collapse: collapse; font-size: 25px;&quot;&gt;&lt;colgroup&gt;&lt;col width=&quot;312&quot;&gt;&lt;col width=&quot;71&quot;&gt;&lt;col width=&quot;244&quot;&gt;&lt;/colgroup&gt;&lt;tbody&gt;&lt;tr style=&quot;height:14pt&quot;&gt;&lt;td style=&quot;vertical-align:top;padding:0pt 5pt 0pt 5pt;overflow:hidden;overflow-wrap:break-word;&quot;&gt;&lt;font style=&quot;font-size: 25px;&quot;&gt;&lt;br&gt;&lt;/font&gt;&lt;p dir=&quot;ltr&quot; style=&quot;line-height:1.295;text-align: justify;margin-top:0pt;margin-bottom:0pt;&quot;&gt;&lt;font style=&quot;font-size: 25px;&quot;&gt;&lt;span style=&quot;font-family: &amp;quot;Times New Roman&amp;quot;, serif; color: rgb(0, 0, 0); background-color: transparent; font-weight: 700; font-style: normal; font-variant: normal; text-decoration: none; vertical-align: baseline;&quot;&gt;MNA 0&lt;/span&gt;&lt;span style=&quot;font-family: &amp;quot;Times New Roman&amp;quot;, serif; color: rgb(0, 0, 0); background-color: transparent; font-weight: 400; font-style: normal; font-variant: normal; text-decoration: none; vertical-align: baseline;&quot;&gt;:&amp;nbsp;&lt;/span&gt;&lt;/font&gt;&lt;/p&gt;&lt;/td&gt;&lt;td style=&quot;vertical-align:top;padding:0pt 5pt 0pt 5pt;overflow:hidden;overflow-wrap:break-word;&quot;&gt;&lt;font style=&quot;font-size: 25px;&quot;&gt;&lt;br&gt;&lt;/font&gt;&lt;p dir=&quot;ltr&quot; style=&quot;line-height:1.295;text-align: justify;margin-top:0pt;margin-bottom:0pt;&quot;&gt;&lt;font style=&quot;font-size: 25px;&quot;&gt;&lt;span style=&quot;font-family: &amp;quot;Times New Roman&amp;quot;, serif; color: rgb(0, 0, 0); background-color: transparent; font-weight: 400; font-style: normal; font-variant: normal; text-decoration: none; vertical-align: baseline;&quot;&gt;С&lt;/span&gt;&lt;/font&gt;&lt;/p&gt;&lt;p dir=&quot;ltr&quot; style=&quot;line-height:1.295;text-align: justify;margin-top:0pt;margin-bottom:0pt;&quot;&gt;&lt;font style=&quot;font-size: 25px;&quot;&gt;&lt;span style=&quot;font-family: &amp;quot;Times New Roman&amp;quot;, serif; color: rgb(0, 0, 0); background-color: transparent; font-weight: 400; font-style: normal; font-variant: normal; text-decoration: none; vertical-align: baseline;&quot;&gt;&lt;br&gt;&lt;/span&gt;&lt;/font&gt;&lt;/p&gt;&lt;/td&gt;&lt;/tr&gt;&lt;tr style=&quot;height:14pt&quot;&gt;&lt;td style=&quot;vertical-align:top;padding:0pt 5pt 0pt 5pt;overflow:hidden;overflow-wrap:break-word;&quot;&gt;&lt;font style=&quot;font-size: 25px;&quot;&gt;&lt;br&gt;&lt;/font&gt;&lt;p dir=&quot;ltr&quot; style=&quot;line-height:1.295;text-align: justify;margin-top:0pt;margin-bottom:0pt;&quot;&gt;&lt;font style=&quot;font-size: 25px;&quot;&gt;&lt;span style=&quot;font-family: &amp;quot;Times New Roman&amp;quot;, serif; color: rgb(0, 0, 0); background-color: transparent; font-weight: 700; font-style: normal; font-variant: normal; text-decoration: none; vertical-align: baseline;&quot;&gt;MNA 1&lt;/span&gt;&lt;span style=&quot;font-family: &amp;quot;Times New Roman&amp;quot;, serif; color: rgb(0, 0, 0); background-color: transparent; font-weight: 400; font-style: normal; font-variant: normal; text-decoration: none; vertical-align: baseline;&quot;&gt;:&lt;/span&gt;&lt;/font&gt;&lt;/p&gt;&lt;/td&gt;&lt;td style=&quot;vertical-align:top;padding:0pt 5pt 0pt 5pt;overflow:hidden;overflow-wrap:break-word;&quot;&gt;&lt;font style=&quot;font-size: 25px;&quot;&gt;&lt;br&gt;&lt;/font&gt;&lt;p dir=&quot;ltr&quot; style=&quot;line-height:1.295;text-align: justify;margin-top:0pt;margin-bottom:0pt;&quot;&gt;&lt;font style=&quot;font-size: 25px;&quot;&gt;&lt;span style=&quot;font-family: &amp;quot;Times New Roman&amp;quot;, serif; color: rgb(0, 0, 0); background-color: transparent; font-weight: 400; font-style: normal; font-variant: normal; text-decoration: none; vertical-align: baseline;&quot;&gt;C(CCNH)&lt;/span&gt;&lt;/font&gt;&lt;/p&gt;&lt;p dir=&quot;ltr&quot; style=&quot;line-height:1.295;text-align: justify;margin-top:0pt;margin-bottom:0pt;&quot;&gt;&lt;font style=&quot;font-size: 25px;&quot;&gt;&lt;span style=&quot;font-family: &amp;quot;Times New Roman&amp;quot;, serif; color: rgb(0, 0, 0); background-color: transparent; font-weight: 400; font-style: normal; font-variant: normal; text-decoration: none; vertical-align: baseline;&quot;&gt;&lt;br&gt;&lt;/span&gt;&lt;/font&gt;&lt;/p&gt;&lt;/td&gt;&lt;/tr&gt;&lt;tr style=&quot;height:14pt&quot;&gt;&lt;td style=&quot;vertical-align:top;padding:0pt 5pt 0pt 5pt;overflow:hidden;overflow-wrap:break-word;&quot;&gt;&lt;font style=&quot;font-size: 25px;&quot;&gt;&lt;br&gt;&lt;/font&gt;&lt;p dir=&quot;ltr&quot; style=&quot;line-height:1.295;text-align: justify;margin-top:0pt;margin-bottom:0pt;&quot;&gt;&lt;font style=&quot;font-size: 25px;&quot;&gt;&lt;span style=&quot;font-family: &amp;quot;Times New Roman&amp;quot;, serif; color: rgb(0, 0, 0); background-color: transparent; font-weight: 700; font-style: normal; font-variant: normal; text-decoration: none; vertical-align: baseline;&quot;&gt;MNA 2&lt;/span&gt;&lt;span style=&quot;font-family: &amp;quot;Times New Roman&amp;quot;, serif; color: rgb(0, 0, 0); background-color: transparent; font-weight: 400; font-style: normal; font-variant: normal; text-decoration: none; vertical-align: baseline;&quot;&gt;:&amp;nbsp;&lt;/span&gt;&lt;/font&gt;&lt;/p&gt;&lt;/td&gt;&lt;td style=&quot;vertical-align:top;padding:0pt 5pt 0pt 5pt;overflow:hidden;overflow-wrap:break-word;&quot;&gt;&lt;font style=&quot;font-size: 25px;&quot;&gt;&lt;br&gt;&lt;/font&gt;&lt;p dir=&quot;ltr&quot; style=&quot;line-height:1.295;text-align: justify;margin-top:0pt;margin-bottom:0pt;&quot;&gt;&lt;font style=&quot;font-size: 25px;&quot;&gt;&lt;span style=&quot;font-family: &amp;quot;Times New Roman&amp;quot;, serif; color: rgb(0, 0, 0); background-color: transparent; font-weight: 400; font-style: normal; font-variant: normal; text-decoration: none; vertical-align: baseline;&quot;&gt;C[C(CCHH)C(CON)N(CCH)H&lt;/span&gt;&lt;span style=&quot;font-family: &amp;quot;Times New Roman&amp;quot;, serif; color: rgb(0, 0, 0); background-color: transparent; font-weight: 400; font-style: normal; font-variant: normal; text-decoration: none; vertical-align: baseline;&quot;&gt;&lt;/span&gt;&lt;span style=&quot;font-family: &amp;quot;Times New Roman&amp;quot;, serif; color: rgb(0, 0, 0); background-color: transparent; font-weight: 400; font-style: normal; font-variant: normal; text-decoration: none; vertical-align: baseline;&quot;&gt;(C)]&lt;/span&gt;&lt;/font&gt;&lt;/p&gt;&lt;p dir=&quot;ltr&quot; style=&quot;line-height:1.295;text-align: justify;margin-top:0pt;margin-bottom:0pt;&quot;&gt;&lt;font style=&quot;font-size: 25px;&quot;&gt;&lt;span style=&quot;font-family: &amp;quot;Times New Roman&amp;quot;, serif; color: rgb(0, 0, 0); background-color: transparent; font-weight: 400; font-style: normal; font-variant: normal; text-decoration: none; vertical-align: baseline;&quot;&gt;&lt;br&gt;&lt;/span&gt;&lt;/font&gt;&lt;/p&gt;&lt;/td&gt;&lt;/tr&gt;&lt;tr style=&quot;height:14pt&quot;&gt;&lt;td style=&quot;vertical-align:top;padding:0pt 5pt 0pt 5pt;overflow:hidden;overflow-wrap:break-word;&quot;&gt;&lt;font style=&quot;font-size: 25px;&quot;&gt;&lt;br&gt;&lt;/font&gt;&lt;p dir=&quot;ltr&quot; style=&quot;line-height:1.295;text-align: justify;margin-top:0pt;margin-bottom:0pt;&quot;&gt;&lt;font style=&quot;font-size: 25px;&quot;&gt;&lt;span style=&quot;font-family: &amp;quot;Times New Roman&amp;quot;, serif; color: rgb(0, 0, 0); background-color: transparent; font-weight: 700; font-style: normal; font-variant: normal; text-decoration: none; vertical-align: baseline;&quot;&gt;MNA 3&lt;/span&gt;&lt;span style=&quot;font-family: &amp;quot;Times New Roman&amp;quot;, serif; color: rgb(0, 0, 0); background-color: transparent; font-weight: 400; font-style: normal; font-variant: normal; text-decoration: none; vertical-align: baseline;&quot;&gt;:&amp;nbsp;&lt;/span&gt;&lt;/font&gt;&lt;/p&gt;&lt;/td&gt;&lt;td style=&quot;vertical-align:top;padding:0pt 5pt 0pt 5pt;overflow:hidden;overflow-wrap:break-word;&quot;&gt;&lt;font style=&quot;font-size: 25px;&quot;&gt;&lt;br&gt;&lt;/font&gt;&lt;p dir=&quot;ltr&quot; style=&quot;line-height:1.295;text-align: justify;margin-top:0pt;margin-bottom:0pt;&quot;&gt;&lt;font style=&quot;font-size: 25px;&quot;&gt;&lt;span style=&quot;font-family: &amp;quot;Times New Roman&amp;quot;, serif; color: rgb(0, 0, 0); background-color: transparent; font-weight: 400; font-style: normal; font-variant: normal; text-decoration: none; vertical-align: baseline;&quot;&gt;C(C[C(CCHH)C(CCNH)H(C)H&lt;/span&gt;&lt;/font&gt;&lt;span style=&quot;background-color: transparent; color: light-dark(rgb(0, 0, 0), rgb(237, 237, 237)); font-family: &amp;quot;Times New Roman&amp;quot;, serif;&quot;&gt;(C)]&lt;/span&gt;&lt;/p&gt;&lt;p dir=&quot;ltr&quot; style=&quot;line-height:1.295;text-align: justify;margin-top:0pt;margin-bottom:0pt;&quot;&gt;&lt;span style=&quot;background-color: transparent; color: light-dark(rgb(0, 0, 0), rgb(237, 237, 237)); font-family: &amp;quot;Times New Roman&amp;quot;, serif;&quot;&gt;&amp;nbsp; &amp;nbsp; C[C(CCNH)O(C)N(CCH)]&lt;/span&gt;&lt;/p&gt;&lt;p dir=&quot;ltr&quot; style=&quot;line-height:1.295;text-align: justify;margin-top:0pt;margin-bottom:0pt;&quot;&gt;&lt;span style=&quot;background-color: transparent; color: light-dark(rgb(0, 0, 0), rgb(237, 237, 237)); font-family: &amp;quot;Times New Roman&amp;quot;, serif;&quot;&gt;&amp;nbsp; &amp;nbsp; N&lt;/span&gt;&lt;span style=&quot;background-color: transparent; color: light-dark(rgb(0, 0, 0), rgb(237, 237, 237)); font-family: &amp;quot;Times New Roman&amp;quot;, serif;&quot;&gt;[C(CCNH)C(CON)H(C)]&lt;/span&gt;&lt;/p&gt;&lt;p dir=&quot;ltr&quot; style=&quot;line-height:1.295;text-align: justify;margin-top:0pt;margin-bottom:0pt;&quot;&gt;&lt;span style=&quot;background-color: transparent; color: light-dark(rgb(0, 0, 0), rgb(237, 237, 237)); font-family: &amp;quot;Times New Roman&amp;quot;, serif;&quot;&gt;&amp;nbsp; &amp;nbsp; H[C(CCNH)])&lt;/span&gt;&lt;/p&gt;&lt;/td&gt;&lt;/tr&gt;&lt;/tbody&gt;&lt;/table&gt;&lt;/div&gt;" style="text;whiteSpace=wrap;html=1;" parent="1" vertex="1">
          <mxGeometry x="710" y="121" width="570" height="479" as="geometry" />
        </mxCell>
      </root>
    </mxGraphModel>
  </diagram>
</mxfile>
